%TF.GenerationSoftware,KiCad,Pcbnew,10.0.3*%
%TF.CreationDate,2026-06-10T20:12:03+09:00*%
%TF.ProjectId,huck pad project,6875636b-2070-4616-9420-70726f6a6563,rev?*%
%TF.SameCoordinates,Original*%
%TF.FileFunction,Legend,Bot*%
%TF.FilePolarity,Positive*%
%FSLAX46Y46*%
G04 Gerber Fmt 4.6, Leading zero omitted, Abs format (unit mm)*
G04 Created by KiCad (PCBNEW 10.0.3) date 2026-06-10 20:12:03*
%MOMM*%
%LPD*%
G01*
G04 APERTURE LIST*
%ADD10C,0.101600*%
%ADD11C,0.150000*%
%ADD12C,0.127000*%
%ADD13C,0.120000*%
%ADD14C,0.254000*%
%ADD15C,0.025400*%
G04 APERTURE END LIST*
D10*
X171552333Y-97306985D02*
X171552333Y-98026652D01*
X171552333Y-98026652D02*
X171510000Y-98111318D01*
X171510000Y-98111318D02*
X171467666Y-98153652D01*
X171467666Y-98153652D02*
X171383000Y-98195985D01*
X171383000Y-98195985D02*
X171213666Y-98195985D01*
X171213666Y-98195985D02*
X171129000Y-98153652D01*
X171129000Y-98153652D02*
X171086666Y-98111318D01*
X171086666Y-98111318D02*
X171044333Y-98026652D01*
X171044333Y-98026652D02*
X171044333Y-97306985D01*
X170155333Y-98195985D02*
X170663333Y-98195985D01*
X170409333Y-98195985D02*
X170409333Y-97306985D01*
X170409333Y-97306985D02*
X170494000Y-97433985D01*
X170494000Y-97433985D02*
X170578667Y-97518652D01*
X170578667Y-97518652D02*
X170663333Y-97560985D01*
D11*
X172398808Y-95204819D02*
X171732142Y-96204819D01*
X171732142Y-95204819D02*
X172398808Y-96204819D01*
X171351189Y-96204819D02*
X171351189Y-95204819D01*
X170922618Y-95919104D02*
X170446428Y-95919104D01*
X171017856Y-96204819D02*
X170684523Y-95204819D01*
X170684523Y-95204819D02*
X170351190Y-96204819D01*
X169827380Y-95204819D02*
X169636904Y-95204819D01*
X169636904Y-95204819D02*
X169541666Y-95252438D01*
X169541666Y-95252438D02*
X169446428Y-95347676D01*
X169446428Y-95347676D02*
X169398809Y-95538152D01*
X169398809Y-95538152D02*
X169398809Y-95871485D01*
X169398809Y-95871485D02*
X169446428Y-96061961D01*
X169446428Y-96061961D02*
X169541666Y-96157200D01*
X169541666Y-96157200D02*
X169636904Y-96204819D01*
X169636904Y-96204819D02*
X169827380Y-96204819D01*
X169827380Y-96204819D02*
X169922618Y-96157200D01*
X169922618Y-96157200D02*
X170017856Y-96061961D01*
X170017856Y-96061961D02*
X170065475Y-95871485D01*
X170065475Y-95871485D02*
X170065475Y-95538152D01*
X170065475Y-95538152D02*
X170017856Y-95347676D01*
X170017856Y-95347676D02*
X169922618Y-95252438D01*
X169922618Y-95252438D02*
X169827380Y-95204819D01*
X175636904Y-94157200D02*
X175494047Y-94204819D01*
X175494047Y-94204819D02*
X175255952Y-94204819D01*
X175255952Y-94204819D02*
X175160714Y-94157200D01*
X175160714Y-94157200D02*
X175113095Y-94109580D01*
X175113095Y-94109580D02*
X175065476Y-94014342D01*
X175065476Y-94014342D02*
X175065476Y-93919104D01*
X175065476Y-93919104D02*
X175113095Y-93823866D01*
X175113095Y-93823866D02*
X175160714Y-93776247D01*
X175160714Y-93776247D02*
X175255952Y-93728628D01*
X175255952Y-93728628D02*
X175446428Y-93681009D01*
X175446428Y-93681009D02*
X175541666Y-93633390D01*
X175541666Y-93633390D02*
X175589285Y-93585771D01*
X175589285Y-93585771D02*
X175636904Y-93490533D01*
X175636904Y-93490533D02*
X175636904Y-93395295D01*
X175636904Y-93395295D02*
X175589285Y-93300057D01*
X175589285Y-93300057D02*
X175541666Y-93252438D01*
X175541666Y-93252438D02*
X175446428Y-93204819D01*
X175446428Y-93204819D02*
X175208333Y-93204819D01*
X175208333Y-93204819D02*
X175065476Y-93252438D01*
X174255952Y-94157200D02*
X174351190Y-94204819D01*
X174351190Y-94204819D02*
X174541666Y-94204819D01*
X174541666Y-94204819D02*
X174636904Y-94157200D01*
X174636904Y-94157200D02*
X174684523Y-94061961D01*
X174684523Y-94061961D02*
X174684523Y-93681009D01*
X174684523Y-93681009D02*
X174636904Y-93585771D01*
X174636904Y-93585771D02*
X174541666Y-93538152D01*
X174541666Y-93538152D02*
X174351190Y-93538152D01*
X174351190Y-93538152D02*
X174255952Y-93585771D01*
X174255952Y-93585771D02*
X174208333Y-93681009D01*
X174208333Y-93681009D02*
X174208333Y-93776247D01*
X174208333Y-93776247D02*
X174684523Y-93871485D01*
X173398809Y-94157200D02*
X173494047Y-94204819D01*
X173494047Y-94204819D02*
X173684523Y-94204819D01*
X173684523Y-94204819D02*
X173779761Y-94157200D01*
X173779761Y-94157200D02*
X173827380Y-94061961D01*
X173827380Y-94061961D02*
X173827380Y-93681009D01*
X173827380Y-93681009D02*
X173779761Y-93585771D01*
X173779761Y-93585771D02*
X173684523Y-93538152D01*
X173684523Y-93538152D02*
X173494047Y-93538152D01*
X173494047Y-93538152D02*
X173398809Y-93585771D01*
X173398809Y-93585771D02*
X173351190Y-93681009D01*
X173351190Y-93681009D02*
X173351190Y-93776247D01*
X173351190Y-93776247D02*
X173827380Y-93871485D01*
X172541666Y-94157200D02*
X172636904Y-94204819D01*
X172636904Y-94204819D02*
X172827380Y-94204819D01*
X172827380Y-94204819D02*
X172922618Y-94157200D01*
X172922618Y-94157200D02*
X172970237Y-94061961D01*
X172970237Y-94061961D02*
X172970237Y-93681009D01*
X172970237Y-93681009D02*
X172922618Y-93585771D01*
X172922618Y-93585771D02*
X172827380Y-93538152D01*
X172827380Y-93538152D02*
X172636904Y-93538152D01*
X172636904Y-93538152D02*
X172541666Y-93585771D01*
X172541666Y-93585771D02*
X172494047Y-93681009D01*
X172494047Y-93681009D02*
X172494047Y-93776247D01*
X172494047Y-93776247D02*
X172970237Y-93871485D01*
X171636904Y-94204819D02*
X171636904Y-93204819D01*
X171636904Y-94157200D02*
X171732142Y-94204819D01*
X171732142Y-94204819D02*
X171922618Y-94204819D01*
X171922618Y-94204819D02*
X172017856Y-94157200D01*
X172017856Y-94157200D02*
X172065475Y-94109580D01*
X172065475Y-94109580D02*
X172113094Y-94014342D01*
X172113094Y-94014342D02*
X172113094Y-93728628D01*
X172113094Y-93728628D02*
X172065475Y-93633390D01*
X172065475Y-93633390D02*
X172017856Y-93585771D01*
X172017856Y-93585771D02*
X171922618Y-93538152D01*
X171922618Y-93538152D02*
X171732142Y-93538152D01*
X171732142Y-93538152D02*
X171636904Y-93585771D01*
X170446427Y-94157200D02*
X170303570Y-94204819D01*
X170303570Y-94204819D02*
X170065475Y-94204819D01*
X170065475Y-94204819D02*
X169970237Y-94157200D01*
X169970237Y-94157200D02*
X169922618Y-94109580D01*
X169922618Y-94109580D02*
X169874999Y-94014342D01*
X169874999Y-94014342D02*
X169874999Y-93919104D01*
X169874999Y-93919104D02*
X169922618Y-93823866D01*
X169922618Y-93823866D02*
X169970237Y-93776247D01*
X169970237Y-93776247D02*
X170065475Y-93728628D01*
X170065475Y-93728628D02*
X170255951Y-93681009D01*
X170255951Y-93681009D02*
X170351189Y-93633390D01*
X170351189Y-93633390D02*
X170398808Y-93585771D01*
X170398808Y-93585771D02*
X170446427Y-93490533D01*
X170446427Y-93490533D02*
X170446427Y-93395295D01*
X170446427Y-93395295D02*
X170398808Y-93300057D01*
X170398808Y-93300057D02*
X170351189Y-93252438D01*
X170351189Y-93252438D02*
X170255951Y-93204819D01*
X170255951Y-93204819D02*
X170017856Y-93204819D01*
X170017856Y-93204819D02*
X169874999Y-93252438D01*
X169589284Y-93538152D02*
X169208332Y-93538152D01*
X169446427Y-93204819D02*
X169446427Y-94061961D01*
X169446427Y-94061961D02*
X169398808Y-94157200D01*
X169398808Y-94157200D02*
X169303570Y-94204819D01*
X169303570Y-94204819D02*
X169208332Y-94204819D01*
X168446427Y-93538152D02*
X168446427Y-94204819D01*
X168874998Y-93538152D02*
X168874998Y-94061961D01*
X168874998Y-94061961D02*
X168827379Y-94157200D01*
X168827379Y-94157200D02*
X168732141Y-94204819D01*
X168732141Y-94204819D02*
X168589284Y-94204819D01*
X168589284Y-94204819D02*
X168494046Y-94157200D01*
X168494046Y-94157200D02*
X168446427Y-94109580D01*
X167541665Y-94204819D02*
X167541665Y-93204819D01*
X167541665Y-94157200D02*
X167636903Y-94204819D01*
X167636903Y-94204819D02*
X167827379Y-94204819D01*
X167827379Y-94204819D02*
X167922617Y-94157200D01*
X167922617Y-94157200D02*
X167970236Y-94109580D01*
X167970236Y-94109580D02*
X168017855Y-94014342D01*
X168017855Y-94014342D02*
X168017855Y-93728628D01*
X168017855Y-93728628D02*
X167970236Y-93633390D01*
X167970236Y-93633390D02*
X167922617Y-93585771D01*
X167922617Y-93585771D02*
X167827379Y-93538152D01*
X167827379Y-93538152D02*
X167636903Y-93538152D01*
X167636903Y-93538152D02*
X167541665Y-93585771D01*
X167065474Y-94204819D02*
X167065474Y-93538152D01*
X167065474Y-93204819D02*
X167113093Y-93252438D01*
X167113093Y-93252438D02*
X167065474Y-93300057D01*
X167065474Y-93300057D02*
X167017855Y-93252438D01*
X167017855Y-93252438D02*
X167065474Y-93204819D01*
X167065474Y-93204819D02*
X167065474Y-93300057D01*
X166446427Y-94204819D02*
X166541665Y-94157200D01*
X166541665Y-94157200D02*
X166589284Y-94109580D01*
X166589284Y-94109580D02*
X166636903Y-94014342D01*
X166636903Y-94014342D02*
X166636903Y-93728628D01*
X166636903Y-93728628D02*
X166589284Y-93633390D01*
X166589284Y-93633390D02*
X166541665Y-93585771D01*
X166541665Y-93585771D02*
X166446427Y-93538152D01*
X166446427Y-93538152D02*
X166303570Y-93538152D01*
X166303570Y-93538152D02*
X166208332Y-93585771D01*
X166208332Y-93585771D02*
X166160713Y-93633390D01*
X166160713Y-93633390D02*
X166113094Y-93728628D01*
X166113094Y-93728628D02*
X166113094Y-94014342D01*
X166113094Y-94014342D02*
X166160713Y-94109580D01*
X166160713Y-94109580D02*
X166208332Y-94157200D01*
X166208332Y-94157200D02*
X166303570Y-94204819D01*
X166303570Y-94204819D02*
X166446427Y-94204819D01*
%TO.C,U1*%
D12*
X161975000Y-103750000D02*
X161975000Y-86750000D01*
X166375000Y-90679270D02*
X175375000Y-90679270D01*
X166375000Y-83325970D02*
X166375000Y-90679270D01*
X179775000Y-86750000D02*
X179775000Y-103750000D01*
X175375000Y-83325970D02*
X166375000Y-83325970D01*
X163975000Y-84750910D02*
X177775000Y-84750910D01*
X175375000Y-90679270D02*
X175375000Y-83325970D01*
X177775000Y-105750000D02*
X163975000Y-105750000D01*
D13*
X163975000Y-105750000D02*
G75*
G02*
X161975000Y-103750000I0J2000000D01*
G01*
X161975000Y-86750000D02*
G75*
G02*
X163975000Y-84750000I2044610J-44610D01*
G01*
X179775000Y-103750000D02*
G75*
G02*
X177775000Y-105750000I-2044857J44857D01*
G01*
X177775000Y-84750000D02*
G75*
G02*
X179775000Y-86750000I-44612J-2044612D01*
G01*
D14*
X182002000Y-86450000D02*
G75*
G02*
X181748000Y-86450000I-127000J0D01*
G01*
X181748000Y-86450000D02*
G75*
G02*
X182002000Y-86450000I127000J0D01*
G01*
D15*
X161985508Y-103771574D02*
X161987287Y-103820850D01*
X161990335Y-103869618D01*
X161994399Y-103918639D01*
X161999732Y-103967407D01*
X162006336Y-104016175D01*
X162013956Y-104064690D01*
X162022847Y-104112950D01*
X162032752Y-104160955D01*
X161985508Y-103771574D01*
X179762715Y-86688295D02*
X179759667Y-86639527D01*
X179755603Y-86590506D01*
X179762715Y-86688295D01*
%TD*%
M02*
