%TF.GenerationSoftware,KiCad,Pcbnew,10.0.3*%
%TF.CreationDate,2026-06-10T20:12:03+09:00*%
%TF.ProjectId,huck pad project,6875636b-2070-4616-9420-70726f6a6563,rev?*%
%TF.SameCoordinates,Original*%
%TF.FileFunction,Copper,L1,Top*%
%TF.FilePolarity,Positive*%
%FSLAX46Y46*%
G04 Gerber Fmt 4.6, Leading zero omitted, Abs format (unit mm)*
G04 Created by KiCad (PCBNEW 10.0.3) date 2026-06-10 20:12:03*
%MOMM*%
%LPD*%
G01*
G04 APERTURE LIST*
%TA.AperFunction,ComponentPad*%
%ADD10C,2.200000*%
%TD*%
%TA.AperFunction,ComponentPad*%
%ADD11R,3.500000X1.700000*%
%TD*%
%TA.AperFunction,ComponentPad*%
%ADD12O,3.600000X1.700000*%
%TD*%
%TA.AperFunction,ComponentPad*%
%ADD13O,3.700000X1.700000*%
%TD*%
%TA.AperFunction,Conductor*%
%ADD14C,0.200000*%
%TD*%
G04 APERTURE END LIST*
D10*
%TO.P,SW2,1,1_1*%
%TO.N,Net-(U1-PA5_A9_D9_MISO)*%
X154940000Y-90170000D03*
%TO.P,SW2,2,2_2*%
%TO.N,GND*%
X148590000Y-92710000D03*
%TD*%
%TO.P,SW3,1,1_1*%
%TO.N,Net-(U1-PA7_A8_D8_SCK)*%
X154940000Y-109220000D03*
%TO.P,SW3,2,2_2*%
%TO.N,GND*%
X148590000Y-111760000D03*
%TD*%
%TO.P,SW1,2,2_2*%
%TO.N,GND*%
X148590000Y-73660000D03*
%TO.P,SW1,1,1_1*%
%TO.N,Net-(U1-PA6_A10_D10_MOSI)*%
X154940000Y-71120000D03*
%TD*%
D11*
%TO.P,U1,1,PA02_A0_D0_1*%
%TO.N,unconnected-(U1-PA02_A0_D0-Pad1)*%
X179500000Y-87630000D03*
D12*
%TO.P,U1,2,PA4_A1_D1_2*%
%TO.N,unconnected-(U1-PA4_A1_D1-Pad2)*%
X179500000Y-90170000D03*
%TO.P,U1,3,PA10_A2_D2_3*%
%TO.N,unconnected-(U1-PA10_A2_D2-Pad3)*%
X179500000Y-92710000D03*
%TO.P,U1,4,PA11_A3_D3_4*%
%TO.N,unconnected-(U1-PA11_A3_D3-Pad4)*%
X179500000Y-95250000D03*
%TO.P,U1,5,PA8_A4_D4_SDA_5*%
%TO.N,unconnected-(U1-PA8_A4_D4_SDA-Pad5)*%
X179500000Y-97790000D03*
%TO.P,U1,6,PA9_A5_D5_SCL_6*%
%TO.N,unconnected-(U1-PA9_A5_D5_SCL-Pad6)*%
X179500000Y-100330000D03*
%TO.P,U1,7,PB08_A6_D6_TX_7*%
%TO.N,unconnected-(U1-PB08_A6_D6_TX-Pad7)*%
X179500000Y-102870000D03*
%TO.P,U1,8,PB09_A7_D7_RX_8*%
%TO.N,unconnected-(U1-PB09_A7_D7_RX-Pad8)*%
X162250000Y-102870000D03*
%TO.P,U1,9,PA7_A8_D8_SCK_9*%
%TO.N,Net-(U1-PA7_A8_D8_SCK)*%
X162250000Y-100330000D03*
%TO.P,U1,10,PA5_A9_D9_MISO_10*%
%TO.N,Net-(U1-PA5_A9_D9_MISO)*%
X162250000Y-97790000D03*
D13*
%TO.P,U1,11,PA6_A10_D10_MOSI_11*%
%TO.N,Net-(U1-PA6_A10_D10_MOSI)*%
X162250000Y-95250000D03*
%TO.P,U1,12,3V3_12*%
%TO.N,unconnected-(U1-3V3-Pad12)*%
X162250000Y-92710000D03*
%TO.P,U1,13,GND_13*%
%TO.N,GND*%
X162250000Y-90170000D03*
%TO.P,U1,14,5V_14*%
%TO.N,unconnected-(U1-5V-Pad14)*%
X162250000Y-87630000D03*
%TD*%
%TO.N,Net-(U1-PA7_A8_D8_SCK)*%
D14*
X154940000Y-107603654D02*
X162213654Y-100330000D01*
X162213654Y-100330000D02*
X163250000Y-100330000D01*
X154940000Y-109220000D02*
X154940000Y-107603654D01*
%TO.N,GND*%
X148590000Y-111760000D02*
X148590000Y-92710000D01*
X148590000Y-92710000D02*
X148590000Y-73660000D01*
%TO.N,Net-(U1-PA5_A9_D9_MISO)*%
X159790000Y-97790000D02*
X163250000Y-97790000D01*
X158680000Y-93910000D02*
X158680000Y-96680000D01*
X158680000Y-96680000D02*
X159790000Y-97790000D01*
X154940000Y-90170000D02*
X158680000Y-93910000D01*
%TO.N,GND*%
X168750000Y-88250000D02*
X166830000Y-90170000D01*
X166830000Y-90170000D02*
X163250000Y-90170000D01*
X168750000Y-76500000D02*
X168750000Y-88250000D01*
X148590000Y-73660000D02*
X165910000Y-73660000D01*
X165910000Y-73660000D02*
X168750000Y-76500000D01*
%TO.N,Net-(U1-PA6_A10_D10_MOSI)*%
X171250000Y-75500000D02*
X171250000Y-89250000D01*
X165250000Y-95250000D02*
X163250000Y-95250000D01*
X166870000Y-71120000D02*
X171250000Y-75500000D01*
X154940000Y-71120000D02*
X166870000Y-71120000D01*
X171250000Y-89250000D02*
X165250000Y-95250000D01*
%TD*%
%TA.AperFunction,Conductor*%
%TO.N,GND*%
G36*
X182312539Y-65520185D02*
G01*
X182358294Y-65572989D01*
X182369500Y-65624500D01*
X182369500Y-124875500D01*
X182349815Y-124942539D01*
X182297011Y-124988294D01*
X182245500Y-124999500D01*
X141624500Y-124999500D01*
X141557461Y-124979815D01*
X141511706Y-124927011D01*
X141500500Y-124875500D01*
X141500500Y-124001500D01*
X142624000Y-124001500D01*
X144126000Y-124001500D01*
X145124000Y-124001500D01*
X146626000Y-124001500D01*
X147624000Y-124001500D01*
X149126000Y-124001500D01*
X150124000Y-124001500D01*
X151626000Y-124001500D01*
X152624000Y-124001500D01*
X154126000Y-124001500D01*
X155124000Y-124001500D01*
X156626000Y-124001500D01*
X157624000Y-124001500D01*
X159126000Y-124001500D01*
X160124000Y-124001500D01*
X161626000Y-124001500D01*
X162624000Y-124001500D01*
X164126000Y-124001500D01*
X165124000Y-124001500D01*
X166626000Y-124001500D01*
X167624000Y-124001500D01*
X169126000Y-124001500D01*
X170124000Y-124001500D01*
X171626000Y-124001500D01*
X172624000Y-124001500D01*
X174126000Y-124001500D01*
X175124000Y-124001500D01*
X176626000Y-124001500D01*
X177624000Y-124001500D01*
X179126000Y-124001500D01*
X180124000Y-124001500D01*
X181371500Y-124001500D01*
X181371500Y-122624000D01*
X180124000Y-122624000D01*
X180124000Y-124001500D01*
X179126000Y-124001500D01*
X179126000Y-122624000D01*
X177624000Y-122624000D01*
X177624000Y-124001500D01*
X176626000Y-124001500D01*
X176626000Y-122624000D01*
X175124000Y-122624000D01*
X175124000Y-124001500D01*
X174126000Y-124001500D01*
X174126000Y-122624000D01*
X172624000Y-122624000D01*
X172624000Y-124001500D01*
X171626000Y-124001500D01*
X171626000Y-122624000D01*
X170124000Y-122624000D01*
X170124000Y-124001500D01*
X169126000Y-124001500D01*
X169126000Y-122624000D01*
X167624000Y-122624000D01*
X167624000Y-124001500D01*
X166626000Y-124001500D01*
X166626000Y-122624000D01*
X165124000Y-122624000D01*
X165124000Y-124001500D01*
X164126000Y-124001500D01*
X164126000Y-122624000D01*
X162624000Y-122624000D01*
X162624000Y-124001500D01*
X161626000Y-124001500D01*
X161626000Y-122624000D01*
X160124000Y-122624000D01*
X160124000Y-124001500D01*
X159126000Y-124001500D01*
X159126000Y-122624000D01*
X157624000Y-122624000D01*
X157624000Y-124001500D01*
X156626000Y-124001500D01*
X156626000Y-122624000D01*
X155124000Y-122624000D01*
X155124000Y-124001500D01*
X154126000Y-124001500D01*
X154126000Y-122624000D01*
X152624000Y-122624000D01*
X152624000Y-124001500D01*
X151626000Y-124001500D01*
X151626000Y-122624000D01*
X150124000Y-122624000D01*
X150124000Y-124001500D01*
X149126000Y-124001500D01*
X149126000Y-122624000D01*
X147624000Y-122624000D01*
X147624000Y-124001500D01*
X146626000Y-124001500D01*
X146626000Y-122624000D01*
X145124000Y-122624000D01*
X145124000Y-124001500D01*
X144126000Y-124001500D01*
X144126000Y-122624000D01*
X142624000Y-122624000D01*
X142624000Y-124001500D01*
X141500500Y-124001500D01*
X141500500Y-121626000D01*
X142624000Y-121626000D01*
X144126000Y-121626000D01*
X145124000Y-121626000D01*
X146626000Y-121626000D01*
X147624000Y-121626000D01*
X149126000Y-121626000D01*
X150124000Y-121626000D01*
X151626000Y-121626000D01*
X152624000Y-121626000D01*
X154126000Y-121626000D01*
X155124000Y-121626000D01*
X156626000Y-121626000D01*
X157624000Y-121626000D01*
X159126000Y-121626000D01*
X160124000Y-121626000D01*
X161626000Y-121626000D01*
X162624000Y-121626000D01*
X164126000Y-121626000D01*
X165124000Y-121626000D01*
X166626000Y-121626000D01*
X167624000Y-121626000D01*
X169126000Y-121626000D01*
X170124000Y-121626000D01*
X171626000Y-121626000D01*
X172624000Y-121626000D01*
X174126000Y-121626000D01*
X175124000Y-121626000D01*
X176626000Y-121626000D01*
X177624000Y-121626000D01*
X179126000Y-121626000D01*
X180124000Y-121626000D01*
X181371500Y-121626000D01*
X181371500Y-120124000D01*
X180124000Y-120124000D01*
X180124000Y-121626000D01*
X179126000Y-121626000D01*
X179126000Y-120124000D01*
X177624000Y-120124000D01*
X177624000Y-121626000D01*
X176626000Y-121626000D01*
X176626000Y-120124000D01*
X175124000Y-120124000D01*
X175124000Y-121626000D01*
X174126000Y-121626000D01*
X174126000Y-120124000D01*
X172624000Y-120124000D01*
X172624000Y-121626000D01*
X171626000Y-121626000D01*
X171626000Y-120124000D01*
X170124000Y-120124000D01*
X170124000Y-121626000D01*
X169126000Y-121626000D01*
X169126000Y-120124000D01*
X167624000Y-120124000D01*
X167624000Y-121626000D01*
X166626000Y-121626000D01*
X166626000Y-120124000D01*
X165124000Y-120124000D01*
X165124000Y-121626000D01*
X164126000Y-121626000D01*
X164126000Y-120124000D01*
X162624000Y-120124000D01*
X162624000Y-121626000D01*
X161626000Y-121626000D01*
X161626000Y-120124000D01*
X160124000Y-120124000D01*
X160124000Y-121626000D01*
X159126000Y-121626000D01*
X159126000Y-120124000D01*
X157624000Y-120124000D01*
X157624000Y-121626000D01*
X156626000Y-121626000D01*
X156626000Y-120124000D01*
X155124000Y-120124000D01*
X155124000Y-121626000D01*
X154126000Y-121626000D01*
X154126000Y-120124000D01*
X152624000Y-120124000D01*
X152624000Y-121626000D01*
X151626000Y-121626000D01*
X151626000Y-120124000D01*
X150124000Y-120124000D01*
X150124000Y-121626000D01*
X149126000Y-121626000D01*
X149126000Y-120124000D01*
X147624000Y-120124000D01*
X147624000Y-121626000D01*
X146626000Y-121626000D01*
X146626000Y-120124000D01*
X145124000Y-120124000D01*
X145124000Y-121626000D01*
X144126000Y-121626000D01*
X144126000Y-120124000D01*
X142624000Y-120124000D01*
X142624000Y-121626000D01*
X141500500Y-121626000D01*
X141500500Y-119126000D01*
X142624000Y-119126000D01*
X144126000Y-119126000D01*
X145124000Y-119126000D01*
X146626000Y-119126000D01*
X147624000Y-119126000D01*
X149126000Y-119126000D01*
X150124000Y-119126000D01*
X151626000Y-119126000D01*
X152624000Y-119126000D01*
X154126000Y-119126000D01*
X155124000Y-119126000D01*
X156626000Y-119126000D01*
X157624000Y-119126000D01*
X159126000Y-119126000D01*
X160124000Y-119126000D01*
X161626000Y-119126000D01*
X162624000Y-119126000D01*
X164126000Y-119126000D01*
X165124000Y-119126000D01*
X166626000Y-119126000D01*
X167624000Y-119126000D01*
X169126000Y-119126000D01*
X170124000Y-119126000D01*
X171626000Y-119126000D01*
X172624000Y-119126000D01*
X174126000Y-119126000D01*
X175124000Y-119126000D01*
X176626000Y-119126000D01*
X177624000Y-119126000D01*
X179126000Y-119126000D01*
X180124000Y-119126000D01*
X181371500Y-119126000D01*
X181371500Y-117624000D01*
X180124000Y-117624000D01*
X180124000Y-119126000D01*
X179126000Y-119126000D01*
X179126000Y-117624000D01*
X177624000Y-117624000D01*
X177624000Y-119126000D01*
X176626000Y-119126000D01*
X176626000Y-117624000D01*
X175124000Y-117624000D01*
X175124000Y-119126000D01*
X174126000Y-119126000D01*
X174126000Y-117624000D01*
X172624000Y-117624000D01*
X172624000Y-119126000D01*
X171626000Y-119126000D01*
X171626000Y-117624000D01*
X170124000Y-117624000D01*
X170124000Y-119126000D01*
X169126000Y-119126000D01*
X169126000Y-117624000D01*
X167624000Y-117624000D01*
X167624000Y-119126000D01*
X166626000Y-119126000D01*
X166626000Y-117624000D01*
X165124000Y-117624000D01*
X165124000Y-119126000D01*
X164126000Y-119126000D01*
X164126000Y-117624000D01*
X162624000Y-117624000D01*
X162624000Y-119126000D01*
X161626000Y-119126000D01*
X161626000Y-117624000D01*
X160124000Y-117624000D01*
X160124000Y-119126000D01*
X159126000Y-119126000D01*
X159126000Y-117624000D01*
X157624000Y-117624000D01*
X157624000Y-119126000D01*
X156626000Y-119126000D01*
X156626000Y-117624000D01*
X155124000Y-117624000D01*
X155124000Y-119126000D01*
X154126000Y-119126000D01*
X154126000Y-117624000D01*
X152624000Y-117624000D01*
X152624000Y-119126000D01*
X151626000Y-119126000D01*
X151626000Y-117624000D01*
X150124000Y-117624000D01*
X150124000Y-119126000D01*
X149126000Y-119126000D01*
X149126000Y-117624000D01*
X147624000Y-117624000D01*
X147624000Y-119126000D01*
X146626000Y-119126000D01*
X146626000Y-117624000D01*
X145124000Y-117624000D01*
X145124000Y-119126000D01*
X144126000Y-119126000D01*
X144126000Y-117624000D01*
X142624000Y-117624000D01*
X142624000Y-119126000D01*
X141500500Y-119126000D01*
X141500500Y-116626000D01*
X142624000Y-116626000D01*
X144126000Y-116626000D01*
X145124000Y-116626000D01*
X146626000Y-116626000D01*
X146626000Y-116376508D01*
X147624000Y-116376508D01*
X147624000Y-116626000D01*
X149126000Y-116626000D01*
X149126000Y-115375311D01*
X149124873Y-115377324D01*
X149122413Y-115381521D01*
X149101931Y-115414946D01*
X149099306Y-115419046D01*
X149082938Y-115443544D01*
X149080152Y-115447542D01*
X148955289Y-115619399D01*
X148952349Y-115623282D01*
X148934112Y-115646415D01*
X148931024Y-115650178D01*
X148905566Y-115679985D01*
X148902331Y-115683625D01*
X148882338Y-115705253D01*
X148878964Y-115708762D01*
X148728762Y-115858964D01*
X148725253Y-115862338D01*
X148703625Y-115882331D01*
X148699985Y-115885566D01*
X148670178Y-115911024D01*
X148666415Y-115914112D01*
X148643282Y-115932349D01*
X148639399Y-115935289D01*
X148467542Y-116060152D01*
X148463544Y-116062938D01*
X148439046Y-116079306D01*
X148434946Y-116081931D01*
X148401521Y-116102413D01*
X148397324Y-116104873D01*
X148371628Y-116119264D01*
X148367332Y-116121560D01*
X148178051Y-116218003D01*
X148173666Y-116220129D01*
X148146892Y-116232471D01*
X148142426Y-116234425D01*
X148106210Y-116249423D01*
X148101680Y-116251195D01*
X148074069Y-116261380D01*
X148069473Y-116262974D01*
X147867465Y-116328611D01*
X147862805Y-116330025D01*
X147834463Y-116338018D01*
X147829758Y-116339245D01*
X147791641Y-116348398D01*
X147786880Y-116349443D01*
X147757979Y-116355192D01*
X147753185Y-116356048D01*
X147624000Y-116376508D01*
X146626000Y-116376508D01*
X146626000Y-116280998D01*
X146570527Y-116262974D01*
X146565931Y-116261380D01*
X146538320Y-116251195D01*
X146533790Y-116249423D01*
X146497574Y-116234425D01*
X146493108Y-116232471D01*
X146466334Y-116220129D01*
X146461949Y-116218003D01*
X146272668Y-116121560D01*
X146268372Y-116119264D01*
X146242676Y-116104873D01*
X146238479Y-116102413D01*
X146205054Y-116081931D01*
X146200954Y-116079306D01*
X146176456Y-116062938D01*
X146172458Y-116060152D01*
X146000601Y-115935289D01*
X145996718Y-115932349D01*
X145973585Y-115914112D01*
X145969822Y-115911024D01*
X145940015Y-115885566D01*
X145936375Y-115882331D01*
X145914747Y-115862338D01*
X145911238Y-115858964D01*
X145761036Y-115708762D01*
X145757662Y-115705253D01*
X145737669Y-115683625D01*
X145734434Y-115679985D01*
X145708976Y-115650178D01*
X145705888Y-115646415D01*
X145687651Y-115623282D01*
X145684711Y-115619399D01*
X145559848Y-115447542D01*
X145557062Y-115443544D01*
X145540694Y-115419046D01*
X145538069Y-115414946D01*
X145517587Y-115381521D01*
X145515127Y-115377324D01*
X145500736Y-115351628D01*
X145498440Y-115347332D01*
X145401997Y-115158051D01*
X145399871Y-115153666D01*
X145387529Y-115126892D01*
X145386264Y-115124000D01*
X145124000Y-115124000D01*
X145124000Y-116626000D01*
X144126000Y-116626000D01*
X144126000Y-115124000D01*
X142624000Y-115124000D01*
X142624000Y-116626000D01*
X141500500Y-116626000D01*
X141500500Y-114213389D01*
X146219500Y-114213389D01*
X146219500Y-114386611D01*
X146246598Y-114557701D01*
X146300127Y-114722445D01*
X146378768Y-114876788D01*
X146480586Y-115016928D01*
X146603072Y-115139414D01*
X146743212Y-115241232D01*
X146897555Y-115319873D01*
X147062299Y-115373402D01*
X147233389Y-115400500D01*
X147233390Y-115400500D01*
X147406610Y-115400500D01*
X147406611Y-115400500D01*
X147577701Y-115373402D01*
X147742445Y-115319873D01*
X147896788Y-115241232D01*
X148036928Y-115139414D01*
X148159414Y-115016928D01*
X148261232Y-114876788D01*
X148339873Y-114722445D01*
X148393402Y-114557701D01*
X148420500Y-114386611D01*
X148420500Y-114213389D01*
X148410854Y-114152486D01*
X150149500Y-114152486D01*
X150149500Y-114447513D01*
X150181571Y-114691113D01*
X150188007Y-114739993D01*
X150262212Y-115016930D01*
X150264361Y-115024951D01*
X150264364Y-115024961D01*
X150377254Y-115297500D01*
X150377258Y-115297510D01*
X150524761Y-115552993D01*
X150704352Y-115787040D01*
X150704358Y-115787047D01*
X150912952Y-115995641D01*
X150912959Y-115995647D01*
X151147006Y-116175238D01*
X151402489Y-116322741D01*
X151402490Y-116322741D01*
X151402493Y-116322743D01*
X151675048Y-116435639D01*
X151960007Y-116511993D01*
X152252494Y-116550500D01*
X152252501Y-116550500D01*
X152547499Y-116550500D01*
X152547506Y-116550500D01*
X152839993Y-116511993D01*
X153124952Y-116435639D01*
X153397507Y-116322743D01*
X153652994Y-116175238D01*
X153779577Y-116078107D01*
X155124000Y-116078107D01*
X155124000Y-116626000D01*
X156626000Y-116626000D01*
X156626000Y-116397042D01*
X157624000Y-116397042D01*
X157624000Y-116626000D01*
X159126000Y-116626000D01*
X160124000Y-116626000D01*
X161626000Y-116626000D01*
X162624000Y-116626000D01*
X164126000Y-116626000D01*
X165124000Y-116626000D01*
X166626000Y-116626000D01*
X167624000Y-116626000D01*
X169126000Y-116626000D01*
X170124000Y-116626000D01*
X171626000Y-116626000D01*
X172624000Y-116626000D01*
X174126000Y-116626000D01*
X175124000Y-116626000D01*
X176626000Y-116626000D01*
X177624000Y-116626000D01*
X179126000Y-116626000D01*
X180124000Y-116626000D01*
X181371500Y-116626000D01*
X181371500Y-115124000D01*
X180124000Y-115124000D01*
X180124000Y-116626000D01*
X179126000Y-116626000D01*
X179126000Y-115124000D01*
X177624000Y-115124000D01*
X177624000Y-116626000D01*
X176626000Y-116626000D01*
X176626000Y-115124000D01*
X175124000Y-115124000D01*
X175124000Y-116626000D01*
X174126000Y-116626000D01*
X174126000Y-115124000D01*
X172624000Y-115124000D01*
X172624000Y-116626000D01*
X171626000Y-116626000D01*
X171626000Y-115124000D01*
X170124000Y-115124000D01*
X170124000Y-116626000D01*
X169126000Y-116626000D01*
X169126000Y-115124000D01*
X167624000Y-115124000D01*
X167624000Y-116626000D01*
X166626000Y-116626000D01*
X166626000Y-115124000D01*
X165124000Y-115124000D01*
X165124000Y-116626000D01*
X164126000Y-116626000D01*
X164126000Y-115124000D01*
X162624000Y-115124000D01*
X162624000Y-116626000D01*
X161626000Y-116626000D01*
X161626000Y-115124000D01*
X160124000Y-115124000D01*
X160124000Y-116626000D01*
X159126000Y-116626000D01*
X159126000Y-115604656D01*
X159115289Y-115619399D01*
X159112349Y-115623282D01*
X159094112Y-115646415D01*
X159091024Y-115650178D01*
X159065566Y-115679985D01*
X159062331Y-115683625D01*
X159042338Y-115705253D01*
X159038964Y-115708762D01*
X158888762Y-115858964D01*
X158885253Y-115862338D01*
X158863625Y-115882331D01*
X158859985Y-115885566D01*
X158830178Y-115911024D01*
X158826415Y-115914112D01*
X158803282Y-115932349D01*
X158799399Y-115935289D01*
X158627542Y-116060152D01*
X158623544Y-116062938D01*
X158599046Y-116079306D01*
X158594946Y-116081931D01*
X158561521Y-116102413D01*
X158557324Y-116104873D01*
X158531628Y-116119264D01*
X158527332Y-116121560D01*
X158338051Y-116218003D01*
X158333666Y-116220129D01*
X158306892Y-116232471D01*
X158302426Y-116234425D01*
X158266210Y-116249423D01*
X158261680Y-116251195D01*
X158234069Y-116261380D01*
X158229473Y-116262974D01*
X158027465Y-116328611D01*
X158022805Y-116330025D01*
X157994463Y-116338018D01*
X157989758Y-116339245D01*
X157951641Y-116348398D01*
X157946880Y-116349443D01*
X157917979Y-116355192D01*
X157913185Y-116356048D01*
X157703383Y-116389277D01*
X157698564Y-116389944D01*
X157669331Y-116393405D01*
X157664485Y-116393882D01*
X157625406Y-116396959D01*
X157624000Y-116397042D01*
X156626000Y-116397042D01*
X156626000Y-116219967D01*
X156621949Y-116218003D01*
X156432668Y-116121560D01*
X156428372Y-116119264D01*
X156402676Y-116104873D01*
X156398479Y-116102413D01*
X156365054Y-116081931D01*
X156360954Y-116079306D01*
X156336456Y-116062938D01*
X156332458Y-116060152D01*
X156160601Y-115935289D01*
X156156718Y-115932349D01*
X156133585Y-115914112D01*
X156129822Y-115911024D01*
X156100015Y-115885566D01*
X156096375Y-115882331D01*
X156074747Y-115862338D01*
X156071238Y-115858964D01*
X155921036Y-115708762D01*
X155917662Y-115705253D01*
X155897669Y-115683625D01*
X155894434Y-115679985D01*
X155868976Y-115650178D01*
X155865888Y-115646415D01*
X155847651Y-115623282D01*
X155844711Y-115619399D01*
X155719848Y-115447542D01*
X155717062Y-115443544D01*
X155700694Y-115419046D01*
X155698069Y-115414946D01*
X155677587Y-115381521D01*
X155675127Y-115377324D01*
X155660736Y-115351628D01*
X155658440Y-115347332D01*
X155561997Y-115158051D01*
X155559871Y-115153666D01*
X155547529Y-115126892D01*
X155546264Y-115124000D01*
X155542304Y-115124000D01*
X155495410Y-115299011D01*
X155494298Y-115302906D01*
X155487183Y-115326366D01*
X155485943Y-115330225D01*
X155475446Y-115361158D01*
X155474076Y-115364989D01*
X155465419Y-115387991D01*
X155463927Y-115391766D01*
X155338522Y-115694522D01*
X155336906Y-115698249D01*
X155326768Y-115720622D01*
X155325033Y-115724290D01*
X155310585Y-115753585D01*
X155308731Y-115757194D01*
X155297168Y-115778825D01*
X155295199Y-115782368D01*
X155131365Y-116066139D01*
X155129278Y-116069620D01*
X155124000Y-116078107D01*
X153779577Y-116078107D01*
X153887042Y-115995646D01*
X154095646Y-115787042D01*
X154275238Y-115552994D01*
X154422743Y-115297507D01*
X154535639Y-115024952D01*
X154611993Y-114739993D01*
X154650500Y-114447506D01*
X154650500Y-114213389D01*
X156379500Y-114213389D01*
X156379500Y-114386611D01*
X156406598Y-114557701D01*
X156460127Y-114722445D01*
X156538768Y-114876788D01*
X156640586Y-115016928D01*
X156763072Y-115139414D01*
X156903212Y-115241232D01*
X157057555Y-115319873D01*
X157222299Y-115373402D01*
X157393389Y-115400500D01*
X157393390Y-115400500D01*
X157566610Y-115400500D01*
X157566611Y-115400500D01*
X157737701Y-115373402D01*
X157902445Y-115319873D01*
X158056788Y-115241232D01*
X158196928Y-115139414D01*
X158319414Y-115016928D01*
X158421232Y-114876788D01*
X158499873Y-114722445D01*
X158553402Y-114557701D01*
X158580500Y-114386611D01*
X158580500Y-114213389D01*
X158566659Y-114126000D01*
X160124000Y-114126000D01*
X161626000Y-114126000D01*
X162624000Y-114126000D01*
X164126000Y-114126000D01*
X165124000Y-114126000D01*
X166626000Y-114126000D01*
X167624000Y-114126000D01*
X169126000Y-114126000D01*
X170124000Y-114126000D01*
X171626000Y-114126000D01*
X172624000Y-114126000D01*
X174126000Y-114126000D01*
X175124000Y-114126000D01*
X176626000Y-114126000D01*
X177624000Y-114126000D01*
X179126000Y-114126000D01*
X180124000Y-114126000D01*
X181371500Y-114126000D01*
X181371500Y-112624000D01*
X180124000Y-112624000D01*
X180124000Y-114126000D01*
X179126000Y-114126000D01*
X179126000Y-112624000D01*
X177624000Y-112624000D01*
X177624000Y-114126000D01*
X176626000Y-114126000D01*
X176626000Y-112624000D01*
X175124000Y-112624000D01*
X175124000Y-114126000D01*
X174126000Y-114126000D01*
X174126000Y-112624000D01*
X172624000Y-112624000D01*
X172624000Y-114126000D01*
X171626000Y-114126000D01*
X171626000Y-112624000D01*
X170124000Y-112624000D01*
X170124000Y-114126000D01*
X169126000Y-114126000D01*
X169126000Y-112624000D01*
X167624000Y-112624000D01*
X167624000Y-114126000D01*
X166626000Y-114126000D01*
X166626000Y-112624000D01*
X165124000Y-112624000D01*
X165124000Y-114126000D01*
X164126000Y-114126000D01*
X164126000Y-112624000D01*
X162624000Y-112624000D01*
X162624000Y-114126000D01*
X161626000Y-114126000D01*
X161626000Y-112624000D01*
X160124000Y-112624000D01*
X160124000Y-114126000D01*
X158566659Y-114126000D01*
X158553402Y-114042299D01*
X158499873Y-113877555D01*
X158421232Y-113723212D01*
X158319414Y-113583072D01*
X158196928Y-113460586D01*
X158056788Y-113358768D01*
X157902445Y-113280127D01*
X157737701Y-113226598D01*
X157737699Y-113226597D01*
X157737698Y-113226597D01*
X157606271Y-113205781D01*
X157566611Y-113199500D01*
X157393389Y-113199500D01*
X157353728Y-113205781D01*
X157222302Y-113226597D01*
X157057552Y-113280128D01*
X156903211Y-113358768D01*
X156837498Y-113406512D01*
X156763072Y-113460586D01*
X156763070Y-113460588D01*
X156763069Y-113460588D01*
X156640588Y-113583069D01*
X156640588Y-113583070D01*
X156640586Y-113583072D01*
X156602751Y-113635147D01*
X156538768Y-113723211D01*
X156460128Y-113877552D01*
X156406597Y-114042302D01*
X156393341Y-114126000D01*
X156379500Y-114213389D01*
X154650500Y-114213389D01*
X154650500Y-114152494D01*
X154611993Y-113860007D01*
X154535639Y-113575048D01*
X154422743Y-113302493D01*
X154406081Y-113273634D01*
X154275238Y-113047006D01*
X154095647Y-112812959D01*
X154095641Y-112812952D01*
X153906689Y-112624000D01*
X155183406Y-112624000D01*
X155295199Y-112817632D01*
X155297168Y-112821175D01*
X155308731Y-112842806D01*
X155310585Y-112846415D01*
X155325033Y-112875710D01*
X155326768Y-112879378D01*
X155336906Y-112901751D01*
X155338522Y-112905478D01*
X155463927Y-113208234D01*
X155465419Y-113212009D01*
X155474076Y-113235011D01*
X155475446Y-113238842D01*
X155485943Y-113269775D01*
X155487183Y-113273634D01*
X155494298Y-113297094D01*
X155495410Y-113300988D01*
X155543845Y-113481750D01*
X155545575Y-113477574D01*
X155547529Y-113473108D01*
X155559871Y-113446334D01*
X155561997Y-113441949D01*
X155658440Y-113252668D01*
X155660736Y-113248372D01*
X155675127Y-113222676D01*
X155677587Y-113218479D01*
X155698069Y-113185054D01*
X155700694Y-113180954D01*
X155717062Y-113156456D01*
X155719848Y-113152458D01*
X155844711Y-112980601D01*
X155847651Y-112976718D01*
X155865888Y-112953585D01*
X155868976Y-112949822D01*
X155894434Y-112920015D01*
X155897669Y-112916375D01*
X155917662Y-112894747D01*
X155921036Y-112891238D01*
X156071238Y-112741036D01*
X156074747Y-112737662D01*
X156096375Y-112717669D01*
X156100015Y-112714434D01*
X156129822Y-112688976D01*
X156133585Y-112685888D01*
X156156718Y-112667651D01*
X156160601Y-112664711D01*
X156216634Y-112624000D01*
X155183406Y-112624000D01*
X153906689Y-112624000D01*
X153887047Y-112604358D01*
X153887040Y-112604352D01*
X153652993Y-112424761D01*
X153397510Y-112277258D01*
X153397500Y-112277254D01*
X153124961Y-112164364D01*
X153124954Y-112164362D01*
X153124952Y-112164361D01*
X152839993Y-112088007D01*
X152791113Y-112081571D01*
X152547513Y-112049500D01*
X152547506Y-112049500D01*
X152252494Y-112049500D01*
X152252486Y-112049500D01*
X151974085Y-112086153D01*
X151960007Y-112088007D01*
X151790190Y-112133509D01*
X151675048Y-112164361D01*
X151675038Y-112164364D01*
X151402499Y-112277254D01*
X151402489Y-112277258D01*
X151147006Y-112424761D01*
X150912959Y-112604352D01*
X150912952Y-112604358D01*
X150704358Y-112812952D01*
X150704352Y-112812959D01*
X150524761Y-113047006D01*
X150377258Y-113302489D01*
X150377254Y-113302499D01*
X150264364Y-113575038D01*
X150264361Y-113575048D01*
X150188008Y-113860004D01*
X150188006Y-113860015D01*
X150149500Y-114152486D01*
X148410854Y-114152486D01*
X148393402Y-114042299D01*
X148339873Y-113877555D01*
X148261232Y-113723212D01*
X148159414Y-113583072D01*
X148036928Y-113460586D01*
X147896788Y-113358768D01*
X147742445Y-113280127D01*
X147577701Y-113226598D01*
X147406611Y-113199500D01*
X147233389Y-113199500D01*
X147193728Y-113205781D01*
X147062302Y-113226597D01*
X146897552Y-113280128D01*
X146743211Y-113358768D01*
X146677498Y-113406512D01*
X146603072Y-113460586D01*
X146603070Y-113460588D01*
X146603069Y-113460588D01*
X146480588Y-113583069D01*
X146480588Y-113583070D01*
X146480586Y-113583072D01*
X146442751Y-113635147D01*
X146378768Y-113723211D01*
X146300128Y-113877552D01*
X146246597Y-114042302D01*
X146233341Y-114126000D01*
X146219500Y-114213389D01*
X141500500Y-114213389D01*
X141500500Y-114126000D01*
X142624000Y-114126000D01*
X144126000Y-114126000D01*
X145124000Y-114126000D01*
X145225292Y-114126000D01*
X145226118Y-114115515D01*
X145226595Y-114110669D01*
X145230056Y-114081436D01*
X145230723Y-114076617D01*
X145263952Y-113866815D01*
X145264808Y-113862021D01*
X145270557Y-113833120D01*
X145271602Y-113828359D01*
X145280755Y-113790242D01*
X145281982Y-113785537D01*
X145289975Y-113757195D01*
X145291389Y-113752535D01*
X145357026Y-113550527D01*
X145358620Y-113545931D01*
X145368805Y-113518320D01*
X145370577Y-113513790D01*
X145385575Y-113477574D01*
X145387529Y-113473108D01*
X145399871Y-113446334D01*
X145401997Y-113441949D01*
X145498440Y-113252668D01*
X145500736Y-113248372D01*
X145515127Y-113222676D01*
X145517587Y-113218479D01*
X145538069Y-113185054D01*
X145540694Y-113180954D01*
X145557062Y-113156456D01*
X145559848Y-113152458D01*
X145684711Y-112980601D01*
X145687651Y-112976718D01*
X145705888Y-112953585D01*
X145708976Y-112949822D01*
X145734434Y-112920015D01*
X145737669Y-112916375D01*
X145757662Y-112894747D01*
X145761036Y-112891238D01*
X145911238Y-112741036D01*
X145914747Y-112737662D01*
X145936375Y-112717669D01*
X145940015Y-112714434D01*
X145969822Y-112688976D01*
X145973585Y-112685888D01*
X145996718Y-112667651D01*
X146000601Y-112664711D01*
X146056634Y-112624000D01*
X145124000Y-112624000D01*
X145124000Y-114126000D01*
X144126000Y-114126000D01*
X144126000Y-112624000D01*
X142624000Y-112624000D01*
X142624000Y-114126000D01*
X141500500Y-114126000D01*
X141500500Y-111634465D01*
X146994932Y-111634465D01*
X146994932Y-111885534D01*
X147034207Y-112133509D01*
X147111794Y-112372295D01*
X147225778Y-112596001D01*
X147373344Y-112799110D01*
X147373348Y-112799115D01*
X147550884Y-112976651D01*
X147550889Y-112976655D01*
X147565475Y-112987252D01*
X147608143Y-113042580D01*
X147614124Y-113112193D01*
X147589837Y-113158224D01*
X147685058Y-113227406D01*
X147693366Y-113232497D01*
X147925753Y-113350904D01*
X147934755Y-113354632D01*
X148071631Y-113399106D01*
X148072054Y-113393198D01*
X148113926Y-113337265D01*
X148179390Y-113312848D01*
X148211600Y-113315502D01*
X148211675Y-113315030D01*
X148464466Y-113355068D01*
X148715534Y-113355068D01*
X148963509Y-113315792D01*
X149202295Y-113238205D01*
X149425998Y-113124223D01*
X149527166Y-113050719D01*
X149527167Y-113050719D01*
X148914025Y-112437578D01*
X148945258Y-112424641D01*
X149068097Y-112342563D01*
X149172563Y-112238097D01*
X149254641Y-112115258D01*
X149267578Y-112084025D01*
X149880719Y-112697167D01*
X149880719Y-112697166D01*
X149954223Y-112595998D01*
X150068205Y-112372295D01*
X150145792Y-112133509D01*
X150185068Y-111885534D01*
X150185068Y-111634465D01*
X150183727Y-111626000D01*
X155934542Y-111626000D01*
X156626000Y-111626000D01*
X157624000Y-111626000D01*
X159126000Y-111626000D01*
X160124000Y-111626000D01*
X161626000Y-111626000D01*
X162624000Y-111626000D01*
X164126000Y-111626000D01*
X165124000Y-111626000D01*
X166626000Y-111626000D01*
X167624000Y-111626000D01*
X169126000Y-111626000D01*
X170124000Y-111626000D01*
X171626000Y-111626000D01*
X172624000Y-111626000D01*
X174126000Y-111626000D01*
X175124000Y-111626000D01*
X176626000Y-111626000D01*
X177624000Y-111626000D01*
X179126000Y-111626000D01*
X180124000Y-111626000D01*
X181371500Y-111626000D01*
X181371500Y-110124000D01*
X180124000Y-110124000D01*
X180124000Y-111626000D01*
X179126000Y-111626000D01*
X179126000Y-110124000D01*
X177624000Y-110124000D01*
X177624000Y-111626000D01*
X176626000Y-111626000D01*
X176626000Y-110124000D01*
X175124000Y-110124000D01*
X175124000Y-111626000D01*
X174126000Y-111626000D01*
X174126000Y-110124000D01*
X172624000Y-110124000D01*
X172624000Y-111626000D01*
X171626000Y-111626000D01*
X171626000Y-110124000D01*
X170124000Y-110124000D01*
X170124000Y-111626000D01*
X169126000Y-111626000D01*
X169126000Y-110124000D01*
X167624000Y-110124000D01*
X167624000Y-111626000D01*
X166626000Y-111626000D01*
X166626000Y-110124000D01*
X165124000Y-110124000D01*
X165124000Y-111626000D01*
X164126000Y-111626000D01*
X164126000Y-110124000D01*
X162624000Y-110124000D01*
X162624000Y-111626000D01*
X161626000Y-111626000D01*
X161626000Y-110124000D01*
X160124000Y-110124000D01*
X160124000Y-111626000D01*
X159126000Y-111626000D01*
X159126000Y-110124000D01*
X157624000Y-110124000D01*
X157624000Y-111626000D01*
X156626000Y-111626000D01*
X156626000Y-111203783D01*
X156615945Y-111212372D01*
X156612179Y-111215463D01*
X156589021Y-111233721D01*
X156585134Y-111236663D01*
X156349595Y-111407792D01*
X156345599Y-111410578D01*
X156321103Y-111426945D01*
X156317002Y-111429569D01*
X156283579Y-111450050D01*
X156279379Y-111452512D01*
X156253683Y-111466902D01*
X156249390Y-111469197D01*
X155989986Y-111601370D01*
X155985603Y-111603495D01*
X155958828Y-111615838D01*
X155954360Y-111617793D01*
X155934542Y-111626000D01*
X150183727Y-111626000D01*
X150145792Y-111386490D01*
X150068205Y-111147704D01*
X149954221Y-110923998D01*
X149880720Y-110822832D01*
X149880719Y-110822831D01*
X149267577Y-111435973D01*
X149254641Y-111404742D01*
X149172563Y-111281903D01*
X149068097Y-111177437D01*
X148945258Y-111095359D01*
X148914024Y-111082421D01*
X149527167Y-110469279D01*
X149527166Y-110469278D01*
X149426002Y-110395778D01*
X149202295Y-110281794D01*
X148963509Y-110204207D01*
X148963510Y-110204207D01*
X148715534Y-110164932D01*
X148464466Y-110164932D01*
X148216490Y-110204207D01*
X147977704Y-110281794D01*
X147754003Y-110395775D01*
X147652832Y-110469279D01*
X148265975Y-111082421D01*
X148234742Y-111095359D01*
X148111903Y-111177437D01*
X148007437Y-111281903D01*
X147925359Y-111404742D01*
X147912421Y-111435975D01*
X147299279Y-110822832D01*
X147225775Y-110924003D01*
X147111794Y-111147704D01*
X147034207Y-111386490D01*
X146994932Y-111634465D01*
X141500500Y-111634465D01*
X141500500Y-111626000D01*
X142624000Y-111626000D01*
X144126000Y-111626000D01*
X145124000Y-111626000D01*
X145996932Y-111626000D01*
X145996932Y-111614855D01*
X145997028Y-111609983D01*
X145998186Y-111580531D01*
X145998473Y-111575666D01*
X146001551Y-111536587D01*
X146002028Y-111531749D01*
X146005488Y-111502516D01*
X146006155Y-111497693D01*
X146051562Y-111211002D01*
X146052418Y-111206207D01*
X146058167Y-111177307D01*
X146059212Y-111172547D01*
X146068365Y-111134430D01*
X146069592Y-111129725D01*
X146077585Y-111101383D01*
X146078999Y-111096723D01*
X146168692Y-110820678D01*
X146170286Y-110816081D01*
X146180471Y-110788471D01*
X146182243Y-110783942D01*
X146197241Y-110747726D01*
X146199195Y-110743259D01*
X146211538Y-110716483D01*
X146213664Y-110712099D01*
X146345449Y-110453458D01*
X146347744Y-110449165D01*
X146362134Y-110423469D01*
X146364597Y-110419267D01*
X146385078Y-110385845D01*
X146387700Y-110381748D01*
X146404065Y-110357254D01*
X146406851Y-110353256D01*
X146573413Y-110124000D01*
X150606585Y-110124000D01*
X150773146Y-110353253D01*
X150775930Y-110357247D01*
X150792297Y-110381742D01*
X150794923Y-110385845D01*
X150815404Y-110419268D01*
X150817866Y-110423467D01*
X150832257Y-110449164D01*
X150834552Y-110453458D01*
X150966336Y-110712100D01*
X150968461Y-110716483D01*
X150980804Y-110743258D01*
X150982759Y-110747726D01*
X150997757Y-110783942D01*
X150999529Y-110788471D01*
X151009714Y-110816081D01*
X151011308Y-110820678D01*
X151101001Y-111096723D01*
X151102415Y-111101383D01*
X151110408Y-111129725D01*
X151111635Y-111134430D01*
X151120788Y-111172547D01*
X151121833Y-111177307D01*
X151127582Y-111206207D01*
X151128438Y-111211003D01*
X151143233Y-111304418D01*
X151308234Y-111236073D01*
X151312009Y-111234581D01*
X151335011Y-111225924D01*
X151338842Y-111224554D01*
X151369775Y-111214057D01*
X151373634Y-111212817D01*
X151397094Y-111205702D01*
X151400988Y-111204590D01*
X151626000Y-111144298D01*
X151626000Y-111054371D01*
X152624000Y-111054371D01*
X152629072Y-111054704D01*
X152633117Y-111055036D01*
X152657547Y-111057442D01*
X152661580Y-111057906D01*
X152986459Y-111100678D01*
X152990477Y-111101274D01*
X153014705Y-111105275D01*
X153018695Y-111106001D01*
X153050731Y-111112374D01*
X153054695Y-111113230D01*
X153078587Y-111118801D01*
X153082523Y-111119787D01*
X153195125Y-111149958D01*
X152999667Y-110954500D01*
X152996297Y-110950996D01*
X152976323Y-110929391D01*
X152973089Y-110925752D01*
X152947628Y-110895945D01*
X152944537Y-110892179D01*
X152926279Y-110869021D01*
X152923337Y-110865134D01*
X152752208Y-110629595D01*
X152749422Y-110625599D01*
X152733055Y-110601103D01*
X152730431Y-110597002D01*
X152709950Y-110563579D01*
X152707488Y-110559379D01*
X152693098Y-110533683D01*
X152690803Y-110529390D01*
X152624000Y-110398281D01*
X152624000Y-111054371D01*
X151626000Y-111054371D01*
X151626000Y-110124000D01*
X150606585Y-110124000D01*
X146573413Y-110124000D01*
X145124000Y-110124000D01*
X145124000Y-111626000D01*
X144126000Y-111626000D01*
X144126000Y-110124000D01*
X142624000Y-110124000D01*
X142624000Y-111626000D01*
X141500500Y-111626000D01*
X141500500Y-109126000D01*
X142624000Y-109126000D01*
X144126000Y-109126000D01*
X145124000Y-109126000D01*
X146626000Y-109126000D01*
X147624000Y-109126000D01*
X149126000Y-109126000D01*
X150124000Y-109126000D01*
X151626000Y-109126000D01*
X151626000Y-107624000D01*
X150124000Y-107624000D01*
X150124000Y-109126000D01*
X149126000Y-109126000D01*
X149126000Y-107624000D01*
X147624000Y-107624000D01*
X147624000Y-109126000D01*
X146626000Y-109126000D01*
X146626000Y-107624000D01*
X145124000Y-107624000D01*
X145124000Y-109126000D01*
X144126000Y-109126000D01*
X144126000Y-107624000D01*
X142624000Y-107624000D01*
X142624000Y-109126000D01*
X141500500Y-109126000D01*
X141500500Y-106626000D01*
X142624000Y-106626000D01*
X144126000Y-106626000D01*
X145124000Y-106626000D01*
X146626000Y-106626000D01*
X147624000Y-106626000D01*
X149126000Y-106626000D01*
X150124000Y-106626000D01*
X151626000Y-106626000D01*
X152624000Y-106626000D01*
X153668783Y-106626000D01*
X153687620Y-106601453D01*
X153692766Y-106595183D01*
X153725137Y-106558272D01*
X153730683Y-106552351D01*
X154126000Y-106157033D01*
X154126000Y-105124000D01*
X152624000Y-105124000D01*
X152624000Y-106626000D01*
X151626000Y-106626000D01*
X151626000Y-105124000D01*
X150124000Y-105124000D01*
X150124000Y-106626000D01*
X149126000Y-106626000D01*
X149126000Y-105124000D01*
X147624000Y-105124000D01*
X147624000Y-106626000D01*
X146626000Y-106626000D01*
X146626000Y-105124000D01*
X145124000Y-105124000D01*
X145124000Y-106626000D01*
X144126000Y-106626000D01*
X144126000Y-105124000D01*
X142624000Y-105124000D01*
X142624000Y-106626000D01*
X141500500Y-106626000D01*
X141500500Y-104126000D01*
X142624000Y-104126000D01*
X144126000Y-104126000D01*
X145124000Y-104126000D01*
X146626000Y-104126000D01*
X147624000Y-104126000D01*
X149126000Y-104126000D01*
X150124000Y-104126000D01*
X151626000Y-104126000D01*
X152624000Y-104126000D01*
X154126000Y-104126000D01*
X155124000Y-104126000D01*
X156157034Y-104126000D01*
X156626000Y-103657033D01*
X156626000Y-102624000D01*
X155124000Y-102624000D01*
X155124000Y-104126000D01*
X154126000Y-104126000D01*
X154126000Y-102624000D01*
X152624000Y-102624000D01*
X152624000Y-104126000D01*
X151626000Y-104126000D01*
X151626000Y-102624000D01*
X150124000Y-102624000D01*
X150124000Y-104126000D01*
X149126000Y-104126000D01*
X149126000Y-102624000D01*
X147624000Y-102624000D01*
X147624000Y-104126000D01*
X146626000Y-104126000D01*
X146626000Y-102624000D01*
X145124000Y-102624000D01*
X145124000Y-104126000D01*
X144126000Y-104126000D01*
X144126000Y-102624000D01*
X142624000Y-102624000D01*
X142624000Y-104126000D01*
X141500500Y-104126000D01*
X141500500Y-101626000D01*
X142624000Y-101626000D01*
X144126000Y-101626000D01*
X145124000Y-101626000D01*
X146626000Y-101626000D01*
X147624000Y-101626000D01*
X149126000Y-101626000D01*
X150124000Y-101626000D01*
X151626000Y-101626000D01*
X152624000Y-101626000D01*
X154126000Y-101626000D01*
X155124000Y-101626000D01*
X156626000Y-101626000D01*
X157624000Y-101626000D01*
X158657033Y-101626000D01*
X159105921Y-101177111D01*
X159105342Y-101175440D01*
X159027545Y-100936007D01*
X159026131Y-100931347D01*
X159018138Y-100903005D01*
X159016911Y-100898300D01*
X159007758Y-100860183D01*
X159006713Y-100855423D01*
X159000964Y-100826523D01*
X159000108Y-100821728D01*
X158960723Y-100573059D01*
X158960056Y-100568236D01*
X158956596Y-100539003D01*
X158956119Y-100534165D01*
X158953041Y-100495086D01*
X158952754Y-100490221D01*
X158951596Y-100460769D01*
X158951500Y-100455897D01*
X158951500Y-100204103D01*
X158951596Y-100199231D01*
X158952754Y-100169779D01*
X158953041Y-100164914D01*
X158956119Y-100125835D01*
X158956300Y-100124000D01*
X157624000Y-100124000D01*
X157624000Y-101626000D01*
X156626000Y-101626000D01*
X156626000Y-100124000D01*
X155124000Y-100124000D01*
X155124000Y-101626000D01*
X154126000Y-101626000D01*
X154126000Y-100124000D01*
X152624000Y-100124000D01*
X152624000Y-101626000D01*
X151626000Y-101626000D01*
X151626000Y-100124000D01*
X150124000Y-100124000D01*
X150124000Y-101626000D01*
X149126000Y-101626000D01*
X149126000Y-100124000D01*
X147624000Y-100124000D01*
X147624000Y-101626000D01*
X146626000Y-101626000D01*
X146626000Y-100124000D01*
X145124000Y-100124000D01*
X145124000Y-101626000D01*
X144126000Y-101626000D01*
X144126000Y-100124000D01*
X142624000Y-100124000D01*
X142624000Y-101626000D01*
X141500500Y-101626000D01*
X141500500Y-99126000D01*
X142624000Y-99126000D01*
X144126000Y-99126000D01*
X145124000Y-99126000D01*
X146626000Y-99126000D01*
X147624000Y-99126000D01*
X149126000Y-99126000D01*
X150124000Y-99126000D01*
X151626000Y-99126000D01*
X151626000Y-98495628D01*
X152624000Y-98495628D01*
X152624000Y-99126000D01*
X154126000Y-99126000D01*
X155124000Y-99126000D01*
X156626000Y-99126000D01*
X156626000Y-97993025D01*
X157624000Y-97993025D01*
X157624000Y-99126000D01*
X158907019Y-99126000D01*
X158893985Y-99118475D01*
X158887093Y-99114189D01*
X158846252Y-99086900D01*
X158839654Y-99082172D01*
X158787800Y-99042381D01*
X158781529Y-99037234D01*
X158744619Y-99004864D01*
X158738698Y-98999319D01*
X158587437Y-98848059D01*
X158587369Y-98847988D01*
X157732313Y-97992932D01*
X157702900Y-98000814D01*
X157633050Y-97999151D01*
X157624000Y-97993025D01*
X156626000Y-97993025D01*
X156626000Y-97624000D01*
X155124000Y-97624000D01*
X155124000Y-99126000D01*
X154126000Y-99126000D01*
X154126000Y-98004539D01*
X153882368Y-98145199D01*
X153878825Y-98147168D01*
X153857194Y-98158731D01*
X153853585Y-98160585D01*
X153824290Y-98175033D01*
X153820622Y-98176768D01*
X153798249Y-98186906D01*
X153794522Y-98188522D01*
X153491766Y-98313927D01*
X153487991Y-98315419D01*
X153464989Y-98324076D01*
X153461158Y-98325446D01*
X153430225Y-98335943D01*
X153426366Y-98337183D01*
X153402906Y-98344298D01*
X153399012Y-98345410D01*
X153082523Y-98430213D01*
X153078587Y-98431199D01*
X153054695Y-98436770D01*
X153050731Y-98437626D01*
X153018695Y-98443999D01*
X153014705Y-98444725D01*
X152990477Y-98448726D01*
X152986459Y-98449322D01*
X152661580Y-98492094D01*
X152657547Y-98492558D01*
X152633117Y-98494964D01*
X152629072Y-98495296D01*
X152624000Y-98495628D01*
X151626000Y-98495628D01*
X151626000Y-98405701D01*
X151400988Y-98345410D01*
X151397094Y-98344298D01*
X151373634Y-98337183D01*
X151369775Y-98335943D01*
X151338842Y-98325446D01*
X151335011Y-98324076D01*
X151312009Y-98315419D01*
X151308234Y-98313927D01*
X151005478Y-98188522D01*
X151001751Y-98186906D01*
X150979378Y-98176768D01*
X150975710Y-98175033D01*
X150946415Y-98160585D01*
X150942806Y-98158731D01*
X150921175Y-98147168D01*
X150917632Y-98145199D01*
X150633861Y-97981365D01*
X150630380Y-97979278D01*
X150609531Y-97966313D01*
X150606118Y-97964113D01*
X150578958Y-97945964D01*
X150575629Y-97943660D01*
X150555680Y-97929366D01*
X150552416Y-97926946D01*
X150292457Y-97727471D01*
X150289281Y-97724950D01*
X150270308Y-97709380D01*
X150267212Y-97706753D01*
X150242654Y-97685216D01*
X150239648Y-97682491D01*
X150221731Y-97665710D01*
X150218815Y-97662888D01*
X150179927Y-97624000D01*
X150124000Y-97624000D01*
X150124000Y-99126000D01*
X149126000Y-99126000D01*
X149126000Y-97624000D01*
X147624000Y-97624000D01*
X147624000Y-99126000D01*
X146626000Y-99126000D01*
X146626000Y-97624000D01*
X145124000Y-97624000D01*
X145124000Y-99126000D01*
X144126000Y-99126000D01*
X144126000Y-97624000D01*
X142624000Y-97624000D01*
X142624000Y-99126000D01*
X141500500Y-99126000D01*
X141500500Y-96626000D01*
X142624000Y-96626000D01*
X144126000Y-96626000D01*
X145124000Y-96626000D01*
X145731030Y-96626000D01*
X145708976Y-96600178D01*
X145705888Y-96596415D01*
X145687651Y-96573282D01*
X145684711Y-96569399D01*
X145559848Y-96397542D01*
X145557062Y-96393544D01*
X145540694Y-96369046D01*
X145538069Y-96364946D01*
X145517587Y-96331521D01*
X145515127Y-96327324D01*
X145500736Y-96301628D01*
X145498440Y-96297332D01*
X145401997Y-96108051D01*
X145399871Y-96103666D01*
X145387529Y-96076892D01*
X145385575Y-96072426D01*
X145370577Y-96036210D01*
X145368805Y-96031680D01*
X145358620Y-96004069D01*
X145357026Y-95999473D01*
X145291389Y-95797465D01*
X145289975Y-95792805D01*
X145281982Y-95764463D01*
X145280755Y-95759758D01*
X145271602Y-95721641D01*
X145270557Y-95716880D01*
X145264808Y-95687979D01*
X145263952Y-95683185D01*
X145230723Y-95473383D01*
X145230056Y-95468564D01*
X145226595Y-95439331D01*
X145226118Y-95434485D01*
X145223041Y-95395406D01*
X145222754Y-95390545D01*
X145221596Y-95361093D01*
X145221500Y-95356221D01*
X145221500Y-95163389D01*
X146219500Y-95163389D01*
X146219500Y-95336610D01*
X146241162Y-95473383D01*
X146246598Y-95507701D01*
X146300127Y-95672445D01*
X146378768Y-95826788D01*
X146480586Y-95966928D01*
X146603072Y-96089414D01*
X146743212Y-96191232D01*
X146897555Y-96269873D01*
X147062299Y-96323402D01*
X147233389Y-96350500D01*
X147233390Y-96350500D01*
X147406610Y-96350500D01*
X147406611Y-96350500D01*
X147577701Y-96323402D01*
X147742445Y-96269873D01*
X147896788Y-96191232D01*
X148036928Y-96089414D01*
X148159414Y-95966928D01*
X148261232Y-95826788D01*
X148339873Y-95672445D01*
X148393402Y-95507701D01*
X148420500Y-95336611D01*
X148420500Y-95163389D01*
X148410854Y-95102486D01*
X150149500Y-95102486D01*
X150149500Y-95397513D01*
X150171714Y-95566239D01*
X150188007Y-95689993D01*
X150262212Y-95966930D01*
X150264361Y-95974951D01*
X150264364Y-95974961D01*
X150377254Y-96247500D01*
X150377258Y-96247510D01*
X150524761Y-96502993D01*
X150704352Y-96737040D01*
X150704358Y-96737047D01*
X150912952Y-96945641D01*
X150912959Y-96945647D01*
X151147006Y-97125238D01*
X151402489Y-97272741D01*
X151402490Y-97272741D01*
X151402493Y-97272743D01*
X151675048Y-97385639D01*
X151960007Y-97461993D01*
X152252494Y-97500500D01*
X152252501Y-97500500D01*
X152547499Y-97500500D01*
X152547506Y-97500500D01*
X152839993Y-97461993D01*
X153124952Y-97385639D01*
X153397507Y-97272743D01*
X153652994Y-97125238D01*
X153887042Y-96945646D01*
X154095646Y-96737042D01*
X154180852Y-96626000D01*
X155346194Y-96626000D01*
X155891030Y-96626000D01*
X155868976Y-96600178D01*
X155865888Y-96596415D01*
X155847651Y-96573282D01*
X155844711Y-96569399D01*
X155719848Y-96397542D01*
X155717062Y-96393544D01*
X155700694Y-96369046D01*
X155698069Y-96364946D01*
X155677587Y-96331521D01*
X155675127Y-96327324D01*
X155660736Y-96301628D01*
X155658440Y-96297332D01*
X155561997Y-96108051D01*
X155559871Y-96103666D01*
X155547529Y-96076892D01*
X155545575Y-96072426D01*
X155543845Y-96068249D01*
X155495410Y-96249012D01*
X155494298Y-96252906D01*
X155487183Y-96276366D01*
X155485943Y-96280225D01*
X155475446Y-96311158D01*
X155474076Y-96314989D01*
X155465419Y-96337991D01*
X155463927Y-96341766D01*
X155346194Y-96626000D01*
X154180852Y-96626000D01*
X154275238Y-96502994D01*
X154422743Y-96247507D01*
X154535639Y-95974952D01*
X154611993Y-95689993D01*
X154650500Y-95397506D01*
X154650500Y-95102494D01*
X154611993Y-94810007D01*
X154535639Y-94525048D01*
X154422743Y-94252493D01*
X154390041Y-94195852D01*
X154275238Y-93997006D01*
X154095647Y-93762959D01*
X154095641Y-93762952D01*
X153887047Y-93554358D01*
X153887040Y-93554352D01*
X153652993Y-93374761D01*
X153397510Y-93227258D01*
X153397500Y-93227254D01*
X153124961Y-93114364D01*
X153124954Y-93114362D01*
X153124952Y-93114361D01*
X152839993Y-93038007D01*
X152791113Y-93031571D01*
X152547513Y-92999500D01*
X152547506Y-92999500D01*
X152252494Y-92999500D01*
X152252486Y-92999500D01*
X151974085Y-93036153D01*
X151960007Y-93038007D01*
X151790190Y-93083509D01*
X151675048Y-93114361D01*
X151675038Y-93114364D01*
X151402499Y-93227254D01*
X151402489Y-93227258D01*
X151147006Y-93374761D01*
X150912959Y-93554352D01*
X150912952Y-93554358D01*
X150704358Y-93762952D01*
X150704352Y-93762959D01*
X150524761Y-93997006D01*
X150377258Y-94252489D01*
X150377254Y-94252499D01*
X150264364Y-94525038D01*
X150264361Y-94525048D01*
X150231015Y-94649500D01*
X150188008Y-94810004D01*
X150188006Y-94810015D01*
X150149500Y-95102486D01*
X148410854Y-95102486D01*
X148393402Y-94992299D01*
X148339873Y-94827555D01*
X148261232Y-94673212D01*
X148159414Y-94533072D01*
X148036928Y-94410586D01*
X147896788Y-94308768D01*
X147742445Y-94230127D01*
X147577701Y-94176598D01*
X147406611Y-94149500D01*
X147233389Y-94149500D01*
X147193728Y-94155781D01*
X147062302Y-94176597D01*
X146897552Y-94230128D01*
X146743211Y-94308768D01*
X146677498Y-94356512D01*
X146603072Y-94410586D01*
X146603070Y-94410588D01*
X146603069Y-94410588D01*
X146480588Y-94533069D01*
X146480588Y-94533070D01*
X146480586Y-94533072D01*
X146473966Y-94542184D01*
X146378768Y-94673211D01*
X146300128Y-94827552D01*
X146246597Y-94992302D01*
X146219500Y-95163389D01*
X145221500Y-95163389D01*
X145221500Y-95143779D01*
X145221596Y-95138907D01*
X145222182Y-95124000D01*
X145124000Y-95124000D01*
X145124000Y-96626000D01*
X144126000Y-96626000D01*
X144126000Y-95124000D01*
X142624000Y-95124000D01*
X142624000Y-96626000D01*
X141500500Y-96626000D01*
X141500500Y-94126000D01*
X142624000Y-94126000D01*
X144126000Y-94126000D01*
X145124000Y-94126000D01*
X145544004Y-94126000D01*
X145557062Y-94106456D01*
X145559848Y-94102458D01*
X145684711Y-93930601D01*
X145687651Y-93926718D01*
X145705888Y-93903585D01*
X145708976Y-93899822D01*
X145734434Y-93870015D01*
X145737669Y-93866375D01*
X145757662Y-93844747D01*
X145761036Y-93841238D01*
X145911238Y-93691036D01*
X145914747Y-93687662D01*
X145936375Y-93667669D01*
X145940015Y-93664434D01*
X145969822Y-93638976D01*
X145973585Y-93635888D01*
X145996718Y-93617651D01*
X146000601Y-93614711D01*
X146127490Y-93522519D01*
X146078999Y-93373277D01*
X146077585Y-93368617D01*
X146069592Y-93340275D01*
X146068365Y-93335570D01*
X146059212Y-93297453D01*
X146058167Y-93292693D01*
X146052418Y-93263793D01*
X146051562Y-93258998D01*
X146006155Y-92972307D01*
X146005488Y-92967484D01*
X146002028Y-92938251D01*
X146001551Y-92933413D01*
X145998473Y-92894334D01*
X145998186Y-92889469D01*
X145997028Y-92860017D01*
X145996932Y-92855145D01*
X145996932Y-92624000D01*
X145124000Y-92624000D01*
X145124000Y-94126000D01*
X144126000Y-94126000D01*
X144126000Y-92624000D01*
X142624000Y-92624000D01*
X142624000Y-94126000D01*
X141500500Y-94126000D01*
X141500500Y-92584465D01*
X146994932Y-92584465D01*
X146994932Y-92835534D01*
X147034207Y-93083509D01*
X147111794Y-93322295D01*
X147225778Y-93546001D01*
X147373344Y-93749110D01*
X147373348Y-93749115D01*
X147550884Y-93926651D01*
X147550889Y-93926655D01*
X147565475Y-93937252D01*
X147608143Y-93992580D01*
X147614124Y-94062193D01*
X147589837Y-94108224D01*
X147685058Y-94177406D01*
X147693366Y-94182497D01*
X147925753Y-94300904D01*
X147934755Y-94304632D01*
X148071631Y-94349106D01*
X148072054Y-94343198D01*
X148113926Y-94287265D01*
X148179390Y-94262848D01*
X148211600Y-94265502D01*
X148211675Y-94265030D01*
X148464466Y-94305068D01*
X148715534Y-94305068D01*
X148963509Y-94265792D01*
X149202295Y-94188205D01*
X149425998Y-94074223D01*
X149527166Y-94000719D01*
X149527167Y-94000719D01*
X148914025Y-93387578D01*
X148945258Y-93374641D01*
X149068097Y-93292563D01*
X149172563Y-93188097D01*
X149254641Y-93065258D01*
X149267578Y-93034025D01*
X149880719Y-93647167D01*
X149880719Y-93647166D01*
X149954223Y-93545998D01*
X150068205Y-93322295D01*
X150145792Y-93083509D01*
X150185068Y-92835534D01*
X150185068Y-92767003D01*
X155124000Y-92767003D01*
X155124000Y-93471892D01*
X155129278Y-93480380D01*
X155131365Y-93483861D01*
X155295199Y-93767632D01*
X155297168Y-93771175D01*
X155308731Y-93792806D01*
X155310585Y-93796415D01*
X155325033Y-93825710D01*
X155326768Y-93829378D01*
X155336906Y-93851751D01*
X155338522Y-93855478D01*
X155450575Y-94126000D01*
X155704004Y-94126000D01*
X155717062Y-94106456D01*
X155719848Y-94102458D01*
X155844711Y-93930601D01*
X155847651Y-93926718D01*
X155865888Y-93903585D01*
X155868976Y-93899822D01*
X155894434Y-93870015D01*
X155897669Y-93866375D01*
X155917662Y-93844747D01*
X155921036Y-93841238D01*
X156071238Y-93691036D01*
X156074747Y-93687662D01*
X156096375Y-93667669D01*
X156100015Y-93664434D01*
X156129822Y-93638976D01*
X156133585Y-93635888D01*
X156140118Y-93630737D01*
X155259643Y-92750263D01*
X155202735Y-92759277D01*
X155197911Y-92759944D01*
X155168678Y-92763404D01*
X155163840Y-92763881D01*
X155124761Y-92766959D01*
X155124000Y-92767003D01*
X150185068Y-92767003D01*
X150185068Y-92584465D01*
X150145792Y-92336490D01*
X150068205Y-92097704D01*
X149954221Y-91873998D01*
X149880720Y-91772832D01*
X149880719Y-91772831D01*
X149267577Y-92385973D01*
X149254641Y-92354742D01*
X149172563Y-92231903D01*
X149068097Y-92127437D01*
X148945258Y-92045359D01*
X148914024Y-92032421D01*
X149527167Y-91419279D01*
X149527166Y-91419278D01*
X149426002Y-91345778D01*
X149202295Y-91231794D01*
X148963509Y-91154207D01*
X148963510Y-91154207D01*
X148715534Y-91114932D01*
X148464466Y-91114932D01*
X148216490Y-91154207D01*
X147977704Y-91231794D01*
X147754003Y-91345775D01*
X147652832Y-91419279D01*
X148265975Y-92032421D01*
X148234742Y-92045359D01*
X148111903Y-92127437D01*
X148007437Y-92231903D01*
X147925359Y-92354742D01*
X147912421Y-92385975D01*
X147299279Y-91772832D01*
X147225775Y-91874003D01*
X147111794Y-92097704D01*
X147034207Y-92336490D01*
X146994932Y-92584465D01*
X141500500Y-92584465D01*
X141500500Y-91626000D01*
X142624000Y-91626000D01*
X144126000Y-91626000D01*
X145124000Y-91626000D01*
X146232057Y-91626000D01*
X146345449Y-91403458D01*
X146347744Y-91399165D01*
X146362134Y-91373469D01*
X146364597Y-91369267D01*
X146385078Y-91335845D01*
X146387700Y-91331748D01*
X146404065Y-91307254D01*
X146406851Y-91303256D01*
X146622198Y-91006852D01*
X146626000Y-91003473D01*
X146626000Y-90619307D01*
X150124000Y-90619307D01*
X150293151Y-90742202D01*
X150328455Y-90781931D01*
X150396522Y-90903474D01*
X150518069Y-90971544D01*
X150557797Y-91006848D01*
X150773146Y-91303253D01*
X150775930Y-91307247D01*
X150792297Y-91331742D01*
X150794923Y-91335845D01*
X150815404Y-91369268D01*
X150817866Y-91373467D01*
X150832257Y-91399164D01*
X150834552Y-91403458D01*
X150947942Y-91626000D01*
X151626000Y-91626000D01*
X151626000Y-90124000D01*
X150124000Y-90124000D01*
X150124000Y-90619307D01*
X146626000Y-90619307D01*
X146626000Y-90298431D01*
X147624000Y-90298431D01*
X147646081Y-90290286D01*
X147650678Y-90288692D01*
X147926723Y-90198999D01*
X147931383Y-90197585D01*
X147959725Y-90189592D01*
X147964430Y-90188365D01*
X148002547Y-90179212D01*
X148007307Y-90178167D01*
X148036207Y-90172418D01*
X148041002Y-90171562D01*
X148327693Y-90126155D01*
X148332516Y-90125488D01*
X148345088Y-90124000D01*
X148834912Y-90124000D01*
X148847484Y-90125488D01*
X148852307Y-90126155D01*
X149126000Y-90169503D01*
X149126000Y-90124000D01*
X148834912Y-90124000D01*
X148345088Y-90124000D01*
X147624000Y-90124000D01*
X147624000Y-90298431D01*
X146626000Y-90298431D01*
X146626000Y-90124000D01*
X145124000Y-90124000D01*
X145124000Y-91626000D01*
X144126000Y-91626000D01*
X144126000Y-90124000D01*
X142624000Y-90124000D01*
X142624000Y-91626000D01*
X141500500Y-91626000D01*
X141500500Y-89126000D01*
X142624000Y-89126000D01*
X144126000Y-89126000D01*
X145124000Y-89126000D01*
X146626000Y-89126000D01*
X147624000Y-89126000D01*
X149126000Y-89126000D01*
X150124000Y-89126000D01*
X151626000Y-89126000D01*
X151626000Y-88991718D01*
X152624000Y-88991718D01*
X152690803Y-88860610D01*
X152693098Y-88856317D01*
X152707488Y-88830621D01*
X152709950Y-88826421D01*
X152730431Y-88792998D01*
X152733055Y-88788897D01*
X152749422Y-88764401D01*
X152752208Y-88760405D01*
X152923337Y-88524866D01*
X152926279Y-88520979D01*
X152944537Y-88497821D01*
X152947628Y-88494055D01*
X152973089Y-88464248D01*
X152976323Y-88460609D01*
X152996297Y-88439004D01*
X152999667Y-88435500D01*
X153205500Y-88229667D01*
X153209004Y-88226297D01*
X153230609Y-88206323D01*
X153234248Y-88203089D01*
X153264055Y-88177628D01*
X153267821Y-88174537D01*
X153290979Y-88156279D01*
X153294866Y-88153337D01*
X153530405Y-87982208D01*
X153534401Y-87979422D01*
X153558897Y-87963055D01*
X153562998Y-87960431D01*
X153596421Y-87939950D01*
X153600621Y-87937488D01*
X153626317Y-87923098D01*
X153630610Y-87920803D01*
X153890014Y-87788630D01*
X153894397Y-87786505D01*
X153921172Y-87774162D01*
X153925640Y-87772207D01*
X153961856Y-87757209D01*
X153966387Y-87755436D01*
X153993996Y-87745252D01*
X153998590Y-87743659D01*
X154126000Y-87702260D01*
X154126000Y-87624000D01*
X155475970Y-87624000D01*
X155490252Y-87626262D01*
X155495040Y-87627117D01*
X155523903Y-87632857D01*
X155528654Y-87633899D01*
X155566772Y-87643047D01*
X155571491Y-87644278D01*
X155599870Y-87652281D01*
X155604533Y-87653695D01*
X155881410Y-87743659D01*
X155886004Y-87745252D01*
X155913613Y-87755436D01*
X155918144Y-87757209D01*
X155954360Y-87772207D01*
X155958828Y-87774162D01*
X155985603Y-87786505D01*
X155989986Y-87788630D01*
X156249390Y-87920803D01*
X156253683Y-87923098D01*
X156279379Y-87937488D01*
X156283579Y-87939950D01*
X156317002Y-87960431D01*
X156321103Y-87963055D01*
X156345599Y-87979422D01*
X156349595Y-87982208D01*
X156585134Y-88153337D01*
X156589021Y-88156279D01*
X156612179Y-88174537D01*
X156615945Y-88177628D01*
X156626000Y-88186216D01*
X156626000Y-87624000D01*
X155475970Y-87624000D01*
X154126000Y-87624000D01*
X152624000Y-87624000D01*
X152624000Y-88991718D01*
X151626000Y-88991718D01*
X151626000Y-87624000D01*
X150124000Y-87624000D01*
X150124000Y-89126000D01*
X149126000Y-89126000D01*
X149126000Y-87624000D01*
X147624000Y-87624000D01*
X147624000Y-89126000D01*
X146626000Y-89126000D01*
X146626000Y-87624000D01*
X145124000Y-87624000D01*
X145124000Y-89126000D01*
X144126000Y-89126000D01*
X144126000Y-87624000D01*
X142624000Y-87624000D01*
X142624000Y-89126000D01*
X141500500Y-89126000D01*
X141500500Y-86626000D01*
X142624000Y-86626000D01*
X144126000Y-86626000D01*
X145124000Y-86626000D01*
X146626000Y-86626000D01*
X147624000Y-86626000D01*
X149126000Y-86626000D01*
X150124000Y-86626000D01*
X151626000Y-86626000D01*
X152624000Y-86626000D01*
X154126000Y-86626000D01*
X155124000Y-86626000D01*
X156626000Y-86626000D01*
X157624000Y-86626000D01*
X159125781Y-86626000D01*
X159126000Y-86625569D01*
X159126000Y-86213831D01*
X165124000Y-86213831D01*
X165223974Y-86351435D01*
X165226760Y-86355432D01*
X165243126Y-86379927D01*
X165245750Y-86384027D01*
X165266231Y-86417450D01*
X165268693Y-86421650D01*
X165283083Y-86447346D01*
X165285378Y-86451639D01*
X165374219Y-86626000D01*
X166626000Y-86626000D01*
X167624000Y-86626000D01*
X169126000Y-86626000D01*
X169126000Y-85124000D01*
X167624000Y-85124000D01*
X167624000Y-86626000D01*
X166626000Y-86626000D01*
X166626000Y-85124000D01*
X165124000Y-85124000D01*
X165124000Y-86213831D01*
X159126000Y-86213831D01*
X159126000Y-85567942D01*
X160124000Y-85567942D01*
X160295981Y-85480314D01*
X160300364Y-85478189D01*
X160327139Y-85465846D01*
X160331608Y-85463891D01*
X160367825Y-85448893D01*
X160372353Y-85447121D01*
X160399963Y-85436936D01*
X160404560Y-85435342D01*
X160643993Y-85357545D01*
X160648653Y-85356131D01*
X160676995Y-85348138D01*
X160681700Y-85346911D01*
X160719817Y-85337758D01*
X160724577Y-85336713D01*
X160753477Y-85330964D01*
X160758272Y-85330108D01*
X161006941Y-85290723D01*
X161011764Y-85290056D01*
X161040997Y-85286596D01*
X161045835Y-85286119D01*
X161084914Y-85283041D01*
X161089779Y-85282754D01*
X161119231Y-85281596D01*
X161124103Y-85281500D01*
X161626000Y-85281500D01*
X162624000Y-85281500D01*
X163375897Y-85281500D01*
X163380769Y-85281596D01*
X163410221Y-85282754D01*
X163415086Y-85283041D01*
X163454165Y-85286119D01*
X163459003Y-85286596D01*
X163488236Y-85290056D01*
X163493059Y-85290723D01*
X163741728Y-85330108D01*
X163746523Y-85330964D01*
X163775423Y-85336713D01*
X163780183Y-85337758D01*
X163818300Y-85346911D01*
X163823005Y-85348138D01*
X163851347Y-85356131D01*
X163856007Y-85357545D01*
X164095440Y-85435342D01*
X164100037Y-85436936D01*
X164126000Y-85446513D01*
X164126000Y-85124000D01*
X162624000Y-85124000D01*
X162624000Y-85281500D01*
X161626000Y-85281500D01*
X161626000Y-85124000D01*
X160124000Y-85124000D01*
X160124000Y-85567942D01*
X159126000Y-85567942D01*
X159126000Y-85124000D01*
X157624000Y-85124000D01*
X157624000Y-86626000D01*
X156626000Y-86626000D01*
X156626000Y-85124000D01*
X155124000Y-85124000D01*
X155124000Y-86626000D01*
X154126000Y-86626000D01*
X154126000Y-85124000D01*
X152624000Y-85124000D01*
X152624000Y-86626000D01*
X151626000Y-86626000D01*
X151626000Y-85124000D01*
X150124000Y-85124000D01*
X150124000Y-86626000D01*
X149126000Y-86626000D01*
X149126000Y-85124000D01*
X147624000Y-85124000D01*
X147624000Y-86626000D01*
X146626000Y-86626000D01*
X146626000Y-85124000D01*
X145124000Y-85124000D01*
X145124000Y-86626000D01*
X144126000Y-86626000D01*
X144126000Y-85124000D01*
X142624000Y-85124000D01*
X142624000Y-86626000D01*
X141500500Y-86626000D01*
X141500500Y-84126000D01*
X142624000Y-84126000D01*
X144126000Y-84126000D01*
X145124000Y-84126000D01*
X146626000Y-84126000D01*
X147624000Y-84126000D01*
X149126000Y-84126000D01*
X150124000Y-84126000D01*
X151626000Y-84126000D01*
X152624000Y-84126000D01*
X154126000Y-84126000D01*
X155124000Y-84126000D01*
X156626000Y-84126000D01*
X157624000Y-84126000D01*
X159126000Y-84126000D01*
X160124000Y-84126000D01*
X161626000Y-84126000D01*
X162624000Y-84126000D01*
X164126000Y-84126000D01*
X165124000Y-84126000D01*
X166626000Y-84126000D01*
X167624000Y-84126000D01*
X169126000Y-84126000D01*
X169126000Y-82624000D01*
X167624000Y-82624000D01*
X167624000Y-84126000D01*
X166626000Y-84126000D01*
X166626000Y-82624000D01*
X165124000Y-82624000D01*
X165124000Y-84126000D01*
X164126000Y-84126000D01*
X164126000Y-82624000D01*
X162624000Y-82624000D01*
X162624000Y-84126000D01*
X161626000Y-84126000D01*
X161626000Y-82624000D01*
X160124000Y-82624000D01*
X160124000Y-84126000D01*
X159126000Y-84126000D01*
X159126000Y-82624000D01*
X157624000Y-82624000D01*
X157624000Y-84126000D01*
X156626000Y-84126000D01*
X156626000Y-82624000D01*
X155124000Y-82624000D01*
X155124000Y-84126000D01*
X154126000Y-84126000D01*
X154126000Y-82624000D01*
X152624000Y-82624000D01*
X152624000Y-84126000D01*
X151626000Y-84126000D01*
X151626000Y-82624000D01*
X150124000Y-82624000D01*
X150124000Y-84126000D01*
X149126000Y-84126000D01*
X149126000Y-82624000D01*
X147624000Y-82624000D01*
X147624000Y-84126000D01*
X146626000Y-84126000D01*
X146626000Y-82624000D01*
X145124000Y-82624000D01*
X145124000Y-84126000D01*
X144126000Y-84126000D01*
X144126000Y-82624000D01*
X142624000Y-82624000D01*
X142624000Y-84126000D01*
X141500500Y-84126000D01*
X141500500Y-81626000D01*
X142624000Y-81626000D01*
X144126000Y-81626000D01*
X145124000Y-81626000D01*
X146626000Y-81626000D01*
X147624000Y-81626000D01*
X149126000Y-81626000D01*
X150124000Y-81626000D01*
X151626000Y-81626000D01*
X152624000Y-81626000D01*
X154126000Y-81626000D01*
X155124000Y-81626000D01*
X156626000Y-81626000D01*
X157624000Y-81626000D01*
X159126000Y-81626000D01*
X160124000Y-81626000D01*
X161626000Y-81626000D01*
X162624000Y-81626000D01*
X164126000Y-81626000D01*
X165124000Y-81626000D01*
X166626000Y-81626000D01*
X167624000Y-81626000D01*
X169126000Y-81626000D01*
X169126000Y-80124000D01*
X167624000Y-80124000D01*
X167624000Y-81626000D01*
X166626000Y-81626000D01*
X166626000Y-80124000D01*
X165124000Y-80124000D01*
X165124000Y-81626000D01*
X164126000Y-81626000D01*
X164126000Y-80124000D01*
X162624000Y-80124000D01*
X162624000Y-81626000D01*
X161626000Y-81626000D01*
X161626000Y-80124000D01*
X160124000Y-80124000D01*
X160124000Y-81626000D01*
X159126000Y-81626000D01*
X159126000Y-80124000D01*
X157624000Y-80124000D01*
X157624000Y-81626000D01*
X156626000Y-81626000D01*
X156626000Y-80124000D01*
X155124000Y-80124000D01*
X155124000Y-81626000D01*
X154126000Y-81626000D01*
X154126000Y-80124000D01*
X152624000Y-80124000D01*
X152624000Y-81626000D01*
X151626000Y-81626000D01*
X151626000Y-80124000D01*
X150124000Y-80124000D01*
X150124000Y-81626000D01*
X149126000Y-81626000D01*
X149126000Y-80124000D01*
X147624000Y-80124000D01*
X147624000Y-81626000D01*
X146626000Y-81626000D01*
X146626000Y-80124000D01*
X145124000Y-80124000D01*
X145124000Y-81626000D01*
X144126000Y-81626000D01*
X144126000Y-80124000D01*
X142624000Y-80124000D01*
X142624000Y-81626000D01*
X141500500Y-81626000D01*
X141500500Y-79126000D01*
X142624000Y-79126000D01*
X144126000Y-79126000D01*
X145124000Y-79126000D01*
X146626000Y-79126000D01*
X146626000Y-78276508D01*
X147624000Y-78276508D01*
X147624000Y-79126000D01*
X149126000Y-79126000D01*
X150124000Y-79126000D01*
X150977754Y-79126000D01*
X150975710Y-79125033D01*
X150946415Y-79110585D01*
X150942806Y-79108731D01*
X150921175Y-79097168D01*
X150917632Y-79095199D01*
X150633861Y-78931365D01*
X150630380Y-78929278D01*
X150609531Y-78916313D01*
X150606118Y-78914113D01*
X150578958Y-78895964D01*
X150575629Y-78893660D01*
X150555680Y-78879366D01*
X150552416Y-78876946D01*
X150292457Y-78677471D01*
X150289281Y-78674950D01*
X150270308Y-78659380D01*
X150267212Y-78656753D01*
X150242654Y-78635216D01*
X150239648Y-78632491D01*
X150221731Y-78615710D01*
X150218815Y-78612888D01*
X150124000Y-78518073D01*
X150124000Y-79126000D01*
X149126000Y-79126000D01*
X149126000Y-77624000D01*
X148863726Y-77624000D01*
X148728762Y-77758964D01*
X148725253Y-77762338D01*
X148703625Y-77782331D01*
X148699985Y-77785566D01*
X148670178Y-77811024D01*
X148666415Y-77814112D01*
X148643282Y-77832349D01*
X148639399Y-77835289D01*
X148467542Y-77960152D01*
X148463544Y-77962938D01*
X148439046Y-77979306D01*
X148434946Y-77981931D01*
X148401521Y-78002413D01*
X148397324Y-78004873D01*
X148371628Y-78019264D01*
X148367332Y-78021560D01*
X148178051Y-78118003D01*
X148173666Y-78120129D01*
X148146892Y-78132471D01*
X148142426Y-78134425D01*
X148106210Y-78149423D01*
X148101680Y-78151195D01*
X148074069Y-78161380D01*
X148069473Y-78162974D01*
X147867465Y-78228611D01*
X147862805Y-78230025D01*
X147834463Y-78238018D01*
X147829758Y-78239245D01*
X147791641Y-78248398D01*
X147786880Y-78249443D01*
X147757979Y-78255192D01*
X147753185Y-78256048D01*
X147624000Y-78276508D01*
X146626000Y-78276508D01*
X146626000Y-78180998D01*
X146570527Y-78162974D01*
X146565931Y-78161380D01*
X146538320Y-78151195D01*
X146533790Y-78149423D01*
X146497574Y-78134425D01*
X146493108Y-78132471D01*
X146466334Y-78120129D01*
X146461949Y-78118003D01*
X146272668Y-78021560D01*
X146268372Y-78019264D01*
X146242676Y-78004873D01*
X146238479Y-78002413D01*
X146205054Y-77981931D01*
X146200954Y-77979306D01*
X146176456Y-77962938D01*
X146172458Y-77960152D01*
X146000601Y-77835289D01*
X145996718Y-77832349D01*
X145973585Y-77814112D01*
X145969822Y-77811024D01*
X145940015Y-77785566D01*
X145936375Y-77782331D01*
X145914747Y-77762338D01*
X145911238Y-77758964D01*
X145776274Y-77624000D01*
X145124000Y-77624000D01*
X145124000Y-79126000D01*
X144126000Y-79126000D01*
X144126000Y-77624000D01*
X142624000Y-77624000D01*
X142624000Y-79126000D01*
X141500500Y-79126000D01*
X141500500Y-76626000D01*
X142624000Y-76626000D01*
X144126000Y-76626000D01*
X145124000Y-76626000D01*
X145262814Y-76626000D01*
X145230723Y-76423383D01*
X145230056Y-76418564D01*
X145226595Y-76389331D01*
X145226118Y-76384485D01*
X145223041Y-76345406D01*
X145222754Y-76340545D01*
X145221596Y-76311093D01*
X145221500Y-76306221D01*
X145221500Y-76113389D01*
X146219500Y-76113389D01*
X146219500Y-76286610D01*
X146241162Y-76423383D01*
X146246598Y-76457701D01*
X146300127Y-76622445D01*
X146378768Y-76776788D01*
X146480586Y-76916928D01*
X146603072Y-77039414D01*
X146743212Y-77141232D01*
X146897555Y-77219873D01*
X147062299Y-77273402D01*
X147233389Y-77300500D01*
X147233390Y-77300500D01*
X147406610Y-77300500D01*
X147406611Y-77300500D01*
X147577701Y-77273402D01*
X147742445Y-77219873D01*
X147896788Y-77141232D01*
X148036928Y-77039414D01*
X148159414Y-76916928D01*
X148261232Y-76776788D01*
X148339873Y-76622445D01*
X148393402Y-76457701D01*
X148420500Y-76286611D01*
X148420500Y-76113389D01*
X148410854Y-76052486D01*
X150149500Y-76052486D01*
X150149500Y-76347513D01*
X150181571Y-76591113D01*
X150188007Y-76639993D01*
X150262212Y-76916930D01*
X150264361Y-76924951D01*
X150264364Y-76924961D01*
X150377254Y-77197500D01*
X150377258Y-77197510D01*
X150524761Y-77452993D01*
X150704352Y-77687040D01*
X150704358Y-77687047D01*
X150912952Y-77895641D01*
X150912959Y-77895647D01*
X151147006Y-78075238D01*
X151402489Y-78222741D01*
X151402490Y-78222741D01*
X151402493Y-78222743D01*
X151675048Y-78335639D01*
X151960007Y-78411993D01*
X152252494Y-78450500D01*
X152252501Y-78450500D01*
X152547499Y-78450500D01*
X152547506Y-78450500D01*
X152839993Y-78411993D01*
X153124952Y-78335639D01*
X153397507Y-78222743D01*
X153652994Y-78075238D01*
X153779577Y-77978107D01*
X155124000Y-77978107D01*
X155124000Y-79126000D01*
X156626000Y-79126000D01*
X156626000Y-78297042D01*
X157624000Y-78297042D01*
X157624000Y-79126000D01*
X159126000Y-79126000D01*
X160124000Y-79126000D01*
X161626000Y-79126000D01*
X162624000Y-79126000D01*
X164126000Y-79126000D01*
X165124000Y-79126000D01*
X166626000Y-79126000D01*
X167624000Y-79126000D01*
X169126000Y-79126000D01*
X169126000Y-77624000D01*
X167624000Y-77624000D01*
X167624000Y-79126000D01*
X166626000Y-79126000D01*
X166626000Y-77624000D01*
X165124000Y-77624000D01*
X165124000Y-79126000D01*
X164126000Y-79126000D01*
X164126000Y-77624000D01*
X162624000Y-77624000D01*
X162624000Y-79126000D01*
X161626000Y-79126000D01*
X161626000Y-77624000D01*
X160124000Y-77624000D01*
X160124000Y-79126000D01*
X159126000Y-79126000D01*
X159126000Y-77624000D01*
X159023726Y-77624000D01*
X158888762Y-77758964D01*
X158885253Y-77762338D01*
X158863625Y-77782331D01*
X158859985Y-77785566D01*
X158830178Y-77811024D01*
X158826415Y-77814112D01*
X158803282Y-77832349D01*
X158799399Y-77835289D01*
X158627542Y-77960152D01*
X158623544Y-77962938D01*
X158599046Y-77979306D01*
X158594946Y-77981931D01*
X158561521Y-78002413D01*
X158557324Y-78004873D01*
X158531628Y-78019264D01*
X158527332Y-78021560D01*
X158338051Y-78118003D01*
X158333666Y-78120129D01*
X158306892Y-78132471D01*
X158302426Y-78134425D01*
X158266210Y-78149423D01*
X158261680Y-78151195D01*
X158234069Y-78161380D01*
X158229473Y-78162974D01*
X158027465Y-78228611D01*
X158022805Y-78230025D01*
X157994463Y-78238018D01*
X157989758Y-78239245D01*
X157951641Y-78248398D01*
X157946880Y-78249443D01*
X157917979Y-78255192D01*
X157913185Y-78256048D01*
X157703383Y-78289277D01*
X157698564Y-78289944D01*
X157669331Y-78293405D01*
X157664485Y-78293882D01*
X157625406Y-78296959D01*
X157624000Y-78297042D01*
X156626000Y-78297042D01*
X156626000Y-78119967D01*
X156621949Y-78118003D01*
X156432668Y-78021560D01*
X156428372Y-78019264D01*
X156402676Y-78004873D01*
X156398479Y-78002413D01*
X156365054Y-77981931D01*
X156360954Y-77979306D01*
X156336456Y-77962938D01*
X156332458Y-77960152D01*
X156160601Y-77835289D01*
X156156718Y-77832349D01*
X156133585Y-77814112D01*
X156129822Y-77811024D01*
X156100015Y-77785566D01*
X156096375Y-77782331D01*
X156074747Y-77762338D01*
X156071238Y-77758964D01*
X155936274Y-77624000D01*
X155325170Y-77624000D01*
X155325033Y-77624290D01*
X155310585Y-77653585D01*
X155308731Y-77657194D01*
X155297168Y-77678825D01*
X155295199Y-77682368D01*
X155131365Y-77966139D01*
X155129278Y-77969620D01*
X155124000Y-77978107D01*
X153779577Y-77978107D01*
X153887042Y-77895646D01*
X154095646Y-77687042D01*
X154275238Y-77452994D01*
X154422743Y-77197507D01*
X154535639Y-76924952D01*
X154611993Y-76639993D01*
X154650500Y-76347506D01*
X154650500Y-76113389D01*
X156379500Y-76113389D01*
X156379500Y-76286610D01*
X156401162Y-76423383D01*
X156406598Y-76457701D01*
X156460127Y-76622445D01*
X156538768Y-76776788D01*
X156640586Y-76916928D01*
X156763072Y-77039414D01*
X156903212Y-77141232D01*
X157057555Y-77219873D01*
X157222299Y-77273402D01*
X157393389Y-77300500D01*
X157393390Y-77300500D01*
X157566610Y-77300500D01*
X157566611Y-77300500D01*
X157737701Y-77273402D01*
X157902445Y-77219873D01*
X158056788Y-77141232D01*
X158196928Y-77039414D01*
X158319414Y-76916928D01*
X158421232Y-76776788D01*
X158498062Y-76626000D01*
X160124000Y-76626000D01*
X161626000Y-76626000D01*
X162624000Y-76626000D01*
X164126000Y-76626000D01*
X165124000Y-76626000D01*
X166626000Y-76626000D01*
X167624000Y-76626000D01*
X169126000Y-76626000D01*
X169126000Y-75636619D01*
X168613381Y-75124000D01*
X167624000Y-75124000D01*
X167624000Y-76626000D01*
X166626000Y-76626000D01*
X166626000Y-75124000D01*
X165124000Y-75124000D01*
X165124000Y-76626000D01*
X164126000Y-76626000D01*
X164126000Y-75124000D01*
X162624000Y-75124000D01*
X162624000Y-76626000D01*
X161626000Y-76626000D01*
X161626000Y-75124000D01*
X160124000Y-75124000D01*
X160124000Y-76626000D01*
X158498062Y-76626000D01*
X158499873Y-76622445D01*
X158553402Y-76457701D01*
X158580500Y-76286611D01*
X158580500Y-76113389D01*
X158553402Y-75942299D01*
X158499873Y-75777555D01*
X158421232Y-75623212D01*
X158319414Y-75483072D01*
X158196928Y-75360586D01*
X158056788Y-75258768D01*
X157902445Y-75180127D01*
X157737701Y-75126598D01*
X157737699Y-75126597D01*
X157737698Y-75126597D01*
X157606271Y-75105781D01*
X157566611Y-75099500D01*
X157393389Y-75099500D01*
X157353728Y-75105781D01*
X157222302Y-75126597D01*
X157057552Y-75180128D01*
X156903211Y-75258768D01*
X156837498Y-75306512D01*
X156763072Y-75360586D01*
X156763070Y-75360588D01*
X156763069Y-75360588D01*
X156640588Y-75483069D01*
X156640588Y-75483070D01*
X156640586Y-75483072D01*
X156602751Y-75535147D01*
X156538768Y-75623211D01*
X156460128Y-75777552D01*
X156406597Y-75942302D01*
X156379500Y-76113389D01*
X154650500Y-76113389D01*
X154650500Y-76052494D01*
X154611993Y-75760007D01*
X154535639Y-75475048D01*
X154422743Y-75202493D01*
X154391496Y-75148372D01*
X154275238Y-74947006D01*
X154095647Y-74712959D01*
X154095641Y-74712952D01*
X153887047Y-74504358D01*
X153887040Y-74504352D01*
X153652993Y-74324761D01*
X153397510Y-74177258D01*
X153397500Y-74177254D01*
X153124961Y-74064364D01*
X153124954Y-74064362D01*
X153124952Y-74064361D01*
X152839993Y-73988007D01*
X152791113Y-73981571D01*
X152547513Y-73949500D01*
X152547506Y-73949500D01*
X152252494Y-73949500D01*
X152252486Y-73949500D01*
X151974085Y-73986153D01*
X151960007Y-73988007D01*
X151790190Y-74033509D01*
X151675048Y-74064361D01*
X151675038Y-74064364D01*
X151402499Y-74177254D01*
X151402489Y-74177258D01*
X151147006Y-74324761D01*
X150912959Y-74504352D01*
X150912952Y-74504358D01*
X150704358Y-74712952D01*
X150704352Y-74712959D01*
X150524761Y-74947006D01*
X150377258Y-75202489D01*
X150377254Y-75202499D01*
X150264364Y-75475038D01*
X150264361Y-75475048D01*
X150221069Y-75636619D01*
X150188008Y-75760004D01*
X150188006Y-75760015D01*
X150149500Y-76052486D01*
X148410854Y-76052486D01*
X148393402Y-75942299D01*
X148339873Y-75777555D01*
X148261232Y-75623212D01*
X148159414Y-75483072D01*
X148036928Y-75360586D01*
X147896788Y-75258768D01*
X147742445Y-75180127D01*
X147577701Y-75126598D01*
X147406611Y-75099500D01*
X147233389Y-75099500D01*
X147193728Y-75105781D01*
X147062302Y-75126597D01*
X146897552Y-75180128D01*
X146743211Y-75258768D01*
X146677498Y-75306512D01*
X146603072Y-75360586D01*
X146603070Y-75360588D01*
X146603069Y-75360588D01*
X146480588Y-75483069D01*
X146480588Y-75483070D01*
X146480586Y-75483072D01*
X146442751Y-75535147D01*
X146378768Y-75623211D01*
X146300128Y-75777552D01*
X146246597Y-75942302D01*
X146219500Y-76113389D01*
X145221500Y-76113389D01*
X145221500Y-76093779D01*
X145221596Y-76088907D01*
X145222754Y-76059455D01*
X145223041Y-76054594D01*
X145226118Y-76015515D01*
X145226595Y-76010669D01*
X145230056Y-75981436D01*
X145230723Y-75976617D01*
X145263952Y-75766815D01*
X145264808Y-75762021D01*
X145270557Y-75733120D01*
X145271602Y-75728359D01*
X145280755Y-75690242D01*
X145281982Y-75685537D01*
X145289975Y-75657195D01*
X145291389Y-75652535D01*
X145357026Y-75450527D01*
X145358620Y-75445931D01*
X145368805Y-75418320D01*
X145370577Y-75413790D01*
X145385575Y-75377574D01*
X145387529Y-75373108D01*
X145399871Y-75346334D01*
X145401997Y-75341949D01*
X145498440Y-75152668D01*
X145500736Y-75148372D01*
X145514385Y-75124000D01*
X145124000Y-75124000D01*
X145124000Y-76626000D01*
X144126000Y-76626000D01*
X144126000Y-75124000D01*
X142624000Y-75124000D01*
X142624000Y-76626000D01*
X141500500Y-76626000D01*
X141500500Y-74126000D01*
X142624000Y-74126000D01*
X144126000Y-74126000D01*
X145124000Y-74126000D01*
X146038417Y-74126000D01*
X146006155Y-73922307D01*
X146005488Y-73917484D01*
X146002028Y-73888251D01*
X146001551Y-73883413D01*
X145998473Y-73844334D01*
X145998186Y-73839469D01*
X145997028Y-73810017D01*
X145996932Y-73805145D01*
X145996932Y-73534465D01*
X146994932Y-73534465D01*
X146994932Y-73785534D01*
X147034207Y-74033509D01*
X147111794Y-74272295D01*
X147225778Y-74496001D01*
X147373344Y-74699110D01*
X147373348Y-74699115D01*
X147550884Y-74876651D01*
X147550889Y-74876655D01*
X147565475Y-74887252D01*
X147608143Y-74942580D01*
X147614124Y-75012193D01*
X147589837Y-75058224D01*
X147685058Y-75127406D01*
X147693366Y-75132497D01*
X147925753Y-75250904D01*
X147934755Y-75254632D01*
X148071631Y-75299106D01*
X148072054Y-75293198D01*
X148113926Y-75237265D01*
X148179390Y-75212848D01*
X148211600Y-75215502D01*
X148211675Y-75215030D01*
X148464466Y-75255068D01*
X148715534Y-75255068D01*
X148963509Y-75215792D01*
X149202295Y-75138205D01*
X149425998Y-75024223D01*
X149527166Y-74950719D01*
X149527167Y-74950719D01*
X148914025Y-74337578D01*
X148945258Y-74324641D01*
X149068097Y-74242563D01*
X149172563Y-74138097D01*
X149254641Y-74015258D01*
X149267578Y-73984025D01*
X149880719Y-74597167D01*
X149880719Y-74597166D01*
X149954223Y-74495998D01*
X150068205Y-74272295D01*
X150145792Y-74033509D01*
X150185068Y-73785534D01*
X150185068Y-73717003D01*
X155124000Y-73717003D01*
X155124000Y-74126000D01*
X156626000Y-74126000D01*
X156626000Y-74102957D01*
X157624000Y-74102957D01*
X157625406Y-74103041D01*
X157664485Y-74106118D01*
X157669331Y-74106595D01*
X157698564Y-74110056D01*
X157703383Y-74110723D01*
X157799839Y-74126000D01*
X159126000Y-74126000D01*
X160124000Y-74126000D01*
X161626000Y-74126000D01*
X162624000Y-74126000D01*
X164126000Y-74126000D01*
X165124000Y-74126000D01*
X166626000Y-74126000D01*
X166626000Y-73136619D01*
X166207881Y-72718500D01*
X165124000Y-72718500D01*
X165124000Y-74126000D01*
X164126000Y-74126000D01*
X164126000Y-72718500D01*
X162624000Y-72718500D01*
X162624000Y-74126000D01*
X161626000Y-74126000D01*
X161626000Y-72718500D01*
X160124000Y-72718500D01*
X160124000Y-74126000D01*
X159126000Y-74126000D01*
X159126000Y-72718500D01*
X157624000Y-72718500D01*
X157624000Y-74102957D01*
X156626000Y-74102957D01*
X156626000Y-73103783D01*
X156615945Y-73112372D01*
X156612179Y-73115463D01*
X156589021Y-73133721D01*
X156585134Y-73136663D01*
X156349595Y-73307792D01*
X156345599Y-73310578D01*
X156321103Y-73326945D01*
X156317002Y-73329569D01*
X156283579Y-73350050D01*
X156279379Y-73352512D01*
X156253683Y-73366902D01*
X156249390Y-73369197D01*
X155989986Y-73501370D01*
X155985603Y-73503495D01*
X155958828Y-73515838D01*
X155954360Y-73517793D01*
X155918144Y-73532791D01*
X155913613Y-73534564D01*
X155886004Y-73544748D01*
X155881410Y-73546341D01*
X155604533Y-73636305D01*
X155599870Y-73637719D01*
X155571491Y-73645722D01*
X155566772Y-73646953D01*
X155528654Y-73656101D01*
X155523903Y-73657143D01*
X155495040Y-73662883D01*
X155490252Y-73663738D01*
X155202734Y-73709277D01*
X155197911Y-73709944D01*
X155168678Y-73713404D01*
X155163840Y-73713881D01*
X155124761Y-73716959D01*
X155124000Y-73717003D01*
X150185068Y-73717003D01*
X150185068Y-73534465D01*
X150145792Y-73286490D01*
X150068205Y-73047704D01*
X149954221Y-72823998D01*
X149880720Y-72722832D01*
X149880719Y-72722831D01*
X149267577Y-73335973D01*
X149254641Y-73304742D01*
X149172563Y-73181903D01*
X149068097Y-73077437D01*
X148945258Y-72995359D01*
X148914024Y-72982421D01*
X149272446Y-72624000D01*
X150971926Y-72624000D01*
X150980804Y-72643258D01*
X150982759Y-72647726D01*
X150997757Y-72683942D01*
X150999529Y-72688471D01*
X151009714Y-72716081D01*
X151011308Y-72720678D01*
X151101001Y-72996723D01*
X151102415Y-73001383D01*
X151110408Y-73029725D01*
X151111635Y-73034430D01*
X151120788Y-73072547D01*
X151121833Y-73077307D01*
X151127582Y-73106207D01*
X151128438Y-73111003D01*
X151143233Y-73204418D01*
X151308234Y-73136073D01*
X151312009Y-73134581D01*
X151335011Y-73125924D01*
X151338842Y-73124554D01*
X151369775Y-73114057D01*
X151373634Y-73112817D01*
X151397094Y-73105702D01*
X151400988Y-73104590D01*
X151626000Y-73044298D01*
X151626000Y-72954371D01*
X152624000Y-72954371D01*
X152629072Y-72954704D01*
X152633117Y-72955036D01*
X152657547Y-72957442D01*
X152661580Y-72957906D01*
X152986459Y-73000678D01*
X152990477Y-73001274D01*
X153014705Y-73005275D01*
X153018695Y-73006001D01*
X153050731Y-73012374D01*
X153054695Y-73013230D01*
X153078587Y-73018801D01*
X153082523Y-73019787D01*
X153195125Y-73049958D01*
X152999667Y-72854500D01*
X152996297Y-72850996D01*
X152976323Y-72829391D01*
X152973089Y-72825752D01*
X152947628Y-72795945D01*
X152944537Y-72792179D01*
X152926279Y-72769021D01*
X152923337Y-72765134D01*
X152820797Y-72624000D01*
X152624000Y-72624000D01*
X152624000Y-72954371D01*
X151626000Y-72954371D01*
X151626000Y-72624000D01*
X150971926Y-72624000D01*
X149272446Y-72624000D01*
X149527167Y-72369279D01*
X149527166Y-72369278D01*
X149426002Y-72295778D01*
X149202295Y-72181794D01*
X148963509Y-72104207D01*
X148963510Y-72104207D01*
X148715534Y-72064932D01*
X148464466Y-72064932D01*
X148216490Y-72104207D01*
X147977704Y-72181794D01*
X147754003Y-72295775D01*
X147652832Y-72369279D01*
X148265975Y-72982421D01*
X148234742Y-72995359D01*
X148111903Y-73077437D01*
X148007437Y-73181903D01*
X147925359Y-73304742D01*
X147912421Y-73335975D01*
X147299279Y-72722832D01*
X147225775Y-72824003D01*
X147111794Y-73047704D01*
X147034207Y-73286490D01*
X146994932Y-73534465D01*
X145996932Y-73534465D01*
X145996932Y-73514855D01*
X145997028Y-73509983D01*
X145998186Y-73480531D01*
X145998473Y-73475666D01*
X146001551Y-73436587D01*
X146002028Y-73431749D01*
X146005488Y-73402516D01*
X146006155Y-73397693D01*
X146051562Y-73111002D01*
X146052418Y-73106207D01*
X146058167Y-73077307D01*
X146059212Y-73072547D01*
X146068365Y-73034430D01*
X146069592Y-73029725D01*
X146077585Y-73001383D01*
X146078999Y-72996723D01*
X146168692Y-72720678D01*
X146170286Y-72716081D01*
X146180471Y-72688471D01*
X146182243Y-72683942D01*
X146197241Y-72647726D01*
X146199195Y-72643259D01*
X146208073Y-72624000D01*
X145124000Y-72624000D01*
X145124000Y-74126000D01*
X144126000Y-74126000D01*
X144126000Y-72624000D01*
X142624000Y-72624000D01*
X142624000Y-74126000D01*
X141500500Y-74126000D01*
X141500500Y-71626000D01*
X142624000Y-71626000D01*
X144126000Y-71626000D01*
X145124000Y-71626000D01*
X146626000Y-71626000D01*
X146626000Y-71569307D01*
X150124000Y-71569307D01*
X150202031Y-71626000D01*
X151626000Y-71626000D01*
X151626000Y-70994038D01*
X153339500Y-70994038D01*
X153339500Y-71245961D01*
X153378910Y-71494785D01*
X153456760Y-71734383D01*
X153571132Y-71958848D01*
X153719201Y-72162649D01*
X153719205Y-72162654D01*
X153897345Y-72340794D01*
X153897350Y-72340798D01*
X154075117Y-72469952D01*
X154101155Y-72488870D01*
X154244184Y-72561747D01*
X154325616Y-72603239D01*
X154325618Y-72603239D01*
X154325621Y-72603241D01*
X154565215Y-72681090D01*
X154814038Y-72720500D01*
X154814039Y-72720500D01*
X155065961Y-72720500D01*
X155065962Y-72720500D01*
X155314785Y-72681090D01*
X155554379Y-72603241D01*
X155778845Y-72488870D01*
X155982656Y-72340793D01*
X156160793Y-72162656D01*
X156308870Y-71958845D01*
X156395815Y-71788204D01*
X156443789Y-71737409D01*
X156506300Y-71720500D01*
X166569903Y-71720500D01*
X166636942Y-71740185D01*
X166657584Y-71756819D01*
X170613181Y-75712416D01*
X170646666Y-75773739D01*
X170649500Y-75800097D01*
X170649500Y-88949903D01*
X170629815Y-89016942D01*
X170613181Y-89037584D01*
X165037584Y-94613181D01*
X164976261Y-94646666D01*
X164949903Y-94649500D01*
X164535719Y-94649500D01*
X164468680Y-94629815D01*
X164425235Y-94581795D01*
X164405052Y-94542185D01*
X164405051Y-94542184D01*
X164280109Y-94370213D01*
X164129786Y-94219890D01*
X163957820Y-94094951D01*
X163957115Y-94094591D01*
X163949054Y-94090485D01*
X163898259Y-94042512D01*
X163881463Y-93974692D01*
X163903999Y-93908556D01*
X163949054Y-93869515D01*
X163957816Y-93865051D01*
X164052286Y-93796415D01*
X164129786Y-93740109D01*
X164129788Y-93740106D01*
X164129792Y-93740104D01*
X164280104Y-93589792D01*
X164280106Y-93589788D01*
X164280109Y-93589786D01*
X164405048Y-93417820D01*
X164405047Y-93417820D01*
X164405051Y-93417816D01*
X164501557Y-93228412D01*
X164567246Y-93026243D01*
X164600500Y-92816287D01*
X164600500Y-92603713D01*
X164567246Y-92393757D01*
X164501557Y-92191588D01*
X164405051Y-92002184D01*
X164405049Y-92002181D01*
X164405048Y-92002179D01*
X164280109Y-91830213D01*
X164129786Y-91679890D01*
X164110748Y-91666058D01*
X164110746Y-91666058D01*
X163957816Y-91554949D01*
X163868231Y-91509303D01*
X163895960Y-91495175D01*
X163882185Y-91439548D01*
X165229510Y-91439548D01*
X165243126Y-91459927D01*
X165245750Y-91464027D01*
X165266231Y-91497450D01*
X165268693Y-91501650D01*
X165283083Y-91527346D01*
X165285378Y-91531639D01*
X165333457Y-91626000D01*
X166613380Y-91626000D01*
X166626000Y-91613380D01*
X166626000Y-90124000D01*
X165569659Y-90124000D01*
X165556685Y-90170000D01*
X165594499Y-90304073D01*
X165597628Y-90357130D01*
X165549406Y-90661592D01*
X165548551Y-90666380D01*
X165542811Y-90695243D01*
X165541769Y-90699995D01*
X165532621Y-90738112D01*
X165531391Y-90742828D01*
X165523389Y-90771205D01*
X165521974Y-90775869D01*
X165444191Y-91015263D01*
X165442595Y-91019864D01*
X165432396Y-91047509D01*
X165430621Y-91052045D01*
X165415619Y-91088261D01*
X165413669Y-91092719D01*
X165401340Y-91119463D01*
X165399215Y-91123845D01*
X165284950Y-91348100D01*
X165282654Y-91352394D01*
X165268264Y-91378089D01*
X165265803Y-91382288D01*
X165245322Y-91415711D01*
X165242696Y-91419814D01*
X165229510Y-91439548D01*
X163882185Y-91439548D01*
X163880912Y-91434409D01*
X163903449Y-91368274D01*
X163948507Y-91329232D01*
X163957558Y-91324620D01*
X164129459Y-91199727D01*
X164129464Y-91199723D01*
X164279723Y-91049464D01*
X164279727Y-91049459D01*
X164404620Y-90877557D01*
X164501095Y-90688217D01*
X164566757Y-90486129D01*
X164566757Y-90486126D01*
X164577231Y-90420000D01*
X163683012Y-90420000D01*
X163715925Y-90362993D01*
X163750000Y-90235826D01*
X163750000Y-90104174D01*
X163715925Y-89977007D01*
X163683012Y-89920000D01*
X164577231Y-89920000D01*
X164566757Y-89853873D01*
X164566757Y-89853870D01*
X164501095Y-89651782D01*
X164404620Y-89462442D01*
X164279727Y-89290540D01*
X164279723Y-89290535D01*
X164129464Y-89140276D01*
X164129459Y-89140272D01*
X163957555Y-89015377D01*
X163948500Y-89010763D01*
X163897706Y-88962788D01*
X163882270Y-88900451D01*
X165229510Y-88900451D01*
X165242696Y-88920186D01*
X165245322Y-88924289D01*
X165265803Y-88957712D01*
X165268264Y-88961911D01*
X165282654Y-88987606D01*
X165284950Y-88991900D01*
X165353278Y-89126000D01*
X166626000Y-89126000D01*
X167624000Y-89126000D01*
X169113380Y-89126000D01*
X169126000Y-89113379D01*
X169126000Y-87624000D01*
X167624000Y-87624000D01*
X167624000Y-89126000D01*
X166626000Y-89126000D01*
X166626000Y-87624000D01*
X165598500Y-87624000D01*
X165598500Y-87755897D01*
X165598404Y-87760769D01*
X165597246Y-87790221D01*
X165596959Y-87795086D01*
X165593881Y-87834165D01*
X165593404Y-87839003D01*
X165589944Y-87868236D01*
X165589277Y-87873059D01*
X165549892Y-88121728D01*
X165549036Y-88126523D01*
X165543287Y-88155423D01*
X165542242Y-88160183D01*
X165533089Y-88198300D01*
X165531862Y-88203005D01*
X165523869Y-88231347D01*
X165522455Y-88236007D01*
X165444658Y-88475440D01*
X165443064Y-88480037D01*
X165432879Y-88507647D01*
X165431107Y-88512175D01*
X165416109Y-88548392D01*
X165414154Y-88552861D01*
X165401811Y-88579636D01*
X165399686Y-88584019D01*
X165285378Y-88808361D01*
X165283083Y-88812654D01*
X165268693Y-88838350D01*
X165266231Y-88842550D01*
X165245750Y-88875973D01*
X165243126Y-88880073D01*
X165229510Y-88900451D01*
X163882270Y-88900451D01*
X163880912Y-88894966D01*
X163897698Y-88845710D01*
X163868232Y-88830696D01*
X163957816Y-88785051D01*
X164110748Y-88673940D01*
X164129786Y-88660109D01*
X164129788Y-88660106D01*
X164129792Y-88660104D01*
X164280104Y-88509792D01*
X164280106Y-88509788D01*
X164280109Y-88509786D01*
X164405048Y-88337820D01*
X164405047Y-88337820D01*
X164405051Y-88337816D01*
X164501557Y-88148412D01*
X164567246Y-87946243D01*
X164600500Y-87736287D01*
X164600500Y-87523713D01*
X164567246Y-87313757D01*
X164501557Y-87111588D01*
X164405051Y-86922184D01*
X164405049Y-86922181D01*
X164405048Y-86922179D01*
X164280109Y-86750213D01*
X164129786Y-86599890D01*
X163957820Y-86474951D01*
X163768414Y-86378444D01*
X163768413Y-86378443D01*
X163768412Y-86378443D01*
X163566243Y-86312754D01*
X163566241Y-86312753D01*
X163566240Y-86312753D01*
X163404957Y-86287208D01*
X163356287Y-86279500D01*
X161143713Y-86279500D01*
X161095042Y-86287208D01*
X160933760Y-86312753D01*
X160731585Y-86378444D01*
X160542179Y-86474951D01*
X160370213Y-86599890D01*
X160219890Y-86750213D01*
X160094951Y-86922179D01*
X159998444Y-87111585D01*
X159932753Y-87313760D01*
X159899500Y-87523713D01*
X159899500Y-87736286D01*
X159932753Y-87946239D01*
X159998444Y-88148414D01*
X160094951Y-88337820D01*
X160219890Y-88509786D01*
X160370213Y-88660109D01*
X160389250Y-88673940D01*
X160389250Y-88673939D01*
X160542184Y-88785051D01*
X160631767Y-88830696D01*
X160604038Y-88844825D01*
X160619087Y-88905587D01*
X160596552Y-88971722D01*
X160551502Y-89010762D01*
X160542443Y-89015378D01*
X160370540Y-89140272D01*
X160370535Y-89140276D01*
X160220276Y-89290535D01*
X160220272Y-89290540D01*
X160095379Y-89462442D01*
X159998904Y-89651782D01*
X159933242Y-89853870D01*
X159933242Y-89853873D01*
X159922769Y-89920000D01*
X162816988Y-89920000D01*
X162784075Y-89977007D01*
X162750000Y-90104174D01*
X162750000Y-90235826D01*
X162784075Y-90362993D01*
X162816988Y-90420000D01*
X159922769Y-90420000D01*
X159933242Y-90486126D01*
X159933242Y-90486129D01*
X159998904Y-90688217D01*
X160095379Y-90877557D01*
X160220272Y-91049459D01*
X160220276Y-91049464D01*
X160370535Y-91199723D01*
X160370540Y-91199727D01*
X160542444Y-91324622D01*
X160551495Y-91329234D01*
X160602292Y-91377208D01*
X160619087Y-91445029D01*
X160602300Y-91494289D01*
X160631767Y-91509303D01*
X160542184Y-91554949D01*
X160389252Y-91666059D01*
X160389250Y-91666058D01*
X160370213Y-91679890D01*
X160219890Y-91830213D01*
X160094951Y-92002179D01*
X159998444Y-92191585D01*
X159932753Y-92393760D01*
X159917315Y-92491233D01*
X159899500Y-92603713D01*
X159899500Y-92816287D01*
X159902606Y-92835897D01*
X159911861Y-92894334D01*
X159932754Y-93026243D01*
X159961386Y-93114364D01*
X159998444Y-93228414D01*
X160094951Y-93417820D01*
X160219890Y-93589786D01*
X160370213Y-93740109D01*
X160542182Y-93865050D01*
X160550946Y-93869516D01*
X160601742Y-93917491D01*
X160618536Y-93985312D01*
X160595998Y-94051447D01*
X160550946Y-94090484D01*
X160542182Y-94094949D01*
X160370213Y-94219890D01*
X160219890Y-94370213D01*
X160094951Y-94542179D01*
X159998444Y-94731585D01*
X159932753Y-94933760D01*
X159902622Y-95124000D01*
X159899500Y-95143713D01*
X159899500Y-95356287D01*
X159932754Y-95566243D01*
X159967261Y-95672445D01*
X159998444Y-95768414D01*
X160094951Y-95957820D01*
X160219890Y-96129786D01*
X160370213Y-96280109D01*
X160542182Y-96405050D01*
X160577268Y-96422927D01*
X160628064Y-96470900D01*
X160644860Y-96538721D01*
X160622323Y-96604856D01*
X160593859Y-96633730D01*
X160420214Y-96759890D01*
X160420209Y-96759894D01*
X160269890Y-96910213D01*
X160142085Y-97086125D01*
X160140795Y-97085188D01*
X160094148Y-97127361D01*
X160025214Y-97138758D01*
X159961061Y-97111078D01*
X159952592Y-97103357D01*
X159316819Y-96467584D01*
X159283334Y-96406261D01*
X159280500Y-96379903D01*
X159280500Y-93999060D01*
X159280501Y-93999047D01*
X159280501Y-93830944D01*
X159280501Y-93830943D01*
X159239577Y-93678216D01*
X159231620Y-93664434D01*
X159160524Y-93541290D01*
X159160518Y-93541282D01*
X156472159Y-90852923D01*
X156438674Y-90791600D01*
X156441908Y-90726925D01*
X156485300Y-90593380D01*
X157624000Y-90593380D01*
X158656620Y-91626000D01*
X159126000Y-91626000D01*
X159126000Y-91173330D01*
X159100786Y-91123846D01*
X159098660Y-91119463D01*
X159086331Y-91092719D01*
X159084381Y-91088261D01*
X159069379Y-91052045D01*
X159067604Y-91047509D01*
X159057405Y-91019864D01*
X159055809Y-91015263D01*
X158978026Y-90775869D01*
X158976611Y-90771205D01*
X158968609Y-90742828D01*
X158967379Y-90738112D01*
X158958231Y-90699995D01*
X158957189Y-90695243D01*
X158951449Y-90666380D01*
X158950594Y-90661592D01*
X158902372Y-90357130D01*
X158905500Y-90304074D01*
X158943312Y-90170000D01*
X158930339Y-90124000D01*
X157624000Y-90124000D01*
X157624000Y-90593380D01*
X156485300Y-90593380D01*
X156501090Y-90544785D01*
X156540500Y-90295962D01*
X156540500Y-90044038D01*
X156501090Y-89795215D01*
X156423241Y-89555621D01*
X156423239Y-89555618D01*
X156423239Y-89555616D01*
X156375764Y-89462442D01*
X156308870Y-89331155D01*
X156166236Y-89134835D01*
X156160798Y-89127350D01*
X156160794Y-89127345D01*
X156159449Y-89126000D01*
X157624000Y-89126000D01*
X159126000Y-89126000D01*
X159126000Y-88634430D01*
X159100314Y-88584019D01*
X159098189Y-88579636D01*
X159085846Y-88552861D01*
X159083891Y-88548392D01*
X159068893Y-88512175D01*
X159067121Y-88507647D01*
X159056936Y-88480037D01*
X159055342Y-88475440D01*
X158977545Y-88236007D01*
X158976131Y-88231347D01*
X158968138Y-88203005D01*
X158966911Y-88198300D01*
X158957758Y-88160183D01*
X158956713Y-88155423D01*
X158950964Y-88126523D01*
X158950108Y-88121728D01*
X158910723Y-87873059D01*
X158910056Y-87868236D01*
X158906596Y-87839003D01*
X158906119Y-87834165D01*
X158903041Y-87795086D01*
X158902754Y-87790221D01*
X158901596Y-87760769D01*
X158901500Y-87755897D01*
X158901500Y-87624000D01*
X157624000Y-87624000D01*
X157624000Y-89126000D01*
X156159449Y-89126000D01*
X155982654Y-88949205D01*
X155982649Y-88949201D01*
X155778848Y-88801132D01*
X155778847Y-88801131D01*
X155778845Y-88801130D01*
X155698918Y-88760405D01*
X155554383Y-88686760D01*
X155314785Y-88608910D01*
X155245265Y-88597899D01*
X155065962Y-88569500D01*
X154814038Y-88569500D01*
X154700505Y-88587482D01*
X154565214Y-88608910D01*
X154325616Y-88686760D01*
X154101151Y-88801132D01*
X153897350Y-88949201D01*
X153897345Y-88949205D01*
X153719205Y-89127345D01*
X153719201Y-89127350D01*
X153571132Y-89331151D01*
X153456760Y-89555616D01*
X153387135Y-89769901D01*
X153378910Y-89795215D01*
X153339500Y-90044038D01*
X153339500Y-90295962D01*
X153359146Y-90420000D01*
X153378910Y-90544785D01*
X153456760Y-90784383D01*
X153517441Y-90903474D01*
X153570112Y-91006848D01*
X153571132Y-91008848D01*
X153719201Y-91212649D01*
X153719205Y-91212654D01*
X153897345Y-91390794D01*
X153897350Y-91390798D01*
X153972383Y-91445312D01*
X154101155Y-91538870D01*
X154233288Y-91606195D01*
X154325616Y-91653239D01*
X154325618Y-91653239D01*
X154325621Y-91653241D01*
X154565215Y-91731090D01*
X154814038Y-91770500D01*
X154814039Y-91770500D01*
X155065961Y-91770500D01*
X155065962Y-91770500D01*
X155314785Y-91731090D01*
X155496925Y-91671908D01*
X155566764Y-91669914D01*
X155622923Y-91702159D01*
X156815098Y-92894334D01*
X157905252Y-93984487D01*
X157938737Y-94045810D01*
X157933753Y-94115502D01*
X157891881Y-94171435D01*
X157826417Y-94195852D01*
X157779254Y-94190099D01*
X157737702Y-94176598D01*
X157737698Y-94176597D01*
X157606271Y-94155781D01*
X157566611Y-94149500D01*
X157393389Y-94149500D01*
X157353728Y-94155781D01*
X157222302Y-94176597D01*
X157057552Y-94230128D01*
X156903211Y-94308768D01*
X156837498Y-94356512D01*
X156763072Y-94410586D01*
X156763070Y-94410588D01*
X156763069Y-94410588D01*
X156640588Y-94533069D01*
X156640588Y-94533070D01*
X156640586Y-94533072D01*
X156633966Y-94542184D01*
X156538768Y-94673211D01*
X156460128Y-94827552D01*
X156406597Y-94992302D01*
X156379500Y-95163389D01*
X156379500Y-95336610D01*
X156401162Y-95473383D01*
X156406598Y-95507701D01*
X156460127Y-95672445D01*
X156538768Y-95826788D01*
X156640586Y-95966928D01*
X156763072Y-96089414D01*
X156903212Y-96191232D01*
X157057555Y-96269873D01*
X157222299Y-96323402D01*
X157393389Y-96350500D01*
X157393390Y-96350500D01*
X157566610Y-96350500D01*
X157566611Y-96350500D01*
X157737701Y-96323402D01*
X157902445Y-96269873D01*
X157902448Y-96269870D01*
X157902452Y-96269870D01*
X157906954Y-96268006D01*
X157907746Y-96269920D01*
X157967873Y-96258628D01*
X158032614Y-96284904D01*
X158072871Y-96342010D01*
X158079500Y-96382009D01*
X158079500Y-96593330D01*
X158079499Y-96593348D01*
X158079499Y-96759054D01*
X158079498Y-96759054D01*
X158120422Y-96911783D01*
X158139972Y-96945644D01*
X158139974Y-96945647D01*
X158199479Y-97048714D01*
X158199481Y-97048717D01*
X158318349Y-97167585D01*
X158318355Y-97167590D01*
X159305139Y-98154374D01*
X159305149Y-98154385D01*
X159309479Y-98158715D01*
X159309480Y-98158716D01*
X159421284Y-98270520D01*
X159499060Y-98315423D01*
X159508095Y-98320639D01*
X159508097Y-98320641D01*
X159546151Y-98342611D01*
X159558215Y-98349577D01*
X159710943Y-98390500D01*
X159869057Y-98390500D01*
X160014281Y-98390500D01*
X160081320Y-98410185D01*
X160124765Y-98458205D01*
X160144947Y-98497814D01*
X160144948Y-98497815D01*
X160269890Y-98669786D01*
X160420213Y-98820109D01*
X160592182Y-98945050D01*
X160600946Y-98949516D01*
X160651742Y-98997491D01*
X160668536Y-99065312D01*
X160645998Y-99131447D01*
X160600946Y-99170484D01*
X160592182Y-99174949D01*
X160420213Y-99299890D01*
X160269890Y-99450213D01*
X160144951Y-99622179D01*
X160048444Y-99811585D01*
X159982753Y-100013760D01*
X159949500Y-100223713D01*
X159949500Y-100436286D01*
X159982753Y-100646239D01*
X160048444Y-100848414D01*
X160144951Y-101037820D01*
X160269890Y-101209786D01*
X160289580Y-101229476D01*
X160323065Y-101290799D01*
X160318081Y-101360491D01*
X160289580Y-101404838D01*
X154459481Y-107234936D01*
X154459479Y-107234939D01*
X154409361Y-107321748D01*
X154409359Y-107321750D01*
X154380425Y-107371863D01*
X154380424Y-107371864D01*
X154380423Y-107371869D01*
X154339499Y-107524597D01*
X154339499Y-107524599D01*
X154339499Y-107653700D01*
X154319814Y-107720739D01*
X154271794Y-107764185D01*
X154101151Y-107851132D01*
X153897350Y-107999201D01*
X153897345Y-107999205D01*
X153719205Y-108177345D01*
X153719201Y-108177350D01*
X153571132Y-108381151D01*
X153456760Y-108605616D01*
X153378910Y-108845214D01*
X153339500Y-109094038D01*
X153339500Y-109345961D01*
X153378910Y-109594785D01*
X153456760Y-109834383D01*
X153571132Y-110058848D01*
X153719201Y-110262649D01*
X153719205Y-110262654D01*
X153897345Y-110440794D01*
X153897350Y-110440798D01*
X154025196Y-110533683D01*
X154101155Y-110588870D01*
X154244184Y-110661747D01*
X154325616Y-110703239D01*
X154325618Y-110703239D01*
X154325621Y-110703241D01*
X154565215Y-110781090D01*
X154814038Y-110820500D01*
X154814039Y-110820500D01*
X155065961Y-110820500D01*
X155065962Y-110820500D01*
X155314785Y-110781090D01*
X155554379Y-110703241D01*
X155778845Y-110588870D01*
X155982656Y-110440793D01*
X156160793Y-110262656D01*
X156308870Y-110058845D01*
X156423241Y-109834379D01*
X156501090Y-109594785D01*
X156540500Y-109345962D01*
X156540500Y-109126000D01*
X157624000Y-109126000D01*
X159126000Y-109126000D01*
X160124000Y-109126000D01*
X161626000Y-109126000D01*
X162624000Y-109126000D01*
X164126000Y-109126000D01*
X165124000Y-109126000D01*
X166626000Y-109126000D01*
X167624000Y-109126000D01*
X169126000Y-109126000D01*
X170124000Y-109126000D01*
X171626000Y-109126000D01*
X172624000Y-109126000D01*
X174126000Y-109126000D01*
X175124000Y-109126000D01*
X176626000Y-109126000D01*
X177624000Y-109126000D01*
X179126000Y-109126000D01*
X180124000Y-109126000D01*
X181371500Y-109126000D01*
X181371500Y-107624000D01*
X180124000Y-107624000D01*
X180124000Y-109126000D01*
X179126000Y-109126000D01*
X179126000Y-107624000D01*
X177624000Y-107624000D01*
X177624000Y-109126000D01*
X176626000Y-109126000D01*
X176626000Y-107624000D01*
X175124000Y-107624000D01*
X175124000Y-109126000D01*
X174126000Y-109126000D01*
X174126000Y-107624000D01*
X172624000Y-107624000D01*
X172624000Y-109126000D01*
X171626000Y-109126000D01*
X171626000Y-107624000D01*
X170124000Y-107624000D01*
X170124000Y-109126000D01*
X169126000Y-109126000D01*
X169126000Y-107624000D01*
X167624000Y-107624000D01*
X167624000Y-109126000D01*
X166626000Y-109126000D01*
X166626000Y-107624000D01*
X165124000Y-107624000D01*
X165124000Y-109126000D01*
X164126000Y-109126000D01*
X164126000Y-107624000D01*
X162624000Y-107624000D01*
X162624000Y-109126000D01*
X161626000Y-109126000D01*
X161626000Y-107624000D01*
X160124000Y-107624000D01*
X160124000Y-109126000D01*
X159126000Y-109126000D01*
X159126000Y-107624000D01*
X157624000Y-107624000D01*
X157624000Y-109126000D01*
X156540500Y-109126000D01*
X156540500Y-109094038D01*
X156501090Y-108845215D01*
X156423241Y-108605621D01*
X156423239Y-108605618D01*
X156423239Y-108605616D01*
X156381747Y-108524184D01*
X156308870Y-108381155D01*
X156289952Y-108355117D01*
X156160798Y-108177350D01*
X156160794Y-108177345D01*
X155982654Y-107999205D01*
X155982649Y-107999201D01*
X155778845Y-107851129D01*
X155773848Y-107848583D01*
X155723054Y-107800606D01*
X155706262Y-107732784D01*
X155728803Y-107666650D01*
X155742461Y-107650426D01*
X156766887Y-106626000D01*
X158178270Y-106626000D01*
X159126000Y-106626000D01*
X160124000Y-106626000D01*
X161626000Y-106626000D01*
X161626000Y-105218500D01*
X162624000Y-105218500D01*
X162624000Y-106626000D01*
X164126000Y-106626000D01*
X165124000Y-106626000D01*
X166626000Y-106626000D01*
X167624000Y-106626000D01*
X169126000Y-106626000D01*
X170124000Y-106626000D01*
X171626000Y-106626000D01*
X172624000Y-106626000D01*
X174126000Y-106626000D01*
X175124000Y-106626000D01*
X176626000Y-106626000D01*
X177624000Y-106626000D01*
X179126000Y-106626000D01*
X179126000Y-105218500D01*
X180124000Y-105218500D01*
X180124000Y-106626000D01*
X181371500Y-106626000D01*
X181371500Y-105124000D01*
X181112806Y-105124000D01*
X181056007Y-105142455D01*
X181051347Y-105143869D01*
X181023005Y-105151862D01*
X181018300Y-105153089D01*
X180980183Y-105162242D01*
X180975423Y-105163287D01*
X180946523Y-105169036D01*
X180941728Y-105169892D01*
X180693059Y-105209277D01*
X180688236Y-105209944D01*
X180659003Y-105213404D01*
X180654165Y-105213881D01*
X180615086Y-105216959D01*
X180610221Y-105217246D01*
X180580769Y-105218404D01*
X180575897Y-105218500D01*
X180124000Y-105218500D01*
X179126000Y-105218500D01*
X178424103Y-105218500D01*
X178419231Y-105218404D01*
X178389779Y-105217246D01*
X178384914Y-105216959D01*
X178345835Y-105213881D01*
X178340997Y-105213404D01*
X178311764Y-105209944D01*
X178306941Y-105209277D01*
X178058272Y-105169892D01*
X178053477Y-105169036D01*
X178024577Y-105163287D01*
X178019817Y-105162242D01*
X177981700Y-105153089D01*
X177976995Y-105151862D01*
X177948653Y-105143869D01*
X177943993Y-105142455D01*
X177887194Y-105124000D01*
X177624000Y-105124000D01*
X177624000Y-106626000D01*
X176626000Y-106626000D01*
X176626000Y-105124000D01*
X175124000Y-105124000D01*
X175124000Y-106626000D01*
X174126000Y-106626000D01*
X174126000Y-105124000D01*
X172624000Y-105124000D01*
X172624000Y-106626000D01*
X171626000Y-106626000D01*
X171626000Y-105124000D01*
X170124000Y-105124000D01*
X170124000Y-106626000D01*
X169126000Y-106626000D01*
X169126000Y-105124000D01*
X167624000Y-105124000D01*
X167624000Y-106626000D01*
X166626000Y-106626000D01*
X166626000Y-105124000D01*
X165124000Y-105124000D01*
X165124000Y-106626000D01*
X164126000Y-106626000D01*
X164126000Y-105124000D01*
X163862806Y-105124000D01*
X163806007Y-105142455D01*
X163801347Y-105143869D01*
X163773005Y-105151862D01*
X163768300Y-105153089D01*
X163730183Y-105162242D01*
X163725423Y-105163287D01*
X163696523Y-105169036D01*
X163691728Y-105169892D01*
X163443059Y-105209277D01*
X163438236Y-105209944D01*
X163409003Y-105213404D01*
X163404165Y-105213881D01*
X163365086Y-105216959D01*
X163360221Y-105217246D01*
X163330769Y-105218404D01*
X163325897Y-105218500D01*
X162624000Y-105218500D01*
X161626000Y-105218500D01*
X161174103Y-105218500D01*
X161169231Y-105218404D01*
X161139779Y-105217246D01*
X161134914Y-105216959D01*
X161095835Y-105213881D01*
X161090997Y-105213404D01*
X161061764Y-105209944D01*
X161056941Y-105209277D01*
X160808272Y-105169892D01*
X160803477Y-105169036D01*
X160774577Y-105163287D01*
X160769817Y-105162242D01*
X160731700Y-105153089D01*
X160726995Y-105151862D01*
X160698653Y-105143869D01*
X160693993Y-105142455D01*
X160637194Y-105124000D01*
X160124000Y-105124000D01*
X160124000Y-106626000D01*
X159126000Y-106626000D01*
X159126000Y-105678270D01*
X158178270Y-106626000D01*
X156766887Y-106626000D01*
X159912921Y-103479966D01*
X159974242Y-103446483D01*
X160043934Y-103451467D01*
X160099867Y-103493339D01*
X160111085Y-103511354D01*
X160144951Y-103577820D01*
X160269890Y-103749786D01*
X160420213Y-103900109D01*
X160592179Y-104025048D01*
X160592181Y-104025049D01*
X160592184Y-104025051D01*
X160781588Y-104121557D01*
X160983757Y-104187246D01*
X161193713Y-104220500D01*
X161193714Y-104220500D01*
X163306286Y-104220500D01*
X163306287Y-104220500D01*
X163516243Y-104187246D01*
X163704738Y-104126000D01*
X165189166Y-104126000D01*
X166626000Y-104126000D01*
X167624000Y-104126000D01*
X169126000Y-104126000D01*
X170124000Y-104126000D01*
X171626000Y-104126000D01*
X172624000Y-104126000D01*
X174126000Y-104126000D01*
X175124000Y-104126000D01*
X176560834Y-104126000D01*
X176556874Y-104120073D01*
X176554250Y-104115973D01*
X176533769Y-104082550D01*
X176531307Y-104078350D01*
X176516917Y-104052654D01*
X176514622Y-104048361D01*
X176400314Y-103824019D01*
X176398189Y-103819636D01*
X176385846Y-103792861D01*
X176383891Y-103788392D01*
X176368893Y-103752175D01*
X176367121Y-103747647D01*
X176356936Y-103720037D01*
X176355342Y-103715440D01*
X176277545Y-103476007D01*
X176276131Y-103471347D01*
X176268138Y-103443005D01*
X176266911Y-103438300D01*
X176257758Y-103400183D01*
X176256713Y-103395423D01*
X176250964Y-103366523D01*
X176250108Y-103361728D01*
X176210723Y-103113059D01*
X176210056Y-103108236D01*
X176206596Y-103079003D01*
X176206119Y-103074165D01*
X176203041Y-103035086D01*
X176202754Y-103030221D01*
X176201596Y-103000769D01*
X176201500Y-102995897D01*
X176201500Y-102744103D01*
X176201596Y-102739231D01*
X176202754Y-102709779D01*
X176203041Y-102704914D01*
X176206119Y-102665835D01*
X176206596Y-102660997D01*
X176210056Y-102631764D01*
X176210723Y-102626941D01*
X176211189Y-102624000D01*
X175124000Y-102624000D01*
X175124000Y-104126000D01*
X174126000Y-104126000D01*
X174126000Y-102624000D01*
X172624000Y-102624000D01*
X172624000Y-104126000D01*
X171626000Y-104126000D01*
X171626000Y-102624000D01*
X170124000Y-102624000D01*
X170124000Y-104126000D01*
X169126000Y-104126000D01*
X169126000Y-102624000D01*
X167624000Y-102624000D01*
X167624000Y-104126000D01*
X166626000Y-104126000D01*
X166626000Y-102624000D01*
X165538811Y-102624000D01*
X165539277Y-102626941D01*
X165539944Y-102631764D01*
X165543404Y-102660997D01*
X165543881Y-102665835D01*
X165546959Y-102704914D01*
X165547246Y-102709779D01*
X165548404Y-102739231D01*
X165548500Y-102744103D01*
X165548500Y-102995897D01*
X165548404Y-103000769D01*
X165547246Y-103030221D01*
X165546959Y-103035086D01*
X165543881Y-103074165D01*
X165543404Y-103079003D01*
X165539944Y-103108236D01*
X165539277Y-103113059D01*
X165499892Y-103361728D01*
X165499036Y-103366523D01*
X165493287Y-103395423D01*
X165492242Y-103400183D01*
X165483089Y-103438300D01*
X165481862Y-103443005D01*
X165473869Y-103471347D01*
X165472455Y-103476007D01*
X165394658Y-103715440D01*
X165393064Y-103720037D01*
X165382879Y-103747647D01*
X165381107Y-103752175D01*
X165366109Y-103788392D01*
X165364154Y-103792861D01*
X165351811Y-103819636D01*
X165349686Y-103824019D01*
X165235378Y-104048361D01*
X165233083Y-104052654D01*
X165218693Y-104078350D01*
X165216231Y-104082550D01*
X165195750Y-104115973D01*
X165193126Y-104120073D01*
X165189166Y-104126000D01*
X163704738Y-104126000D01*
X163718412Y-104121557D01*
X163907816Y-104025051D01*
X163929789Y-104009086D01*
X164079786Y-103900109D01*
X164079788Y-103900106D01*
X164079792Y-103900104D01*
X164230104Y-103749792D01*
X164230106Y-103749788D01*
X164230109Y-103749786D01*
X164355048Y-103577820D01*
X164355047Y-103577820D01*
X164355051Y-103577816D01*
X164451557Y-103388412D01*
X164517246Y-103186243D01*
X164550500Y-102976287D01*
X164550500Y-102763713D01*
X164517246Y-102553757D01*
X164451557Y-102351588D01*
X164355051Y-102162184D01*
X164355049Y-102162181D01*
X164355048Y-102162179D01*
X164230109Y-101990213D01*
X164079786Y-101839890D01*
X163907820Y-101714951D01*
X163907115Y-101714591D01*
X163899054Y-101710485D01*
X163848259Y-101662512D01*
X163832778Y-101600000D01*
X165179812Y-101600000D01*
X165193126Y-101619927D01*
X165195750Y-101624027D01*
X165196959Y-101626000D01*
X166626000Y-101626000D01*
X167624000Y-101626000D01*
X169126000Y-101626000D01*
X170124000Y-101626000D01*
X171626000Y-101626000D01*
X172624000Y-101626000D01*
X174126000Y-101626000D01*
X175124000Y-101626000D01*
X176553041Y-101626000D01*
X176554250Y-101624027D01*
X176556874Y-101619927D01*
X176570187Y-101600000D01*
X176556874Y-101580073D01*
X176554250Y-101575973D01*
X176533769Y-101542550D01*
X176531307Y-101538350D01*
X176516917Y-101512654D01*
X176514622Y-101508361D01*
X176400314Y-101284019D01*
X176398189Y-101279636D01*
X176385846Y-101252861D01*
X176383891Y-101248392D01*
X176368893Y-101212175D01*
X176367121Y-101207647D01*
X176356936Y-101180037D01*
X176355342Y-101175440D01*
X176277545Y-100936007D01*
X176276131Y-100931347D01*
X176268138Y-100903005D01*
X176266911Y-100898300D01*
X176257758Y-100860183D01*
X176256713Y-100855423D01*
X176250964Y-100826523D01*
X176250108Y-100821728D01*
X176210723Y-100573059D01*
X176210056Y-100568236D01*
X176206596Y-100539003D01*
X176206119Y-100534165D01*
X176203041Y-100495086D01*
X176202754Y-100490221D01*
X176201596Y-100460769D01*
X176201500Y-100455897D01*
X176201500Y-100204103D01*
X176201596Y-100199231D01*
X176202754Y-100169779D01*
X176203041Y-100164914D01*
X176206119Y-100125835D01*
X176206300Y-100124000D01*
X175124000Y-100124000D01*
X175124000Y-101626000D01*
X174126000Y-101626000D01*
X174126000Y-100124000D01*
X172624000Y-100124000D01*
X172624000Y-101626000D01*
X171626000Y-101626000D01*
X171626000Y-100124000D01*
X170124000Y-100124000D01*
X170124000Y-101626000D01*
X169126000Y-101626000D01*
X169126000Y-100124000D01*
X167624000Y-100124000D01*
X167624000Y-101626000D01*
X166626000Y-101626000D01*
X166626000Y-100124000D01*
X165543700Y-100124000D01*
X165543881Y-100125835D01*
X165546959Y-100164914D01*
X165547246Y-100169779D01*
X165548404Y-100199231D01*
X165548500Y-100204103D01*
X165548500Y-100455897D01*
X165548404Y-100460769D01*
X165547246Y-100490221D01*
X165546959Y-100495086D01*
X165543881Y-100534165D01*
X165543404Y-100539003D01*
X165539944Y-100568236D01*
X165539277Y-100573059D01*
X165499892Y-100821728D01*
X165499036Y-100826523D01*
X165493287Y-100855423D01*
X165492242Y-100860183D01*
X165483089Y-100898300D01*
X165481862Y-100903005D01*
X165473869Y-100931347D01*
X165472455Y-100936007D01*
X165394658Y-101175440D01*
X165393064Y-101180037D01*
X165382879Y-101207647D01*
X165381107Y-101212175D01*
X165366109Y-101248392D01*
X165364154Y-101252861D01*
X165351811Y-101279636D01*
X165349686Y-101284019D01*
X165235378Y-101508361D01*
X165233083Y-101512654D01*
X165218693Y-101538350D01*
X165216231Y-101542550D01*
X165195750Y-101575973D01*
X165193126Y-101580073D01*
X165179812Y-101600000D01*
X163832778Y-101600000D01*
X163831463Y-101594692D01*
X163853999Y-101528556D01*
X163899054Y-101489515D01*
X163907816Y-101485051D01*
X163929789Y-101469086D01*
X164079786Y-101360109D01*
X164079788Y-101360106D01*
X164079792Y-101360104D01*
X164230104Y-101209792D01*
X164230106Y-101209788D01*
X164230109Y-101209786D01*
X164355048Y-101037820D01*
X164355047Y-101037820D01*
X164355051Y-101037816D01*
X164451557Y-100848412D01*
X164517246Y-100646243D01*
X164550500Y-100436287D01*
X164550500Y-100223713D01*
X164517246Y-100013757D01*
X164451557Y-99811588D01*
X164355051Y-99622184D01*
X164355049Y-99622181D01*
X164355048Y-99622179D01*
X164230109Y-99450213D01*
X164079786Y-99299890D01*
X163907820Y-99174951D01*
X163907115Y-99174591D01*
X163899054Y-99170485D01*
X163848259Y-99122512D01*
X163832778Y-99060000D01*
X165179812Y-99060000D01*
X165193126Y-99079927D01*
X165195750Y-99084027D01*
X165216231Y-99117450D01*
X165218693Y-99121650D01*
X165221129Y-99126000D01*
X166626000Y-99126000D01*
X167624000Y-99126000D01*
X169126000Y-99126000D01*
X170124000Y-99126000D01*
X171626000Y-99126000D01*
X172624000Y-99126000D01*
X174126000Y-99126000D01*
X175124000Y-99126000D01*
X176528871Y-99126000D01*
X176531307Y-99121650D01*
X176533769Y-99117450D01*
X176554250Y-99084027D01*
X176556874Y-99079927D01*
X176570187Y-99060000D01*
X176556874Y-99040073D01*
X176554250Y-99035973D01*
X176533769Y-99002550D01*
X176531307Y-98998350D01*
X176516917Y-98972654D01*
X176514622Y-98968361D01*
X176400314Y-98744019D01*
X176398189Y-98739636D01*
X176385846Y-98712861D01*
X176383891Y-98708392D01*
X176368893Y-98672175D01*
X176367121Y-98667647D01*
X176356936Y-98640037D01*
X176355342Y-98635440D01*
X176277545Y-98396007D01*
X176276131Y-98391347D01*
X176268138Y-98363005D01*
X176266911Y-98358300D01*
X176257758Y-98320183D01*
X176256713Y-98315423D01*
X176250964Y-98286523D01*
X176250108Y-98281728D01*
X176210723Y-98033059D01*
X176210056Y-98028236D01*
X176206596Y-97999003D01*
X176206119Y-97994165D01*
X176203041Y-97955086D01*
X176202754Y-97950221D01*
X176201596Y-97920769D01*
X176201500Y-97915897D01*
X176201500Y-97664103D01*
X176201596Y-97659231D01*
X176202754Y-97629779D01*
X176203041Y-97624914D01*
X176203113Y-97624000D01*
X175124000Y-97624000D01*
X175124000Y-99126000D01*
X174126000Y-99126000D01*
X174126000Y-97624000D01*
X172624000Y-97624000D01*
X172624000Y-99126000D01*
X171626000Y-99126000D01*
X171626000Y-97624000D01*
X170124000Y-97624000D01*
X170124000Y-99126000D01*
X169126000Y-99126000D01*
X169126000Y-97624000D01*
X167624000Y-97624000D01*
X167624000Y-99126000D01*
X166626000Y-99126000D01*
X166626000Y-97624000D01*
X165546887Y-97624000D01*
X165546959Y-97624914D01*
X165547246Y-97629779D01*
X165548404Y-97659231D01*
X165548500Y-97664103D01*
X165548500Y-97915897D01*
X165548404Y-97920769D01*
X165547246Y-97950221D01*
X165546959Y-97955086D01*
X165543881Y-97994165D01*
X165543404Y-97999003D01*
X165539944Y-98028236D01*
X165539277Y-98033059D01*
X165499892Y-98281728D01*
X165499036Y-98286523D01*
X165493287Y-98315423D01*
X165492242Y-98320183D01*
X165483089Y-98358300D01*
X165481862Y-98363005D01*
X165473869Y-98391347D01*
X165472455Y-98396007D01*
X165394658Y-98635440D01*
X165393064Y-98640037D01*
X165382879Y-98667647D01*
X165381107Y-98672175D01*
X165366109Y-98708392D01*
X165364154Y-98712861D01*
X165351811Y-98739636D01*
X165349686Y-98744019D01*
X165235378Y-98968361D01*
X165233083Y-98972654D01*
X165218693Y-98998350D01*
X165216231Y-99002550D01*
X165195750Y-99035973D01*
X165193126Y-99040073D01*
X165179812Y-99060000D01*
X163832778Y-99060000D01*
X163831463Y-99054692D01*
X163853999Y-98988556D01*
X163899054Y-98949515D01*
X163907816Y-98945051D01*
X163929789Y-98929086D01*
X164079786Y-98820109D01*
X164079788Y-98820106D01*
X164079792Y-98820104D01*
X164230104Y-98669792D01*
X164230106Y-98669788D01*
X164230109Y-98669786D01*
X164355048Y-98497820D01*
X164355047Y-98497820D01*
X164355051Y-98497816D01*
X164451557Y-98308412D01*
X164517246Y-98106243D01*
X164550500Y-97896287D01*
X164550500Y-97683713D01*
X164517246Y-97473757D01*
X164451557Y-97271588D01*
X164355051Y-97082184D01*
X164355049Y-97082181D01*
X164355048Y-97082179D01*
X164230109Y-96910213D01*
X164079790Y-96759894D01*
X164079785Y-96759890D01*
X163906140Y-96633730D01*
X163900179Y-96626000D01*
X166063695Y-96626000D01*
X166626000Y-96626000D01*
X166626000Y-96134616D01*
X166489194Y-96271421D01*
X166489174Y-96271447D01*
X166301295Y-96459328D01*
X166295368Y-96464879D01*
X166258430Y-96497270D01*
X166252156Y-96502418D01*
X166200297Y-96542206D01*
X166193703Y-96546931D01*
X166152886Y-96574202D01*
X166145996Y-96578486D01*
X166063695Y-96626000D01*
X163900179Y-96626000D01*
X163863474Y-96578400D01*
X163857495Y-96508787D01*
X163890100Y-96446992D01*
X163922732Y-96422927D01*
X163957816Y-96405051D01*
X163957815Y-96405051D01*
X163957818Y-96405050D01*
X164129786Y-96280109D01*
X164129788Y-96280106D01*
X164129792Y-96280104D01*
X164280104Y-96129792D01*
X164280106Y-96129788D01*
X164280109Y-96129786D01*
X164371446Y-96004069D01*
X164405051Y-95957816D01*
X164405349Y-95957230D01*
X164425235Y-95918205D01*
X164473209Y-95867409D01*
X164535719Y-95850500D01*
X165163331Y-95850500D01*
X165163347Y-95850501D01*
X165170943Y-95850501D01*
X165329054Y-95850501D01*
X165329057Y-95850501D01*
X165481785Y-95809577D01*
X165531904Y-95780639D01*
X165618716Y-95730520D01*
X165730520Y-95618716D01*
X165730520Y-95618714D01*
X165740728Y-95608507D01*
X165740730Y-95608504D01*
X166212618Y-95136616D01*
X167624000Y-95136616D01*
X167624000Y-96626000D01*
X169126000Y-96626000D01*
X170124000Y-96626000D01*
X171626000Y-96626000D01*
X172624000Y-96626000D01*
X174126000Y-96626000D01*
X175124000Y-96626000D01*
X176507305Y-96626000D01*
X176514622Y-96611639D01*
X176516917Y-96607346D01*
X176531307Y-96581650D01*
X176533769Y-96577450D01*
X176554250Y-96544027D01*
X176556874Y-96539927D01*
X176570187Y-96520000D01*
X176556874Y-96500073D01*
X176554250Y-96495973D01*
X176533769Y-96462550D01*
X176531307Y-96458350D01*
X176516917Y-96432654D01*
X176514622Y-96428361D01*
X176400314Y-96204019D01*
X176398189Y-96199636D01*
X176385846Y-96172861D01*
X176383891Y-96168392D01*
X176368893Y-96132175D01*
X176367121Y-96127647D01*
X176356936Y-96100037D01*
X176355342Y-96095440D01*
X176277545Y-95856007D01*
X176276131Y-95851347D01*
X176268138Y-95823005D01*
X176266911Y-95818300D01*
X176257758Y-95780183D01*
X176256713Y-95775423D01*
X176250964Y-95746523D01*
X176250108Y-95741728D01*
X176210723Y-95493059D01*
X176210056Y-95488236D01*
X176206596Y-95459003D01*
X176206119Y-95454165D01*
X176203041Y-95415086D01*
X176202754Y-95410221D01*
X176201596Y-95380769D01*
X176201500Y-95375897D01*
X176201500Y-95124103D01*
X176201502Y-95124000D01*
X175124000Y-95124000D01*
X175124000Y-96626000D01*
X174126000Y-96626000D01*
X174126000Y-95124000D01*
X172624000Y-95124000D01*
X172624000Y-96626000D01*
X171626000Y-96626000D01*
X171626000Y-95124000D01*
X170124000Y-95124000D01*
X170124000Y-96626000D01*
X169126000Y-96626000D01*
X169126000Y-95124000D01*
X167636616Y-95124000D01*
X167624000Y-95136616D01*
X166212618Y-95136616D01*
X168712618Y-92636616D01*
X170124000Y-92636616D01*
X170124000Y-94126000D01*
X171626000Y-94126000D01*
X172624000Y-94126000D01*
X174126000Y-94126000D01*
X175124000Y-94126000D01*
X176486924Y-94126000D01*
X176514622Y-94071639D01*
X176516917Y-94067346D01*
X176531307Y-94041650D01*
X176533769Y-94037450D01*
X176554250Y-94004027D01*
X176556874Y-93999927D01*
X176570187Y-93980000D01*
X176556874Y-93960073D01*
X176554250Y-93955973D01*
X176533769Y-93922550D01*
X176531307Y-93918350D01*
X176516917Y-93892654D01*
X176514622Y-93888361D01*
X176400314Y-93664019D01*
X176398189Y-93659636D01*
X176385846Y-93632861D01*
X176383891Y-93628392D01*
X176368893Y-93592175D01*
X176367121Y-93587647D01*
X176356936Y-93560037D01*
X176355342Y-93555440D01*
X176277545Y-93316007D01*
X176276131Y-93311347D01*
X176268138Y-93283005D01*
X176266911Y-93278300D01*
X176257758Y-93240183D01*
X176256713Y-93235423D01*
X176250964Y-93206523D01*
X176250108Y-93201728D01*
X176210723Y-92953059D01*
X176210056Y-92948236D01*
X176206596Y-92919003D01*
X176206119Y-92914165D01*
X176203041Y-92875086D01*
X176202754Y-92870221D01*
X176201596Y-92840769D01*
X176201500Y-92835897D01*
X176201500Y-92624000D01*
X175124000Y-92624000D01*
X175124000Y-94126000D01*
X174126000Y-94126000D01*
X174126000Y-92624000D01*
X172624000Y-92624000D01*
X172624000Y-94126000D01*
X171626000Y-94126000D01*
X171626000Y-92624000D01*
X170136616Y-92624000D01*
X170124000Y-92636616D01*
X168712618Y-92636616D01*
X169723234Y-91626000D01*
X172624000Y-91626000D01*
X174126000Y-91626000D01*
X175124000Y-91626000D01*
X176466543Y-91626000D01*
X176514622Y-91531639D01*
X176516917Y-91527346D01*
X176531307Y-91501650D01*
X176533769Y-91497450D01*
X176554250Y-91464027D01*
X176556874Y-91459927D01*
X176570187Y-91440000D01*
X176556874Y-91420073D01*
X176554250Y-91415973D01*
X176533769Y-91382550D01*
X176531307Y-91378350D01*
X176516917Y-91352654D01*
X176514622Y-91348361D01*
X176400314Y-91124019D01*
X176398189Y-91119636D01*
X176385846Y-91092861D01*
X176383891Y-91088392D01*
X176368893Y-91052175D01*
X176367121Y-91047647D01*
X176356936Y-91020037D01*
X176355342Y-91015440D01*
X176277545Y-90776007D01*
X176276131Y-90771347D01*
X176268138Y-90743005D01*
X176266911Y-90738300D01*
X176257758Y-90700183D01*
X176256713Y-90695423D01*
X176250964Y-90666523D01*
X176250108Y-90661728D01*
X176210723Y-90413059D01*
X176210056Y-90408236D01*
X176206596Y-90379003D01*
X176206119Y-90374165D01*
X176203041Y-90335086D01*
X176202754Y-90330221D01*
X176201596Y-90300769D01*
X176201500Y-90295897D01*
X176201500Y-90124000D01*
X175124000Y-90124000D01*
X175124000Y-91626000D01*
X174126000Y-91626000D01*
X174126000Y-90124000D01*
X172624000Y-90124000D01*
X172624000Y-91626000D01*
X169723234Y-91626000D01*
X171285521Y-90063713D01*
X177199500Y-90063713D01*
X177199500Y-90276287D01*
X177232754Y-90486243D01*
X177291284Y-90666380D01*
X177298444Y-90688414D01*
X177394951Y-90877820D01*
X177519890Y-91049786D01*
X177670213Y-91200109D01*
X177842182Y-91325050D01*
X177850946Y-91329516D01*
X177901742Y-91377491D01*
X177918536Y-91445312D01*
X177895998Y-91511447D01*
X177850946Y-91550484D01*
X177842182Y-91554949D01*
X177670213Y-91679890D01*
X177519890Y-91830213D01*
X177394951Y-92002179D01*
X177298444Y-92191585D01*
X177232753Y-92393760D01*
X177217315Y-92491233D01*
X177199500Y-92603713D01*
X177199500Y-92816287D01*
X177202606Y-92835897D01*
X177211861Y-92894334D01*
X177232754Y-93026243D01*
X177261386Y-93114364D01*
X177298444Y-93228414D01*
X177394951Y-93417820D01*
X177519890Y-93589786D01*
X177670213Y-93740109D01*
X177842182Y-93865050D01*
X177850946Y-93869516D01*
X177901742Y-93917491D01*
X177918536Y-93985312D01*
X177895998Y-94051447D01*
X177850946Y-94090484D01*
X177842182Y-94094949D01*
X177670213Y-94219890D01*
X177519890Y-94370213D01*
X177394951Y-94542179D01*
X177298444Y-94731585D01*
X177232753Y-94933760D01*
X177202622Y-95124000D01*
X177199500Y-95143713D01*
X177199500Y-95356287D01*
X177232754Y-95566243D01*
X177267261Y-95672445D01*
X177298444Y-95768414D01*
X177394951Y-95957820D01*
X177519890Y-96129786D01*
X177670213Y-96280109D01*
X177842182Y-96405050D01*
X177850946Y-96409516D01*
X177901742Y-96457491D01*
X177918536Y-96525312D01*
X177895998Y-96591447D01*
X177850946Y-96630484D01*
X177842182Y-96634949D01*
X177670213Y-96759890D01*
X177519890Y-96910213D01*
X177394951Y-97082179D01*
X177298444Y-97271585D01*
X177232753Y-97473760D01*
X177199500Y-97683713D01*
X177199500Y-97896286D01*
X177216645Y-98004539D01*
X177232754Y-98106243D01*
X177259488Y-98188522D01*
X177298444Y-98308414D01*
X177394951Y-98497820D01*
X177519890Y-98669786D01*
X177670213Y-98820109D01*
X177842182Y-98945050D01*
X177850946Y-98949516D01*
X177901742Y-98997491D01*
X177918536Y-99065312D01*
X177895998Y-99131447D01*
X177850946Y-99170484D01*
X177842182Y-99174949D01*
X177670213Y-99299890D01*
X177519890Y-99450213D01*
X177394951Y-99622179D01*
X177298444Y-99811585D01*
X177232753Y-100013760D01*
X177199500Y-100223713D01*
X177199500Y-100436286D01*
X177232753Y-100646239D01*
X177298444Y-100848414D01*
X177394951Y-101037820D01*
X177519890Y-101209786D01*
X177670213Y-101360109D01*
X177842182Y-101485050D01*
X177850946Y-101489516D01*
X177901742Y-101537491D01*
X177918536Y-101605312D01*
X177895998Y-101671447D01*
X177850946Y-101710484D01*
X177842182Y-101714949D01*
X177670213Y-101839890D01*
X177519890Y-101990213D01*
X177394951Y-102162179D01*
X177298444Y-102351585D01*
X177232753Y-102553760D01*
X177199500Y-102763713D01*
X177199500Y-102976286D01*
X177232753Y-103186239D01*
X177298444Y-103388414D01*
X177394951Y-103577820D01*
X177519890Y-103749786D01*
X177670213Y-103900109D01*
X177842179Y-104025048D01*
X177842181Y-104025049D01*
X177842184Y-104025051D01*
X178031588Y-104121557D01*
X178233757Y-104187246D01*
X178443713Y-104220500D01*
X178443714Y-104220500D01*
X180556286Y-104220500D01*
X180556287Y-104220500D01*
X180766243Y-104187246D01*
X180968412Y-104121557D01*
X181157816Y-104025051D01*
X181179789Y-104009086D01*
X181329786Y-103900109D01*
X181329788Y-103900106D01*
X181329792Y-103900104D01*
X181480104Y-103749792D01*
X181480106Y-103749788D01*
X181480109Y-103749786D01*
X181605048Y-103577820D01*
X181605047Y-103577820D01*
X181605051Y-103577816D01*
X181701557Y-103388412D01*
X181767246Y-103186243D01*
X181800500Y-102976287D01*
X181800500Y-102763713D01*
X181767246Y-102553757D01*
X181701557Y-102351588D01*
X181605051Y-102162184D01*
X181605049Y-102162181D01*
X181605048Y-102162179D01*
X181480109Y-101990213D01*
X181329786Y-101839890D01*
X181157820Y-101714951D01*
X181157115Y-101714591D01*
X181149054Y-101710485D01*
X181098259Y-101662512D01*
X181081463Y-101594692D01*
X181103999Y-101528556D01*
X181149054Y-101489515D01*
X181157816Y-101485051D01*
X181179789Y-101469086D01*
X181329786Y-101360109D01*
X181329788Y-101360106D01*
X181329792Y-101360104D01*
X181480104Y-101209792D01*
X181480106Y-101209788D01*
X181480109Y-101209786D01*
X181605048Y-101037820D01*
X181605047Y-101037820D01*
X181605051Y-101037816D01*
X181701557Y-100848412D01*
X181767246Y-100646243D01*
X181800500Y-100436287D01*
X181800500Y-100223713D01*
X181767246Y-100013757D01*
X181701557Y-99811588D01*
X181605051Y-99622184D01*
X181605049Y-99622181D01*
X181605048Y-99622179D01*
X181480109Y-99450213D01*
X181329786Y-99299890D01*
X181157820Y-99174951D01*
X181157115Y-99174591D01*
X181149054Y-99170485D01*
X181098259Y-99122512D01*
X181081463Y-99054692D01*
X181103999Y-98988556D01*
X181149054Y-98949515D01*
X181157816Y-98945051D01*
X181179789Y-98929086D01*
X181329786Y-98820109D01*
X181329788Y-98820106D01*
X181329792Y-98820104D01*
X181480104Y-98669792D01*
X181480106Y-98669788D01*
X181480109Y-98669786D01*
X181605048Y-98497820D01*
X181605047Y-98497820D01*
X181605051Y-98497816D01*
X181701557Y-98308412D01*
X181767246Y-98106243D01*
X181800500Y-97896287D01*
X181800500Y-97683713D01*
X181767246Y-97473757D01*
X181701557Y-97271588D01*
X181605051Y-97082184D01*
X181605049Y-97082181D01*
X181605048Y-97082179D01*
X181480109Y-96910213D01*
X181329786Y-96759890D01*
X181157820Y-96634951D01*
X181157115Y-96634591D01*
X181149054Y-96630485D01*
X181098259Y-96582512D01*
X181081463Y-96514692D01*
X181103999Y-96448556D01*
X181149054Y-96409515D01*
X181157816Y-96405051D01*
X181189531Y-96382009D01*
X181329786Y-96280109D01*
X181329788Y-96280106D01*
X181329792Y-96280104D01*
X181480104Y-96129792D01*
X181480106Y-96129788D01*
X181480109Y-96129786D01*
X181589086Y-95979789D01*
X181605051Y-95957816D01*
X181701557Y-95768412D01*
X181767246Y-95566243D01*
X181800500Y-95356287D01*
X181800500Y-95143713D01*
X181767246Y-94933757D01*
X181701557Y-94731588D01*
X181605051Y-94542184D01*
X181605049Y-94542181D01*
X181605048Y-94542179D01*
X181480109Y-94370213D01*
X181329786Y-94219890D01*
X181157820Y-94094951D01*
X181157115Y-94094591D01*
X181149054Y-94090485D01*
X181098259Y-94042512D01*
X181081463Y-93974692D01*
X181103999Y-93908556D01*
X181149054Y-93869515D01*
X181157816Y-93865051D01*
X181252286Y-93796415D01*
X181329786Y-93740109D01*
X181329788Y-93740106D01*
X181329792Y-93740104D01*
X181480104Y-93589792D01*
X181480106Y-93589788D01*
X181480109Y-93589786D01*
X181605048Y-93417820D01*
X181605047Y-93417820D01*
X181605051Y-93417816D01*
X181701557Y-93228412D01*
X181767246Y-93026243D01*
X181800500Y-92816287D01*
X181800500Y-92603713D01*
X181767246Y-92393757D01*
X181701557Y-92191588D01*
X181605051Y-92002184D01*
X181605049Y-92002181D01*
X181605048Y-92002179D01*
X181480109Y-91830213D01*
X181329786Y-91679890D01*
X181157820Y-91554951D01*
X181157115Y-91554591D01*
X181149054Y-91550485D01*
X181098259Y-91502512D01*
X181081463Y-91434692D01*
X181103999Y-91368556D01*
X181149054Y-91329515D01*
X181157816Y-91325051D01*
X181182321Y-91307247D01*
X181329786Y-91200109D01*
X181329788Y-91200106D01*
X181329792Y-91200104D01*
X181480104Y-91049792D01*
X181480106Y-91049788D01*
X181480109Y-91049786D01*
X181605048Y-90877820D01*
X181605047Y-90877820D01*
X181605051Y-90877816D01*
X181701557Y-90688412D01*
X181767246Y-90486243D01*
X181800500Y-90276287D01*
X181800500Y-90063713D01*
X181767246Y-89853757D01*
X181701557Y-89651588D01*
X181605051Y-89462184D01*
X181605049Y-89462181D01*
X181605048Y-89462179D01*
X181480109Y-89290213D01*
X181352986Y-89163090D01*
X181319501Y-89101767D01*
X181324485Y-89032075D01*
X181366357Y-88976142D01*
X181397335Y-88959227D01*
X181424201Y-88949207D01*
X181451651Y-88938968D01*
X181492326Y-88923798D01*
X181492326Y-88923797D01*
X181492331Y-88923796D01*
X181607546Y-88837546D01*
X181693796Y-88722331D01*
X181744091Y-88587483D01*
X181750500Y-88527873D01*
X181750499Y-86732128D01*
X181744091Y-86672517D01*
X181726741Y-86626000D01*
X181693797Y-86537671D01*
X181693793Y-86537664D01*
X181607547Y-86422455D01*
X181607544Y-86422452D01*
X181492335Y-86336206D01*
X181492328Y-86336202D01*
X181357482Y-86285908D01*
X181357483Y-86285908D01*
X181297883Y-86279501D01*
X181297881Y-86279500D01*
X181297873Y-86279500D01*
X181297864Y-86279500D01*
X177702129Y-86279500D01*
X177702123Y-86279501D01*
X177642516Y-86285908D01*
X177507671Y-86336202D01*
X177507664Y-86336206D01*
X177392455Y-86422452D01*
X177392452Y-86422455D01*
X177306206Y-86537664D01*
X177306202Y-86537671D01*
X177255908Y-86672517D01*
X177249501Y-86732116D01*
X177249501Y-86732123D01*
X177249500Y-86732135D01*
X177249500Y-88527870D01*
X177249501Y-88527876D01*
X177255908Y-88587483D01*
X177306202Y-88722328D01*
X177306206Y-88722335D01*
X177392452Y-88837544D01*
X177392455Y-88837547D01*
X177507664Y-88923793D01*
X177507673Y-88923798D01*
X177602664Y-88959227D01*
X177658598Y-89001098D01*
X177683016Y-89066562D01*
X177668165Y-89134835D01*
X177647014Y-89163090D01*
X177519889Y-89290215D01*
X177394951Y-89462179D01*
X177298444Y-89651585D01*
X177232753Y-89853760D01*
X177231291Y-89862993D01*
X177199500Y-90063713D01*
X171285521Y-90063713D01*
X171608506Y-89740728D01*
X171608511Y-89740724D01*
X171618714Y-89730520D01*
X171618716Y-89730520D01*
X171730520Y-89618716D01*
X171809577Y-89481784D01*
X171850500Y-89329057D01*
X171850500Y-89126000D01*
X172848500Y-89126000D01*
X174126000Y-89126000D01*
X175124000Y-89126000D01*
X176393057Y-89126000D01*
X176386975Y-89112682D01*
X176383587Y-89104502D01*
X176309931Y-88907018D01*
X176307452Y-88899679D01*
X176293847Y-88854828D01*
X176291832Y-88847352D01*
X176277484Y-88786637D01*
X176275939Y-88779045D01*
X176268028Y-88732840D01*
X176266959Y-88725167D01*
X176255788Y-88621245D01*
X176255477Y-88617936D01*
X176253865Y-88597899D01*
X176253643Y-88594587D01*
X176252214Y-88567905D01*
X176252081Y-88564587D01*
X176251545Y-88544536D01*
X176251501Y-88541222D01*
X176251500Y-87624000D01*
X175124000Y-87624000D01*
X175124000Y-89126000D01*
X174126000Y-89126000D01*
X174126000Y-87624000D01*
X172848500Y-87624000D01*
X172848500Y-89126000D01*
X171850500Y-89126000D01*
X171850500Y-86626000D01*
X172848500Y-86626000D01*
X174126000Y-86626000D01*
X175124000Y-86626000D01*
X176257159Y-86626000D01*
X176266962Y-86534825D01*
X176268029Y-86527157D01*
X176275936Y-86480971D01*
X176277481Y-86473381D01*
X176291826Y-86412670D01*
X176293842Y-86405191D01*
X176307450Y-86360328D01*
X176309929Y-86352988D01*
X176383587Y-86155498D01*
X176386975Y-86147318D01*
X176409233Y-86098581D01*
X176413195Y-86090667D01*
X176447372Y-86028077D01*
X176451890Y-86020463D01*
X176480854Y-85975396D01*
X176485902Y-85968126D01*
X176614886Y-85795827D01*
X176620439Y-85788936D01*
X176626000Y-85782518D01*
X176626000Y-85284517D01*
X177624000Y-85284517D01*
X177632101Y-85283865D01*
X177635422Y-85283642D01*
X177662105Y-85282214D01*
X177665418Y-85282081D01*
X177685466Y-85281545D01*
X177688780Y-85281501D01*
X179126000Y-85281500D01*
X180124000Y-85281500D01*
X181311248Y-85281500D01*
X181314572Y-85281545D01*
X181334674Y-85282084D01*
X181337994Y-85282217D01*
X181364680Y-85283649D01*
X181367989Y-85283871D01*
X181371500Y-85284153D01*
X181371500Y-85124000D01*
X180124000Y-85124000D01*
X180124000Y-85281500D01*
X179126000Y-85281500D01*
X179126000Y-85124000D01*
X177624000Y-85124000D01*
X177624000Y-85284517D01*
X176626000Y-85284517D01*
X176626000Y-85124000D01*
X175124000Y-85124000D01*
X175124000Y-86626000D01*
X174126000Y-86626000D01*
X174126000Y-85124000D01*
X172848500Y-85124000D01*
X172848500Y-86626000D01*
X171850500Y-86626000D01*
X171850500Y-84126000D01*
X172848500Y-84126000D01*
X174126000Y-84126000D01*
X175124000Y-84126000D01*
X176626000Y-84126000D01*
X177624000Y-84126000D01*
X179126000Y-84126000D01*
X180124000Y-84126000D01*
X181371500Y-84126000D01*
X181371500Y-82624000D01*
X180124000Y-82624000D01*
X180124000Y-84126000D01*
X179126000Y-84126000D01*
X179126000Y-82624000D01*
X177624000Y-82624000D01*
X177624000Y-84126000D01*
X176626000Y-84126000D01*
X176626000Y-82624000D01*
X175124000Y-82624000D01*
X175124000Y-84126000D01*
X174126000Y-84126000D01*
X174126000Y-82624000D01*
X172848500Y-82624000D01*
X172848500Y-84126000D01*
X171850500Y-84126000D01*
X171850500Y-81626000D01*
X172848500Y-81626000D01*
X174126000Y-81626000D01*
X175124000Y-81626000D01*
X176626000Y-81626000D01*
X177624000Y-81626000D01*
X179126000Y-81626000D01*
X180124000Y-81626000D01*
X181371500Y-81626000D01*
X181371500Y-80124000D01*
X180124000Y-80124000D01*
X180124000Y-81626000D01*
X179126000Y-81626000D01*
X179126000Y-80124000D01*
X177624000Y-80124000D01*
X177624000Y-81626000D01*
X176626000Y-81626000D01*
X176626000Y-80124000D01*
X175124000Y-80124000D01*
X175124000Y-81626000D01*
X174126000Y-81626000D01*
X174126000Y-80124000D01*
X172848500Y-80124000D01*
X172848500Y-81626000D01*
X171850500Y-81626000D01*
X171850500Y-79126000D01*
X172848500Y-79126000D01*
X174126000Y-79126000D01*
X175124000Y-79126000D01*
X176626000Y-79126000D01*
X177624000Y-79126000D01*
X179126000Y-79126000D01*
X180124000Y-79126000D01*
X181371500Y-79126000D01*
X181371500Y-77624000D01*
X180124000Y-77624000D01*
X180124000Y-79126000D01*
X179126000Y-79126000D01*
X179126000Y-77624000D01*
X177624000Y-77624000D01*
X177624000Y-79126000D01*
X176626000Y-79126000D01*
X176626000Y-77624000D01*
X175124000Y-77624000D01*
X175124000Y-79126000D01*
X174126000Y-79126000D01*
X174126000Y-77624000D01*
X172848500Y-77624000D01*
X172848500Y-79126000D01*
X171850500Y-79126000D01*
X171850500Y-75420943D01*
X171809577Y-75268216D01*
X171779143Y-75215502D01*
X171730524Y-75131290D01*
X171730521Y-75131286D01*
X171730520Y-75131284D01*
X171723236Y-75124000D01*
X172804140Y-75124000D01*
X172822951Y-75194206D01*
X172824793Y-75202106D01*
X172834372Y-75250260D01*
X172835694Y-75258264D01*
X172844227Y-75323065D01*
X172845023Y-75331144D01*
X172848235Y-75380150D01*
X172848500Y-75388260D01*
X172848500Y-76626000D01*
X174126000Y-76626000D01*
X175124000Y-76626000D01*
X176626000Y-76626000D01*
X177624000Y-76626000D01*
X179126000Y-76626000D01*
X180124000Y-76626000D01*
X181371500Y-76626000D01*
X181371500Y-75124000D01*
X180124000Y-75124000D01*
X180124000Y-76626000D01*
X179126000Y-76626000D01*
X179126000Y-75124000D01*
X177624000Y-75124000D01*
X177624000Y-76626000D01*
X176626000Y-76626000D01*
X176626000Y-75124000D01*
X175124000Y-75124000D01*
X175124000Y-76626000D01*
X174126000Y-76626000D01*
X174126000Y-75124000D01*
X172804140Y-75124000D01*
X171723236Y-75124000D01*
X171618716Y-75019480D01*
X171618715Y-75019479D01*
X171614385Y-75015149D01*
X171614374Y-75015139D01*
X170725235Y-74126000D01*
X172624000Y-74126000D01*
X174126000Y-74126000D01*
X175124000Y-74126000D01*
X176626000Y-74126000D01*
X177624000Y-74126000D01*
X179126000Y-74126000D01*
X180124000Y-74126000D01*
X181371500Y-74126000D01*
X181371500Y-72624000D01*
X180124000Y-72624000D01*
X180124000Y-74126000D01*
X179126000Y-74126000D01*
X179126000Y-72624000D01*
X177624000Y-72624000D01*
X177624000Y-74126000D01*
X176626000Y-74126000D01*
X176626000Y-72624000D01*
X175124000Y-72624000D01*
X175124000Y-74126000D01*
X174126000Y-74126000D01*
X174126000Y-72624000D01*
X172624000Y-72624000D01*
X172624000Y-74126000D01*
X170725235Y-74126000D01*
X169223235Y-72624000D01*
X170634619Y-72624000D01*
X171626000Y-73615381D01*
X171626000Y-72624000D01*
X170634619Y-72624000D01*
X169223235Y-72624000D01*
X168225235Y-71626000D01*
X170124000Y-71626000D01*
X171626000Y-71626000D01*
X172624000Y-71626000D01*
X174126000Y-71626000D01*
X175124000Y-71626000D01*
X176626000Y-71626000D01*
X177624000Y-71626000D01*
X179126000Y-71626000D01*
X180124000Y-71626000D01*
X181371500Y-71626000D01*
X181371500Y-70124000D01*
X180124000Y-70124000D01*
X180124000Y-71626000D01*
X179126000Y-71626000D01*
X179126000Y-70124000D01*
X177624000Y-70124000D01*
X177624000Y-71626000D01*
X176626000Y-71626000D01*
X176626000Y-70124000D01*
X175124000Y-70124000D01*
X175124000Y-71626000D01*
X174126000Y-71626000D01*
X174126000Y-70124000D01*
X172624000Y-70124000D01*
X172624000Y-71626000D01*
X171626000Y-71626000D01*
X171626000Y-70124000D01*
X170124000Y-70124000D01*
X170124000Y-71626000D01*
X168225235Y-71626000D01*
X167357590Y-70758355D01*
X167357588Y-70758352D01*
X167238717Y-70639481D01*
X167238716Y-70639480D01*
X167151904Y-70589360D01*
X167151904Y-70589359D01*
X167151900Y-70589358D01*
X167101785Y-70560423D01*
X166949057Y-70519499D01*
X166790943Y-70519499D01*
X166783347Y-70519499D01*
X166783331Y-70519500D01*
X156506300Y-70519500D01*
X156439261Y-70499815D01*
X156395815Y-70451795D01*
X156308870Y-70281155D01*
X156289952Y-70255117D01*
X156194691Y-70124000D01*
X168134619Y-70124000D01*
X169126000Y-71115381D01*
X169126000Y-70124000D01*
X168134619Y-70124000D01*
X156194691Y-70124000D01*
X156160798Y-70077350D01*
X156160794Y-70077345D01*
X155982654Y-69899205D01*
X155982649Y-69899201D01*
X155778848Y-69751132D01*
X155778847Y-69751131D01*
X155778845Y-69751130D01*
X155708747Y-69715413D01*
X155554383Y-69636760D01*
X155314785Y-69558910D01*
X155065962Y-69519500D01*
X154814038Y-69519500D01*
X154689626Y-69539205D01*
X154565214Y-69558910D01*
X154325616Y-69636760D01*
X154101151Y-69751132D01*
X153897350Y-69899201D01*
X153897345Y-69899205D01*
X153719205Y-70077345D01*
X153719201Y-70077350D01*
X153571132Y-70281151D01*
X153456760Y-70505616D01*
X153378910Y-70745214D01*
X153339500Y-70994038D01*
X151626000Y-70994038D01*
X151626000Y-70124000D01*
X150124000Y-70124000D01*
X150124000Y-71569307D01*
X146626000Y-71569307D01*
X146626000Y-71248431D01*
X147624000Y-71248431D01*
X147646081Y-71240286D01*
X147650678Y-71238692D01*
X147926723Y-71148999D01*
X147931383Y-71147585D01*
X147959725Y-71139592D01*
X147964430Y-71138365D01*
X148002547Y-71129212D01*
X148007307Y-71128167D01*
X148036207Y-71122418D01*
X148041002Y-71121562D01*
X148327693Y-71076155D01*
X148332516Y-71075488D01*
X148361749Y-71072028D01*
X148366587Y-71071551D01*
X148405666Y-71068473D01*
X148410531Y-71068186D01*
X148439983Y-71067028D01*
X148444855Y-71066932D01*
X148735145Y-71066932D01*
X148740017Y-71067028D01*
X148769469Y-71068186D01*
X148774334Y-71068473D01*
X148813413Y-71071551D01*
X148818251Y-71072028D01*
X148847484Y-71075488D01*
X148852307Y-71076155D01*
X149126000Y-71119503D01*
X149126000Y-70124000D01*
X147624000Y-70124000D01*
X147624000Y-71248431D01*
X146626000Y-71248431D01*
X146626000Y-70124000D01*
X145124000Y-70124000D01*
X145124000Y-71626000D01*
X144126000Y-71626000D01*
X144126000Y-70124000D01*
X142624000Y-70124000D01*
X142624000Y-71626000D01*
X141500500Y-71626000D01*
X141500500Y-69126000D01*
X142624000Y-69126000D01*
X144126000Y-69126000D01*
X145124000Y-69126000D01*
X146626000Y-69126000D01*
X147624000Y-69126000D01*
X149126000Y-69126000D01*
X150124000Y-69126000D01*
X151626000Y-69126000D01*
X152624000Y-69126000D01*
X153266039Y-69126000D01*
X153267821Y-69124537D01*
X153290979Y-69106279D01*
X153294866Y-69103337D01*
X153530405Y-68932208D01*
X153534401Y-68929422D01*
X153558897Y-68913055D01*
X153562998Y-68910431D01*
X153596421Y-68889950D01*
X153600621Y-68887488D01*
X153626317Y-68873098D01*
X153630610Y-68870803D01*
X153890014Y-68738630D01*
X153894397Y-68736505D01*
X153921172Y-68724162D01*
X153925640Y-68722207D01*
X153961856Y-68707209D01*
X153966387Y-68705436D01*
X153993996Y-68695252D01*
X153998590Y-68693659D01*
X154126000Y-68652260D01*
X154126000Y-68522996D01*
X155124000Y-68522996D01*
X155124761Y-68523041D01*
X155163840Y-68526119D01*
X155168678Y-68526596D01*
X155197911Y-68530056D01*
X155202734Y-68530723D01*
X155490252Y-68576262D01*
X155495040Y-68577117D01*
X155523903Y-68582857D01*
X155528654Y-68583899D01*
X155566772Y-68593047D01*
X155571491Y-68594278D01*
X155599870Y-68602281D01*
X155604533Y-68603695D01*
X155881410Y-68693659D01*
X155886004Y-68695252D01*
X155913613Y-68705436D01*
X155918144Y-68707209D01*
X155954360Y-68722207D01*
X155958828Y-68724162D01*
X155985603Y-68736505D01*
X155989986Y-68738630D01*
X156249390Y-68870803D01*
X156253683Y-68873098D01*
X156279379Y-68887488D01*
X156283579Y-68889950D01*
X156317002Y-68910431D01*
X156321103Y-68913055D01*
X156345599Y-68929422D01*
X156349595Y-68932208D01*
X156585134Y-69103337D01*
X156589021Y-69106279D01*
X156612179Y-69124537D01*
X156613961Y-69126000D01*
X156626000Y-69126000D01*
X157624000Y-69126000D01*
X159126000Y-69126000D01*
X160124000Y-69126000D01*
X161626000Y-69126000D01*
X162624000Y-69126000D01*
X164126000Y-69126000D01*
X165124000Y-69126000D01*
X166626000Y-69126000D01*
X167624000Y-69126000D01*
X169126000Y-69126000D01*
X170124000Y-69126000D01*
X171626000Y-69126000D01*
X172624000Y-69126000D01*
X174126000Y-69126000D01*
X175124000Y-69126000D01*
X176626000Y-69126000D01*
X177624000Y-69126000D01*
X179126000Y-69126000D01*
X180124000Y-69126000D01*
X181371500Y-69126000D01*
X181371500Y-67624000D01*
X180124000Y-67624000D01*
X180124000Y-69126000D01*
X179126000Y-69126000D01*
X179126000Y-67624000D01*
X177624000Y-67624000D01*
X177624000Y-69126000D01*
X176626000Y-69126000D01*
X176626000Y-67624000D01*
X175124000Y-67624000D01*
X175124000Y-69126000D01*
X174126000Y-69126000D01*
X174126000Y-67624000D01*
X172624000Y-67624000D01*
X172624000Y-69126000D01*
X171626000Y-69126000D01*
X171626000Y-67624000D01*
X170124000Y-67624000D01*
X170124000Y-69126000D01*
X169126000Y-69126000D01*
X169126000Y-67624000D01*
X167624000Y-67624000D01*
X167624000Y-69126000D01*
X166626000Y-69126000D01*
X166626000Y-67624000D01*
X165124000Y-67624000D01*
X165124000Y-69126000D01*
X164126000Y-69126000D01*
X164126000Y-67624000D01*
X162624000Y-67624000D01*
X162624000Y-69126000D01*
X161626000Y-69126000D01*
X161626000Y-67624000D01*
X160124000Y-67624000D01*
X160124000Y-69126000D01*
X159126000Y-69126000D01*
X159126000Y-67624000D01*
X157624000Y-67624000D01*
X157624000Y-69126000D01*
X156626000Y-69126000D01*
X156626000Y-67624000D01*
X155124000Y-67624000D01*
X155124000Y-68522996D01*
X154126000Y-68522996D01*
X154126000Y-67624000D01*
X152624000Y-67624000D01*
X152624000Y-69126000D01*
X151626000Y-69126000D01*
X151626000Y-67624000D01*
X150124000Y-67624000D01*
X150124000Y-69126000D01*
X149126000Y-69126000D01*
X149126000Y-67624000D01*
X147624000Y-67624000D01*
X147624000Y-69126000D01*
X146626000Y-69126000D01*
X146626000Y-67624000D01*
X145124000Y-67624000D01*
X145124000Y-69126000D01*
X144126000Y-69126000D01*
X144126000Y-67624000D01*
X142624000Y-67624000D01*
X142624000Y-69126000D01*
X141500500Y-69126000D01*
X141500500Y-66626000D01*
X142624000Y-66626000D01*
X144126000Y-66626000D01*
X145124000Y-66626000D01*
X146626000Y-66626000D01*
X147624000Y-66626000D01*
X149126000Y-66626000D01*
X150124000Y-66626000D01*
X151626000Y-66626000D01*
X152624000Y-66626000D01*
X154126000Y-66626000D01*
X155124000Y-66626000D01*
X156626000Y-66626000D01*
X157624000Y-66626000D01*
X159126000Y-66626000D01*
X160124000Y-66626000D01*
X161626000Y-66626000D01*
X162624000Y-66626000D01*
X164126000Y-66626000D01*
X165124000Y-66626000D01*
X166626000Y-66626000D01*
X167624000Y-66626000D01*
X169126000Y-66626000D01*
X170124000Y-66626000D01*
X171626000Y-66626000D01*
X172624000Y-66626000D01*
X174126000Y-66626000D01*
X175124000Y-66626000D01*
X176626000Y-66626000D01*
X177624000Y-66626000D01*
X179126000Y-66626000D01*
X180124000Y-66626000D01*
X181371500Y-66626000D01*
X181371500Y-66498500D01*
X180124000Y-66498500D01*
X180124000Y-66626000D01*
X179126000Y-66626000D01*
X179126000Y-66498500D01*
X177624000Y-66498500D01*
X177624000Y-66626000D01*
X176626000Y-66626000D01*
X176626000Y-66498500D01*
X175124000Y-66498500D01*
X175124000Y-66626000D01*
X174126000Y-66626000D01*
X174126000Y-66498500D01*
X172624000Y-66498500D01*
X172624000Y-66626000D01*
X171626000Y-66626000D01*
X171626000Y-66498500D01*
X170124000Y-66498500D01*
X170124000Y-66626000D01*
X169126000Y-66626000D01*
X169126000Y-66498500D01*
X167624000Y-66498500D01*
X167624000Y-66626000D01*
X166626000Y-66626000D01*
X166626000Y-66498500D01*
X165124000Y-66498500D01*
X165124000Y-66626000D01*
X164126000Y-66626000D01*
X164126000Y-66498500D01*
X162624000Y-66498500D01*
X162624000Y-66626000D01*
X161626000Y-66626000D01*
X161626000Y-66498500D01*
X160124000Y-66498500D01*
X160124000Y-66626000D01*
X159126000Y-66626000D01*
X159126000Y-66498500D01*
X157624000Y-66498500D01*
X157624000Y-66626000D01*
X156626000Y-66626000D01*
X156626000Y-66498500D01*
X155124000Y-66498500D01*
X155124000Y-66626000D01*
X154126000Y-66626000D01*
X154126000Y-66498500D01*
X152624000Y-66498500D01*
X152624000Y-66626000D01*
X151626000Y-66626000D01*
X151626000Y-66498500D01*
X150124000Y-66498500D01*
X150124000Y-66626000D01*
X149126000Y-66626000D01*
X149126000Y-66498500D01*
X147624000Y-66498500D01*
X147624000Y-66626000D01*
X146626000Y-66626000D01*
X146626000Y-66498500D01*
X145124000Y-66498500D01*
X145124000Y-66626000D01*
X144126000Y-66626000D01*
X144126000Y-66498500D01*
X142624000Y-66498500D01*
X142624000Y-66626000D01*
X141500500Y-66626000D01*
X141500500Y-65624500D01*
X141520185Y-65557461D01*
X141572989Y-65511706D01*
X141624500Y-65500500D01*
X182245500Y-65500500D01*
X182312539Y-65520185D01*
G37*
%TD.AperFunction*%
%TD*%
M02*
