%TF.GenerationSoftware,KiCad,Pcbnew,10.0.3*%
%TF.CreationDate,2026-06-11T23:10:00+09:00*%
%TF.ProjectId,huck pad project,6875636b-2070-4616-9420-70726f6a6563,rev?*%
%TF.SameCoordinates,Original*%
%TF.FileFunction,Copper,L1,Top*%
%TF.FilePolarity,Positive*%
%FSLAX46Y46*%
G04 Gerber Fmt 4.6, Leading zero omitted, Abs format (unit mm)*
G04 Created by KiCad (PCBNEW 10.0.3) date 2026-06-11 23:10:00*
%MOMM*%
%LPD*%
G01*
G04 APERTURE LIST*
%TA.AperFunction,ComponentPad*%
%ADD10C,1.600000*%
%TD*%
%TA.AperFunction,ComponentPad*%
%ADD11C,2.200000*%
%TD*%
%TA.AperFunction,ComponentPad*%
%ADD12R,3.500000X1.700000*%
%TD*%
%TA.AperFunction,ComponentPad*%
%ADD13O,3.600000X1.700000*%
%TD*%
%TA.AperFunction,ComponentPad*%
%ADD14O,3.700000X1.700000*%
%TD*%
%TA.AperFunction,Conductor*%
%ADD15C,0.200000*%
%TD*%
G04 APERTURE END LIST*
D10*
%TO.P,R1,1*%
%TO.N,Net-(U1-5V)*%
X165750000Y-89750000D03*
%TO.P,R1,2*%
%TO.N,Net-(U1-PA5_A9_D9_MISO)*%
X165750000Y-99910000D03*
%TD*%
D11*
%TO.P,SW1,1,1_1*%
%TO.N,Net-(U1-PA5_A9_D9_MISO)*%
X154940000Y-71120000D03*
%TO.P,SW1,2,2_2*%
%TO.N,GND*%
X148590000Y-73660000D03*
%TD*%
%TO.P,SW2,1,1_1*%
%TO.N,Net-(U1-PA5_A9_D9_MISO)*%
X154940000Y-90170000D03*
%TO.P,SW2,2,2_2*%
%TO.N,GND*%
X148590000Y-92710000D03*
%TD*%
%TO.P,SW3,1,1_1*%
%TO.N,Net-(U1-PA5_A9_D9_MISO)*%
X154940000Y-109220000D03*
%TO.P,SW3,2,2_2*%
%TO.N,GND*%
X148590000Y-111760000D03*
%TD*%
D12*
%TO.P,U1,1,PA02_A0_D0_1*%
%TO.N,unconnected-(U1-PA02_A0_D0-Pad1)*%
X161000000Y-86920000D03*
D13*
%TO.P,U1,2,PA4_A1_D1_2*%
%TO.N,unconnected-(U1-PA4_A1_D1-Pad2)*%
X161000000Y-89460000D03*
%TO.P,U1,3,PA10_A2_D2_3*%
%TO.N,unconnected-(U1-PA10_A2_D2-Pad3)*%
X161000000Y-92000000D03*
%TO.P,U1,4,PA11_A3_D3_4*%
%TO.N,unconnected-(U1-PA11_A3_D3-Pad4)*%
X161000000Y-94540000D03*
%TO.P,U1,5,PA8_A4_D4_SDA_5*%
%TO.N,unconnected-(U1-PA8_A4_D4_SDA-Pad5)*%
X161000000Y-97080000D03*
%TO.P,U1,6,PA9_A5_D5_SCL_6*%
%TO.N,unconnected-(U1-PA9_A5_D5_SCL-Pad6)*%
X161000000Y-99620000D03*
%TO.P,U1,7,PB08_A6_D6_TX_7*%
%TO.N,unconnected-(U1-PB08_A6_D6_TX-Pad7)*%
X161000000Y-102160000D03*
%TO.P,U1,8,PB09_A7_D7_RX_8*%
%TO.N,unconnected-(U1-PB09_A7_D7_RX-Pad8)*%
X143750000Y-102160000D03*
%TO.P,U1,9,PA7_A8_D8_SCK_9*%
%TO.N,Net-(U1-PA5_A9_D9_MISO)*%
X143750000Y-99620000D03*
%TO.P,U1,10,PA5_A9_D9_MISO_10*%
X143750000Y-97080000D03*
D14*
%TO.P,U1,11,PA6_A10_D10_MOSI_11*%
X143750000Y-94540000D03*
%TO.P,U1,12,3V3_12*%
%TO.N,unconnected-(U1-3V3-Pad12)*%
X143750000Y-92000000D03*
%TO.P,U1,13,GND_13*%
%TO.N,GND*%
X143750000Y-89460000D03*
%TO.P,U1,14,5V_14*%
%TO.N,Net-(U1-5V)*%
X143750000Y-86920000D03*
%TD*%
%TO.N,Net-(U1-5V)*%
D15*
X148010101Y-72260000D02*
X144750000Y-75520101D01*
X164250000Y-88250000D02*
X151240000Y-88250000D01*
X149990000Y-73080101D02*
X149169899Y-72260000D01*
X149169899Y-72260000D02*
X148010101Y-72260000D01*
X149990000Y-87000000D02*
X149990000Y-73080101D01*
X144750000Y-75520101D02*
X144750000Y-86920000D01*
X151240000Y-88250000D02*
X149990000Y-87000000D01*
X165750000Y-89750000D02*
X164250000Y-88250000D01*
%TO.N,Net-(U1-PA5_A9_D9_MISO)*%
X154940000Y-94407056D02*
X154940000Y-90170000D01*
X164310000Y-98470000D02*
X159002944Y-98470000D01*
X154940000Y-107389899D02*
X149169899Y-113160000D01*
X145850000Y-100720000D02*
X144750000Y-99620000D01*
X154940000Y-109220000D02*
X154940000Y-90170000D01*
X155620000Y-90850000D02*
X154940000Y-90170000D01*
X145850000Y-110999899D02*
X145850000Y-100720000D01*
X159002944Y-98470000D02*
X154940000Y-94407056D01*
X166850000Y-83030000D02*
X166850000Y-90205635D01*
X154940000Y-71120000D02*
X166850000Y-83030000D01*
X165750000Y-99910000D02*
X164310000Y-98470000D01*
X149169899Y-113160000D02*
X148010101Y-113160000D01*
X154940000Y-90170000D02*
X154940000Y-107389899D01*
X148010101Y-113160000D02*
X145850000Y-110999899D01*
X166205635Y-90850000D02*
X155620000Y-90850000D01*
X166850000Y-90205635D02*
X166205635Y-90850000D01*
%TO.N,GND*%
X148590000Y-73660000D02*
X148590000Y-92710000D01*
X145340000Y-89460000D02*
X144750000Y-89460000D01*
X148590000Y-111760000D02*
X148590000Y-92710000D01*
X148590000Y-92710000D02*
X145340000Y-89460000D01*
%TD*%
%TA.AperFunction,Conductor*%
%TO.N,GND*%
G36*
X147925359Y-74015258D02*
G01*
X148007437Y-74138097D01*
X148111903Y-74242563D01*
X148234742Y-74324641D01*
X148265973Y-74337577D01*
X147649300Y-74954250D01*
X147651598Y-74983449D01*
X147637233Y-75051827D01*
X147588181Y-75101583D01*
X147520016Y-75116921D01*
X147508583Y-75115650D01*
X147406611Y-75099500D01*
X147233389Y-75099500D01*
X147193728Y-75105781D01*
X147062302Y-75126597D01*
X146897552Y-75180128D01*
X146743211Y-75258768D01*
X146687115Y-75299525D01*
X146603072Y-75360586D01*
X146603070Y-75360588D01*
X146603069Y-75360588D01*
X146480588Y-75483069D01*
X146480588Y-75483070D01*
X146480586Y-75483072D01*
X146436859Y-75543256D01*
X146378768Y-75623211D01*
X146300128Y-75777552D01*
X146246597Y-75942302D01*
X146246597Y-75942304D01*
X146219500Y-76113389D01*
X146219500Y-76286611D01*
X146246598Y-76457701D01*
X146300127Y-76622445D01*
X146378768Y-76776788D01*
X146480586Y-76916928D01*
X146603072Y-77039414D01*
X146743212Y-77141232D01*
X146897555Y-77219873D01*
X147062299Y-77273402D01*
X147233389Y-77300500D01*
X147233390Y-77300500D01*
X147406610Y-77300500D01*
X147406611Y-77300500D01*
X147577701Y-77273402D01*
X147742445Y-77219873D01*
X147896788Y-77141232D01*
X148036928Y-77039414D01*
X148159414Y-76916928D01*
X148261232Y-76776788D01*
X148339873Y-76622445D01*
X148393402Y-76457701D01*
X148420500Y-76286611D01*
X148420500Y-76113389D01*
X148393402Y-75942299D01*
X148339873Y-75777555D01*
X148261232Y-75623212D01*
X148159414Y-75483072D01*
X148106882Y-75430540D01*
X148073397Y-75369217D01*
X148078381Y-75299525D01*
X148120253Y-75243592D01*
X148185717Y-75219175D01*
X148213961Y-75220386D01*
X148464072Y-75260000D01*
X148715928Y-75260000D01*
X148964668Y-75220602D01*
X149204185Y-75142779D01*
X149209202Y-75140223D01*
X149277871Y-75127325D01*
X149342612Y-75153599D01*
X149382871Y-75210704D01*
X149389500Y-75250706D01*
X149389500Y-86913330D01*
X149389499Y-86913348D01*
X149389499Y-87079054D01*
X149389498Y-87079054D01*
X149389499Y-87079057D01*
X149430423Y-87231785D01*
X149432991Y-87236233D01*
X149432994Y-87236244D01*
X149432997Y-87236243D01*
X149509477Y-87368712D01*
X149509481Y-87368717D01*
X149628349Y-87487585D01*
X149628355Y-87487590D01*
X150755139Y-88614374D01*
X150755149Y-88614385D01*
X150759479Y-88618715D01*
X150759480Y-88618716D01*
X150871284Y-88730520D01*
X150958095Y-88780639D01*
X150958097Y-88780641D01*
X150996151Y-88802611D01*
X151008215Y-88809577D01*
X151160943Y-88850501D01*
X151160946Y-88850501D01*
X151326653Y-88850501D01*
X151326669Y-88850500D01*
X153696689Y-88850500D01*
X153763728Y-88870185D01*
X153809483Y-88922989D01*
X153819427Y-88992147D01*
X153790402Y-89055703D01*
X153784370Y-89062181D01*
X153719205Y-89127345D01*
X153719201Y-89127350D01*
X153571132Y-89331151D01*
X153456760Y-89555616D01*
X153378910Y-89795214D01*
X153339500Y-90044038D01*
X153339500Y-90295961D01*
X153378910Y-90544785D01*
X153456760Y-90784383D01*
X153535413Y-90938747D01*
X153551281Y-90969890D01*
X153571132Y-91008848D01*
X153719201Y-91212649D01*
X153719205Y-91212654D01*
X153897345Y-91390794D01*
X153897350Y-91390798D01*
X154071736Y-91517496D01*
X154101155Y-91538870D01*
X154271795Y-91625815D01*
X154322591Y-91673789D01*
X154339500Y-91736300D01*
X154339500Y-93715461D01*
X154319815Y-93782500D01*
X154267011Y-93828255D01*
X154197853Y-93838199D01*
X154134297Y-93809174D01*
X154117125Y-93790949D01*
X154095644Y-93762955D01*
X153887047Y-93554358D01*
X153887040Y-93554352D01*
X153652993Y-93374761D01*
X153397510Y-93227258D01*
X153397500Y-93227254D01*
X153124961Y-93114364D01*
X153124954Y-93114362D01*
X153124952Y-93114361D01*
X152839993Y-93038007D01*
X152791113Y-93031571D01*
X152547513Y-92999500D01*
X152547506Y-92999500D01*
X152252494Y-92999500D01*
X152252486Y-92999500D01*
X151974085Y-93036153D01*
X151960007Y-93038007D01*
X151785861Y-93084669D01*
X151675048Y-93114361D01*
X151675038Y-93114364D01*
X151402499Y-93227254D01*
X151402489Y-93227258D01*
X151147006Y-93374761D01*
X150912959Y-93554352D01*
X150912952Y-93554358D01*
X150704358Y-93762952D01*
X150704352Y-93762959D01*
X150524761Y-93997006D01*
X150377258Y-94252489D01*
X150377254Y-94252499D01*
X150264364Y-94525038D01*
X150264361Y-94525048D01*
X150197695Y-94773853D01*
X150188008Y-94810004D01*
X150188006Y-94810015D01*
X150149500Y-95102486D01*
X150149500Y-95397513D01*
X150172223Y-95570104D01*
X150188007Y-95689993D01*
X150262212Y-95966930D01*
X150264361Y-95974951D01*
X150264364Y-95974961D01*
X150377254Y-96247500D01*
X150377258Y-96247510D01*
X150524761Y-96502993D01*
X150704352Y-96737040D01*
X150704358Y-96737047D01*
X150912952Y-96945641D01*
X150912959Y-96945647D01*
X151147006Y-97125238D01*
X151402489Y-97272741D01*
X151402490Y-97272741D01*
X151402493Y-97272743D01*
X151675048Y-97385639D01*
X151960007Y-97461993D01*
X152252494Y-97500500D01*
X152252501Y-97500500D01*
X152547499Y-97500500D01*
X152547506Y-97500500D01*
X152839993Y-97461993D01*
X153124952Y-97385639D01*
X153397507Y-97272743D01*
X153652994Y-97125238D01*
X153887042Y-96945646D01*
X154095646Y-96737042D01*
X154117124Y-96709052D01*
X154173552Y-96667849D01*
X154243298Y-96663694D01*
X154304218Y-96697906D01*
X154336971Y-96759624D01*
X154339500Y-96784538D01*
X154339500Y-107089801D01*
X154319815Y-107156840D01*
X154303181Y-107177482D01*
X150280131Y-111200531D01*
X150218808Y-111234016D01*
X150149116Y-111229032D01*
X150093183Y-111187160D01*
X150074518Y-111151165D01*
X150072779Y-111145813D01*
X150072779Y-111145812D01*
X149958442Y-110921416D01*
X149884250Y-110819301D01*
X149884250Y-110819300D01*
X149267577Y-111435973D01*
X149254641Y-111404742D01*
X149172563Y-111281903D01*
X149068097Y-111177437D01*
X148945258Y-111095359D01*
X148914024Y-111082421D01*
X149530698Y-110465748D01*
X149428583Y-110391557D01*
X149204184Y-110277219D01*
X148964669Y-110199397D01*
X148715928Y-110160000D01*
X148464072Y-110160000D01*
X148215330Y-110199397D01*
X147975815Y-110277219D01*
X147751413Y-110391559D01*
X147649301Y-110465747D01*
X147649300Y-110465748D01*
X148265974Y-111082421D01*
X148234742Y-111095359D01*
X148111903Y-111177437D01*
X148007437Y-111281903D01*
X147925359Y-111404742D01*
X147912421Y-111435974D01*
X147295748Y-110819300D01*
X147295747Y-110819301D01*
X147221559Y-110921413D01*
X147107219Y-111145814D01*
X147107219Y-111145816D01*
X147105476Y-111151180D01*
X147066033Y-111208852D01*
X147001672Y-111236044D01*
X146932827Y-111224123D01*
X146899868Y-111200532D01*
X146486819Y-110787483D01*
X146472115Y-110760555D01*
X146455523Y-110734737D01*
X146454631Y-110728536D01*
X146453334Y-110726160D01*
X146450500Y-110699802D01*
X146450500Y-100809059D01*
X146450501Y-100809046D01*
X146450501Y-100640945D01*
X146450501Y-100640943D01*
X146409577Y-100488215D01*
X146356994Y-100397139D01*
X146330520Y-100351284D01*
X146218716Y-100239480D01*
X146218713Y-100239478D01*
X146046019Y-100066784D01*
X146012534Y-100005461D01*
X146015772Y-99940777D01*
X146017246Y-99936243D01*
X146050500Y-99726287D01*
X146050500Y-99513713D01*
X146017246Y-99303757D01*
X145951557Y-99101588D01*
X145855051Y-98912184D01*
X145855049Y-98912181D01*
X145855048Y-98912179D01*
X145730109Y-98740213D01*
X145579786Y-98589890D01*
X145407820Y-98464951D01*
X145407115Y-98464591D01*
X145399054Y-98460485D01*
X145348259Y-98412512D01*
X145331463Y-98344692D01*
X145353999Y-98278556D01*
X145399054Y-98239515D01*
X145407816Y-98235051D01*
X145429789Y-98219086D01*
X145579786Y-98110109D01*
X145579788Y-98110106D01*
X145579792Y-98110104D01*
X145730104Y-97959792D01*
X145730106Y-97959788D01*
X145730109Y-97959786D01*
X145855048Y-97787820D01*
X145855047Y-97787820D01*
X145855051Y-97787816D01*
X145951557Y-97598412D01*
X146017246Y-97396243D01*
X146050500Y-97186287D01*
X146050500Y-96973713D01*
X146017246Y-96763757D01*
X145951557Y-96561588D01*
X145855051Y-96372184D01*
X145855049Y-96372181D01*
X145855048Y-96372179D01*
X145730109Y-96200213D01*
X145579790Y-96049894D01*
X145579785Y-96049890D01*
X145406140Y-95923730D01*
X145363474Y-95868400D01*
X145357495Y-95798787D01*
X145390100Y-95736992D01*
X145422732Y-95712927D01*
X145457816Y-95695051D01*
X145457815Y-95695051D01*
X145457818Y-95695050D01*
X145629786Y-95570109D01*
X145629788Y-95570106D01*
X145629792Y-95570104D01*
X145780104Y-95419792D01*
X145780106Y-95419788D01*
X145780109Y-95419786D01*
X145905050Y-95247817D01*
X145905051Y-95247816D01*
X145986500Y-95087962D01*
X146034473Y-95037167D01*
X146102294Y-95020372D01*
X146168429Y-95042909D01*
X146211881Y-95097624D01*
X146218866Y-95158458D01*
X146219882Y-95158538D01*
X146219500Y-95163388D01*
X146219500Y-95336610D01*
X146234606Y-95431990D01*
X146246598Y-95507701D01*
X146300127Y-95672445D01*
X146378768Y-95826788D01*
X146480586Y-95966928D01*
X146603072Y-96089414D01*
X146743212Y-96191232D01*
X146897555Y-96269873D01*
X147062299Y-96323402D01*
X147233389Y-96350500D01*
X147233390Y-96350500D01*
X147406610Y-96350500D01*
X147406611Y-96350500D01*
X147577701Y-96323402D01*
X147742445Y-96269873D01*
X147896788Y-96191232D01*
X148036928Y-96089414D01*
X148159414Y-95966928D01*
X148261232Y-95826788D01*
X148339873Y-95672445D01*
X148393402Y-95507701D01*
X148420500Y-95336611D01*
X148420500Y-95163389D01*
X148393402Y-94992299D01*
X148339873Y-94827555D01*
X148261232Y-94673212D01*
X148159414Y-94533072D01*
X148106882Y-94480540D01*
X148073397Y-94419217D01*
X148078381Y-94349525D01*
X148120253Y-94293592D01*
X148185717Y-94269175D01*
X148213961Y-94270386D01*
X148464072Y-94310000D01*
X148715928Y-94310000D01*
X148964669Y-94270602D01*
X149204184Y-94192780D01*
X149428575Y-94078446D01*
X149428581Y-94078442D01*
X149530697Y-94004250D01*
X149530698Y-94004250D01*
X148914025Y-93387578D01*
X148945258Y-93374641D01*
X149068097Y-93292563D01*
X149172563Y-93188097D01*
X149254641Y-93065258D01*
X149267577Y-93034025D01*
X149884250Y-93650698D01*
X149884250Y-93650697D01*
X149958442Y-93548581D01*
X149958446Y-93548575D01*
X150072780Y-93324184D01*
X150150602Y-93084669D01*
X150190000Y-92835928D01*
X150190000Y-92584071D01*
X150150602Y-92335330D01*
X150072780Y-92095815D01*
X149958442Y-91871416D01*
X149884250Y-91769301D01*
X149884250Y-91769300D01*
X149267577Y-92385973D01*
X149254641Y-92354742D01*
X149172563Y-92231903D01*
X149068097Y-92127437D01*
X148945258Y-92045359D01*
X148914024Y-92032421D01*
X149530698Y-91415748D01*
X149428583Y-91341557D01*
X149204184Y-91227219D01*
X148964669Y-91149397D01*
X148715928Y-91110000D01*
X148464072Y-91110000D01*
X148215330Y-91149397D01*
X147975815Y-91227219D01*
X147751413Y-91341559D01*
X147649301Y-91415747D01*
X147649300Y-91415748D01*
X148265974Y-92032421D01*
X148234742Y-92045359D01*
X148111903Y-92127437D01*
X148007437Y-92231903D01*
X147925359Y-92354742D01*
X147912421Y-92385974D01*
X147295748Y-91769300D01*
X147295747Y-91769301D01*
X147221559Y-91871413D01*
X147107219Y-92095815D01*
X147029397Y-92335330D01*
X146990000Y-92584071D01*
X146990000Y-92835928D01*
X147029397Y-93084669D01*
X147107219Y-93324184D01*
X147221557Y-93548583D01*
X147295748Y-93650697D01*
X147295748Y-93650698D01*
X147912421Y-93034024D01*
X147925359Y-93065258D01*
X148007437Y-93188097D01*
X148111903Y-93292563D01*
X148234742Y-93374641D01*
X148265974Y-93387577D01*
X147649300Y-94004250D01*
X147651598Y-94033449D01*
X147637233Y-94101827D01*
X147588181Y-94151583D01*
X147520016Y-94166921D01*
X147508583Y-94165650D01*
X147406611Y-94149500D01*
X147233389Y-94149500D01*
X147193728Y-94155781D01*
X147062302Y-94176597D01*
X147062299Y-94176598D01*
X146917151Y-94223760D01*
X146897552Y-94230128D01*
X146743211Y-94308768D01*
X146687115Y-94349525D01*
X146603072Y-94410586D01*
X146603070Y-94410588D01*
X146603069Y-94410588D01*
X146480588Y-94533069D01*
X146480588Y-94533070D01*
X146480586Y-94533072D01*
X146436859Y-94593256D01*
X146378768Y-94673211D01*
X146324228Y-94780252D01*
X146276253Y-94831048D01*
X146208432Y-94847843D01*
X146142297Y-94825305D01*
X146098846Y-94770590D01*
X146091270Y-94704560D01*
X146100500Y-94646287D01*
X146100500Y-94433713D01*
X146067246Y-94223757D01*
X146001557Y-94021588D01*
X145905051Y-93832184D01*
X145905049Y-93832181D01*
X145905048Y-93832179D01*
X145780109Y-93660213D01*
X145629786Y-93509890D01*
X145457820Y-93384951D01*
X145457115Y-93384591D01*
X145449054Y-93380485D01*
X145398259Y-93332512D01*
X145381463Y-93264692D01*
X145403999Y-93198556D01*
X145449054Y-93159515D01*
X145457816Y-93155051D01*
X145513817Y-93114364D01*
X145629786Y-93030109D01*
X145629788Y-93030106D01*
X145629792Y-93030104D01*
X145780104Y-92879792D01*
X145780106Y-92879788D01*
X145780109Y-92879786D01*
X145889086Y-92729789D01*
X145905051Y-92707816D01*
X146001557Y-92518412D01*
X146067246Y-92316243D01*
X146100500Y-92106287D01*
X146100500Y-91893713D01*
X146067246Y-91683757D01*
X146001557Y-91481588D01*
X145905051Y-91292184D01*
X145905049Y-91292181D01*
X145905048Y-91292179D01*
X145780109Y-91120213D01*
X145629786Y-90969890D01*
X145457817Y-90844949D01*
X145448504Y-90840204D01*
X145397707Y-90792230D01*
X145380912Y-90724409D01*
X145403449Y-90658274D01*
X145448507Y-90619232D01*
X145457558Y-90614620D01*
X145629459Y-90489727D01*
X145629464Y-90489723D01*
X145779723Y-90339464D01*
X145779727Y-90339459D01*
X145904620Y-90167557D01*
X146001095Y-89978217D01*
X146066757Y-89776129D01*
X146066757Y-89776126D01*
X146077231Y-89710000D01*
X145183012Y-89710000D01*
X145215925Y-89652993D01*
X145250000Y-89525826D01*
X145250000Y-89394174D01*
X145215925Y-89267007D01*
X145183012Y-89210000D01*
X146077231Y-89210000D01*
X146066757Y-89143873D01*
X146066757Y-89143870D01*
X146001095Y-88941782D01*
X145904620Y-88752442D01*
X145779727Y-88580540D01*
X145779723Y-88580535D01*
X145629464Y-88430276D01*
X145629459Y-88430272D01*
X145457555Y-88305377D01*
X145448500Y-88300763D01*
X145397706Y-88252788D01*
X145380912Y-88184966D01*
X145403451Y-88118832D01*
X145448508Y-88079793D01*
X145457816Y-88075051D01*
X145537007Y-88017515D01*
X145629786Y-87950109D01*
X145629788Y-87950106D01*
X145629792Y-87950104D01*
X145780104Y-87799792D01*
X145780106Y-87799788D01*
X145780109Y-87799786D01*
X145905048Y-87627820D01*
X145905047Y-87627820D01*
X145905051Y-87627816D01*
X146001557Y-87438412D01*
X146067246Y-87236243D01*
X146100500Y-87026287D01*
X146100500Y-86813713D01*
X146067246Y-86603757D01*
X146001557Y-86401588D01*
X145905051Y-86212184D01*
X145905049Y-86212181D01*
X145905048Y-86212179D01*
X145780109Y-86040213D01*
X145629786Y-85889890D01*
X145457815Y-85764948D01*
X145457814Y-85764947D01*
X145418205Y-85744765D01*
X145367409Y-85696791D01*
X145350500Y-85634281D01*
X145350500Y-75820197D01*
X145370185Y-75753158D01*
X145386814Y-75732521D01*
X146899872Y-74219463D01*
X146961191Y-74185981D01*
X147030883Y-74190965D01*
X147086816Y-74232837D01*
X147105479Y-74268825D01*
X147107222Y-74274190D01*
X147221557Y-74498583D01*
X147295748Y-74600697D01*
X147295748Y-74600698D01*
X147912421Y-73984024D01*
X147925359Y-74015258D01*
G37*
%TD.AperFunction*%
%TA.AperFunction,Conductor*%
G36*
X144284075Y-89267007D02*
G01*
X144250000Y-89394174D01*
X144250000Y-89525826D01*
X144284075Y-89652993D01*
X144316988Y-89710000D01*
X143874000Y-89710000D01*
X143806961Y-89690315D01*
X143761206Y-89637511D01*
X143750000Y-89586000D01*
X143750000Y-89334000D01*
X143769685Y-89266961D01*
X143822489Y-89221206D01*
X143874000Y-89210000D01*
X144316988Y-89210000D01*
X144284075Y-89267007D01*
G37*
%TD.AperFunction*%
%TD*%
M02*
