%TF.GenerationSoftware,KiCad,Pcbnew,10.0.3*%
%TF.CreationDate,2026-06-11T23:10:01+09:00*%
%TF.ProjectId,huck pad project,6875636b-2070-4616-9420-70726f6a6563,rev?*%
%TF.SameCoordinates,Original*%
%TF.FileFunction,Legend,Top*%
%TF.FilePolarity,Positive*%
%FSLAX46Y46*%
G04 Gerber Fmt 4.6, Leading zero omitted, Abs format (unit mm)*
G04 Created by KiCad (PCBNEW 10.0.3) date 2026-06-11 23:10:01*
%MOMM*%
%LPD*%
G01*
G04 APERTURE LIST*
%ADD10C,0.150000*%
%ADD11C,0.120000*%
G04 APERTURE END LIST*
D10*
X168574819Y-94996666D02*
X168098628Y-95329999D01*
X168574819Y-95568094D02*
X167574819Y-95568094D01*
X167574819Y-95568094D02*
X167574819Y-95187142D01*
X167574819Y-95187142D02*
X167622438Y-95091904D01*
X167622438Y-95091904D02*
X167670057Y-95044285D01*
X167670057Y-95044285D02*
X167765295Y-94996666D01*
X167765295Y-94996666D02*
X167908152Y-94996666D01*
X167908152Y-94996666D02*
X168003390Y-95044285D01*
X168003390Y-95044285D02*
X168051009Y-95091904D01*
X168051009Y-95091904D02*
X168098628Y-95187142D01*
X168098628Y-95187142D02*
X168098628Y-95568094D01*
X168574819Y-94044285D02*
X168574819Y-94615713D01*
X168574819Y-94329999D02*
X167574819Y-94329999D01*
X167574819Y-94329999D02*
X167717676Y-94425237D01*
X167717676Y-94425237D02*
X167812914Y-94520475D01*
X167812914Y-94520475D02*
X167860533Y-94615713D01*
X151066667Y-68733200D02*
X151209524Y-68780819D01*
X151209524Y-68780819D02*
X151447619Y-68780819D01*
X151447619Y-68780819D02*
X151542857Y-68733200D01*
X151542857Y-68733200D02*
X151590476Y-68685580D01*
X151590476Y-68685580D02*
X151638095Y-68590342D01*
X151638095Y-68590342D02*
X151638095Y-68495104D01*
X151638095Y-68495104D02*
X151590476Y-68399866D01*
X151590476Y-68399866D02*
X151542857Y-68352247D01*
X151542857Y-68352247D02*
X151447619Y-68304628D01*
X151447619Y-68304628D02*
X151257143Y-68257009D01*
X151257143Y-68257009D02*
X151161905Y-68209390D01*
X151161905Y-68209390D02*
X151114286Y-68161771D01*
X151114286Y-68161771D02*
X151066667Y-68066533D01*
X151066667Y-68066533D02*
X151066667Y-67971295D01*
X151066667Y-67971295D02*
X151114286Y-67876057D01*
X151114286Y-67876057D02*
X151161905Y-67828438D01*
X151161905Y-67828438D02*
X151257143Y-67780819D01*
X151257143Y-67780819D02*
X151495238Y-67780819D01*
X151495238Y-67780819D02*
X151638095Y-67828438D01*
X151971429Y-67780819D02*
X152209524Y-68780819D01*
X152209524Y-68780819D02*
X152400000Y-68066533D01*
X152400000Y-68066533D02*
X152590476Y-68780819D01*
X152590476Y-68780819D02*
X152828572Y-67780819D01*
X153733333Y-68780819D02*
X153161905Y-68780819D01*
X153447619Y-68780819D02*
X153447619Y-67780819D01*
X153447619Y-67780819D02*
X153352381Y-67923676D01*
X153352381Y-67923676D02*
X153257143Y-68018914D01*
X153257143Y-68018914D02*
X153161905Y-68066533D01*
X151066667Y-87783200D02*
X151209524Y-87830819D01*
X151209524Y-87830819D02*
X151447619Y-87830819D01*
X151447619Y-87830819D02*
X151542857Y-87783200D01*
X151542857Y-87783200D02*
X151590476Y-87735580D01*
X151590476Y-87735580D02*
X151638095Y-87640342D01*
X151638095Y-87640342D02*
X151638095Y-87545104D01*
X151638095Y-87545104D02*
X151590476Y-87449866D01*
X151590476Y-87449866D02*
X151542857Y-87402247D01*
X151542857Y-87402247D02*
X151447619Y-87354628D01*
X151447619Y-87354628D02*
X151257143Y-87307009D01*
X151257143Y-87307009D02*
X151161905Y-87259390D01*
X151161905Y-87259390D02*
X151114286Y-87211771D01*
X151114286Y-87211771D02*
X151066667Y-87116533D01*
X151066667Y-87116533D02*
X151066667Y-87021295D01*
X151066667Y-87021295D02*
X151114286Y-86926057D01*
X151114286Y-86926057D02*
X151161905Y-86878438D01*
X151161905Y-86878438D02*
X151257143Y-86830819D01*
X151257143Y-86830819D02*
X151495238Y-86830819D01*
X151495238Y-86830819D02*
X151638095Y-86878438D01*
X151971429Y-86830819D02*
X152209524Y-87830819D01*
X152209524Y-87830819D02*
X152400000Y-87116533D01*
X152400000Y-87116533D02*
X152590476Y-87830819D01*
X152590476Y-87830819D02*
X152828572Y-86830819D01*
X153161905Y-86926057D02*
X153209524Y-86878438D01*
X153209524Y-86878438D02*
X153304762Y-86830819D01*
X153304762Y-86830819D02*
X153542857Y-86830819D01*
X153542857Y-86830819D02*
X153638095Y-86878438D01*
X153638095Y-86878438D02*
X153685714Y-86926057D01*
X153685714Y-86926057D02*
X153733333Y-87021295D01*
X153733333Y-87021295D02*
X153733333Y-87116533D01*
X153733333Y-87116533D02*
X153685714Y-87259390D01*
X153685714Y-87259390D02*
X153114286Y-87830819D01*
X153114286Y-87830819D02*
X153733333Y-87830819D01*
X151066667Y-106833200D02*
X151209524Y-106880819D01*
X151209524Y-106880819D02*
X151447619Y-106880819D01*
X151447619Y-106880819D02*
X151542857Y-106833200D01*
X151542857Y-106833200D02*
X151590476Y-106785580D01*
X151590476Y-106785580D02*
X151638095Y-106690342D01*
X151638095Y-106690342D02*
X151638095Y-106595104D01*
X151638095Y-106595104D02*
X151590476Y-106499866D01*
X151590476Y-106499866D02*
X151542857Y-106452247D01*
X151542857Y-106452247D02*
X151447619Y-106404628D01*
X151447619Y-106404628D02*
X151257143Y-106357009D01*
X151257143Y-106357009D02*
X151161905Y-106309390D01*
X151161905Y-106309390D02*
X151114286Y-106261771D01*
X151114286Y-106261771D02*
X151066667Y-106166533D01*
X151066667Y-106166533D02*
X151066667Y-106071295D01*
X151066667Y-106071295D02*
X151114286Y-105976057D01*
X151114286Y-105976057D02*
X151161905Y-105928438D01*
X151161905Y-105928438D02*
X151257143Y-105880819D01*
X151257143Y-105880819D02*
X151495238Y-105880819D01*
X151495238Y-105880819D02*
X151638095Y-105928438D01*
X151971429Y-105880819D02*
X152209524Y-106880819D01*
X152209524Y-106880819D02*
X152400000Y-106166533D01*
X152400000Y-106166533D02*
X152590476Y-106880819D01*
X152590476Y-106880819D02*
X152828572Y-105880819D01*
X153114286Y-105880819D02*
X153733333Y-105880819D01*
X153733333Y-105880819D02*
X153400000Y-106261771D01*
X153400000Y-106261771D02*
X153542857Y-106261771D01*
X153542857Y-106261771D02*
X153638095Y-106309390D01*
X153638095Y-106309390D02*
X153685714Y-106357009D01*
X153685714Y-106357009D02*
X153733333Y-106452247D01*
X153733333Y-106452247D02*
X153733333Y-106690342D01*
X153733333Y-106690342D02*
X153685714Y-106785580D01*
X153685714Y-106785580D02*
X153638095Y-106833200D01*
X153638095Y-106833200D02*
X153542857Y-106880819D01*
X153542857Y-106880819D02*
X153257143Y-106880819D01*
X153257143Y-106880819D02*
X153161905Y-106833200D01*
X153161905Y-106833200D02*
X153114286Y-106785580D01*
%TO.C,R1*%
D11*
X165750000Y-90790000D02*
X165750000Y-91560000D01*
X165750000Y-98870000D02*
X165750000Y-98100000D01*
X164380000Y-91560000D02*
X167120000Y-91560000D01*
X167120000Y-98100000D01*
X164380000Y-98100000D01*
X164380000Y-91560000D01*
%TO.C,SW1*%
X145415000Y-69215000D02*
X159385000Y-69215000D01*
X145415000Y-83185000D02*
X145415000Y-69215000D01*
X159385000Y-69215000D02*
X159385000Y-83185000D01*
X159385000Y-83185000D02*
X145415000Y-83185000D01*
%TO.C,SW2*%
X145415000Y-88265000D02*
X159385000Y-88265000D01*
X145415000Y-102235000D02*
X145415000Y-88265000D01*
X159385000Y-88265000D02*
X159385000Y-102235000D01*
X159385000Y-102235000D02*
X145415000Y-102235000D01*
%TO.C,SW3*%
X145415000Y-107315000D02*
X159385000Y-107315000D01*
X145415000Y-121285000D02*
X145415000Y-107315000D01*
X159385000Y-107315000D02*
X159385000Y-121285000D01*
X159385000Y-121285000D02*
X145415000Y-121285000D01*
%TD*%
M02*
